<?xml version="1.0" encoding="UTF-8"?>
<svg id="Camada_2" data-name="Camada 2" xmlns="http://www.w3.org/2000/svg" viewBox="0 0 753.26 392.59">
  <defs>
    <style>
      .cls-1 {
        fill: #4bc1eb;
      }

      .cls-2 {
        fill: #0f406b;
      }
    </style>
  </defs>
  <g id="Page-1">
    <g id="_Camada_" data-name="&amp;lt;Camada&amp;gt;">
      <g>
        <g>
          <path class="cls-2" d="M516.7,163.19c-.37.03-.48.42-.65.68-6.6,10.42-12.27,21.42-19.15,31.7-6.53,9.76-11.86,17.92-25.21,12.78-9.59-3.69-13.68-15.29-13.22-24.91.91-19.21,16.85-57.32,33.3-68.09,7.19-4.7,11.86-3.34,19.01.38,1.56.81,9.09,5.78,9.9,5.76.67-.01,2.83-3.71,3.44-4.52,2.38-3.18,7.36-9.56,11.1-10.78,3.58-1.16,11.93,1.66,12.22,5.98.24,3.6-4.52,15.92-5.78,20.26-5.11,17.65-11.03,39.58-6.69,57.83,1.04,4.38,5.04,10.01.32,13.25-4.11,2.81-11.43-.12-14.32-3.67-2.67-3.29-3.58-13.17-3.98-17.59-.59-6.38-.44-12.69-.3-19.07ZM475.92,195.11c.57.42,2.55-2.66,2.9-3.16,2.34-3.3,4.52-7.02,6.68-10.47,9.6-15.35,18.5-31.14,27.89-46.61.14-.35.09-.68,0-1.03-.18-.74-2.56-4.79-3.14-5.74-2.61-4.31-3-5.76-7.44-2.02-13.41,11.28-29.25,49.5-27.49,66.82.08.81.45,1.44.6,2.21Z"/>
          <g>
            <path class="cls-2" d="M753.15,121.8c.17,1.51.12,4.36,0,5.91-1.65,20.67-14.9,44.63-30.14,58.39-8.56,7.73-15.85,11.95-27.57,7.46-14.15-5.42-10.65-26.14-8.05-37.77,3.34-15.01,10.86-29.91,19.59-42.48,2.35-3.39,9.64-13.4,13.36-14.43,2.64-.73,5.31,1.87,7.75,2.61,2.62.79,5.48.38,8.23.93,9.07,1.82,15.82,10.31,16.83,19.38ZM737.48,115.59c-1.33.21-2.62.86-3.99.91s-2.78-.72-3.77-.56c-6.22,1.02-11.67,11.11-14.46,16.3-6.39,11.9-11.52,26.42-13.75,39.76-.21,1.28-1.47,8.05-.68,8.63,17.89-11.75,30.82-32.02,35.32-52.91.84-3.91,1.67-8.16,1.32-12.13Z"/>
            <path class="cls-2" d="M659.75,163.19l-12.88,21.55c-5.82,7.72-12.6,25.19-23.92,25.18-12.24,0-19.37-8.97-21.05-20.36-1.61-10.91,3.83-27.7,8.06-37.9,4.8-11.59,16.71-33.94,28.95-38.45,9.54-3.51,17.25,5.01,25.39,8.31,3.04-4.54,8.45-13.05,13.57-15.16,3.93-1.61,13.32,1.7,12.85,6.62-6.86,25.1-19.12,53.72-11.84,79.98.8,2.89,2.73,5.31,1.42,8.36-2.46,5.73-11.49,2.96-15.09-.3-2.63-2.38-2.95-4.6-3.59-7.93-1.91-9.84-1.98-19.91-1.87-29.91ZM649.6,123.64c-.81.07-3.47,2.23-4.19,2.88-12.89,11.59-28.78,48.91-27.03,66.08.46,4.56,2.49.89,3.78-.94,2.64-3.72,5.13-8.04,7.57-11.94,9.16-14.69,17.69-29.79,26.64-44.61.4-1.48-1.65-4.67-2.48-6.12-.66-1.15-2.96-5.47-4.29-5.35Z"/>
            <path class="cls-2" d="M568.48,210.54c-.14.22-.12,1.3-.33,1.88-.49,1.34-1.4,2.35-1.79,3.68,11.19.26,22.03,4.89,20.99,17.9-.87,10.94-14.17,23.78-25.28,23.81-2.41,0-4.45-1.73-3.92-4.24.91-4.36,9.69-7.18,12.18-11.76,1.62-2.98.91-7.82-1.81-9.98-6.11-4.86-17.27-2.42-15.74-14.07.35-2.66,2.63-5.06,3.23-7.56-12.27-3.39-15.21-15.06-14.79-26.47.7-19.13,10.62-59.06,28.68-68.87,4.71-2.56,15.23-1.99,20.46-.65,6.55,1.68,9.35,5.65,10.25,12.22.43,3.17,1.01,9.06-3.36,9.57-4.61.53-10.67-2.28-11.35-7.27-.54-4.04.4-6.06-4.66-3.12-11.43,6.65-18.48,32.81-20.69,45.23-.89,4.98-3.25,22.15-1.04,25.98.15.25.24.53.52.68.29.06,1.3-.78,1.61-1.03,4.68-3.82,9.89-9.5,14.19-13.89,2.26-2.3,8.54-10.03,10.93-10.94,4.06-1.55,14.25,1.05,13.41,6.59-.79,5.23-12.25,17.66-16.37,21.5-2.82,2.63-6.74,6.02-9.96,8.07-.89.57-5.2,2.52-5.36,2.77Z"/>
          </g>
          <g>
            <path class="cls-2" d="M509.01,0c2.95,1.58,6.16,9.83,4.28,12.41-1.78,2.45-12.17,2.2-15.21,2.37l3.01,3.93c.55,1.19,1.35,2.21,1.14,3.61l-6.23,30c9.81.62,19.68,1.46,29.27,3.69,5.25,1.22,18.72,4.56,18.32,11.52-.28,5.01-5.73,6.33-9.66,4.35-1.78-.89-3.58-3.25-5.24-3.92-1.23-.5-3.97-.82-5.43-1.07-9.35-1.6-19.16-2.12-28.57-1.85-1.17.03-4.68-.3-5.34.28l-18.52,42.08c-14.32,42.24-22.87,86.24-34.11,129.37-3.43,4.53-15.13-1.96-15.77-6.06-.37-2.37,1.01-7.66,1.55-10.24,1.32-6.34,3.07-12.66,4.72-18.93,11.78-44.78,27.47-88.44,40.11-132.97-9.4.21-18.87.46-28.18,1.82-5.15.75-11.01,1.92-15.77,4.04-3.27,1.46-4.15,3.11-8.22,2.71-7.62-.75-17.49-11.3-8.03-16.9,8.88-5.25,29.96-5.07,40.55-5.55,6.21-.28,13.22-.12,19.19-.61,1.13-.09,4.87-.83,5.76-1.34,1.2-.69,3.17-6.2,3.78-7.75,3.8-9.68,6.52-19.81,10.71-29.34-13.55.71-27.13,1.82-40.64,3.25-50.41,5.33-102.93,14.87-150.74,31.62-21.65,7.59-47.97,18.45-65.89,32.83-6.13,4.92-18.36,15.69-11.39,24.07,8.22,9.89,40.39,14.15,53.05,15.52,31.61,3.42,65.75,3.39,97.54,2.08,7.29-.3,18.88-3.44,22.44,5.31,3.83,9.4-5.01,12.39-11.89,15-22.86,8.66-47.85,14.15-71.16,22.24-18.96,6.58-55.33,20.55-67.52,36.52-2.93,3.84-2.29,5.21,1.91,7.24,15.58,7.53,48.86,3.89,66.17,1.73,7.55-.94,20.43-2.36,27.16-5.35,2.84-1.26,2.43-2.41,4.07-4.5,5.56-7.11,23.24-15.28,31.99-12.21,6.8,2.39,12.1,12.71,7.16,18.86-7.24,9.02-30.57,14.03-41.77,16.16-11.72,2.23-23.78,3.83-35.67,4.82-20.15,1.68-62.68,5.32-73.2-16.94-11.24-23.77,21.19-39.9,38.37-48.05,18.3-8.69,37.46-13.87,55.66-21.78,1.11-.48,2.65-.88,3.26-1.91-22.48-.95-45.25-2.07-67.44-6.01-20.63-3.66-49.3-10.36-54.24-34.44-4.48-21.82,23.54-39.14,39.81-47.81,25.28-13.49,55-23.17,82.7-30.51C382.98,8.58,440.76,1.35,498.84.31l.72-.31h9.46Z"/>
            <path class="cls-2" d="M421.17,101.78c7.79-.88,17.12,1.96,22.69,7.59,2.09,2.11,5.4,7.55.3,8.01-6.11.55-10.65-6.5-17.21-2.73-7.42,4.26-14.05,20.02-14.57,28.29-.72,11.46,8.76,24.74,10.8,36.2,2.45,13.72-10.61,14.96-21,14.5-7.42-.33-10.55-1.91-17.14-4.44-2.87-1.1-5.2-1.18-7.7-3.24-1.95-1.61-4.88-4.49-1.72-6.46,5.85-3.65,20.96,5.14,29.06,2.16,3.18-1.17,2.29-4.07,1.7-6.71-2.3-10.16-8.04-19.64-9.58-30.33-2.2-15.18,6.8-40.86,24.38-42.85Z"/>
          </g>
          <path class="cls-2" d="M648.92,72.32c-4.08-4.09-.02-10.37,3.64-13.15,3.34-2.53,9.33-4.25,13.41-3.17,3.4.9,5.5,5.05,9.02,5.16,4.3.14,10.23-4.69,14.16-.86,4.2,4.1-2.33,12.47-6.87,13.23-9,1.51-11.8-7.38-22.35-2.84-1.98.85-3.13,2.04-5.44,2.54-2.18.47-3.89.78-5.58-.91Z"/>
        </g>
        <g>
          <path class="cls-1" d="M55.03,392.59h-8.57c-2.13-.51-4.34-.72-6.44-1.39-6.8-2.19-12.1-7.77-11.55-15.27.26-3.57,2.85-10.2,6.26-11.76,4.7-2.16,11.78,5.38,9.02,9.32-1.57,2.24-3.57.08-4.34.53-.65.38-2.44,5.42-2.39,6.34.1,1.7,4.4,2.12,5.73,2.21,13.87.94,36.66-3.17,49.42-8.83,4.37-1.94,8.24-3.27,6.45-8.92-1.88-5.95-14.37-14.78-19.56-18.57-23.4-17.1-66.64-41.96-76.86-69.75-1.01-2.73-1.54-5.52-2.14-8.35.13-1.91-.18-4.03,0-5.91,2.17-22.28,39.66-39.39,57.86-46.64,26.5-10.55,56.7-18.48,84.85-23.34,18.85-3.25,52.08-8.25,63.54,11.64,1.08,1.87,3.54,7.22.37,8.24-3.54,1.13-6.88-5.26-9.33-7.25-9.56-7.74-32.32-5.61-43.99-4.1-21.72,2.8-44.59,8.95-65.44,15.55s-55.63,18.37-69.81,35.71c-4.34,5.31-7.34,10.77-5.33,17.74,4.67,16.2,32.69,36.33,46.14,46.38,15.29,11.42,36.52,24.49,49.04,38.46,4.95,5.53,10.44,12.44,3.99,19.09-10.13,10.44-42.62,18.09-56.91,18.91Z"/>
          <g>
            <path class="cls-1" d="M200.45,314.84l17.61-28.35c5.08-7.87,18.78-29.77,26.52-33.49,4.8-2.3,11.05,1,12.51,5.86-2.37,11.74-6.24,23.15-8.17,34.99,8.88-9.92,16.68-20.83,25.56-30.75,2.64-2.95,5.9-6.61,8.86-9.17,3.28-2.83,4.91-3.87,9.12-1.71,6.68,3.42,6.61,9.56,5.14,15.97-2.72,11.83-7.98,23.72-11.06,35.65-2.09,8.1-4.75,19.33-1.79,27.34.95,2.56,4.88,7.49-.82,7.91-5.98.44-9.91-5.31-11.6-10.28-5.58-16.43,2.66-34.83,5.99-50.92-9.7,11.67-18.24,24.26-27.77,36.07-9.28,5.66-13.92-1.55-14.9-10.25-.74-6.54.13-13.13.11-19.62-12,13.6-19,31.18-29.76,45.62-3.57,4.79-8.56,11.72-15.4,9.3-7.73-2.74-5.71-16.29-4.56-22.46,4.4-23.59,16.3-47.16,23.8-69.91,3.01-4.44,7.9-.37,10.06,2.77,1.58,2.31,5.3,10.15,2.57,12.22-1.33,1.01-3.02,0-3.77,1.26-4.41,12.27-9.24,24.41-13.53,36.72-1.74,4.99-3.74,10.06-4.72,15.23Z"/>
            <path class="cls-1" d="M340.54,300.06l-16.25,26.76c-5.55,8.38-10.21,16.49-21.96,12.2-8.5-3.11-12.19-13.2-11.74-21.66.89-16.66,14.32-48.64,28.4-58.21,6.5-4.41,10.7-2.85,17.12.55,1.23.65,7.19,4.6,7.83,4.59.79-.02,2.4-3.04,2.98-3.81,1.91-2.52,6.55-8.59,9.57-9.35,3.47-.88,11.09,1.67,10.53,6.07-.66,5.17-4.11,13.22-5.64,18.62-4.57,16.06-8.98,33.67-4.37,50.19.71,2.53,2.52,4.54.93,7.26-2.54,4.36-10.42,1.88-13.27-1.13-1.97-2.08-2.39-5.33-2.86-8.08-1.35-7.93-1.37-15.97-1.27-24.01ZM305.38,327.26c.45.08.69-.03,1.05-.28.92-.62,5.21-7.7,6.16-9.21,8.73-13.77,16.62-28.08,25.18-41.95.23-.83-1.64-3.96-2.2-4.93-1.8-3.16-2.57-6.12-6.26-3.2-7.95,6.28-15.75,22.43-19.21,31.93-3.15,8.64-5.84,18.42-4.72,27.65Z"/>
            <path class="cls-1" d="M162.02,300.06l-17.13,27.94c-5.35,9.09-12.22,15.97-23.36,10.05-16.11-8.57-7.66-35.42-2.2-48.33,4.19-9.91,14.4-28.96,24.97-32.67,7.77-2.73,14.72,4.53,21.38,7.21,2.79-3.89,5.88-8.66,9.65-11.66,3.14-2.5,7.48-1.92,10.63.32,2.07,1.47,2.64,2.66,2.25,5.17-.7,4.47-3.42,10.74-4.74,15.36-4.37,15.24-9.41,33.55-5.91,49.37.8,3.61,4.37,9.34.43,11.96-3.42,2.28-9.78-.15-12.25-3.09-2.54-3.01-3.38-13.14-3.69-17.3-.36-4.81-.27-9.52,0-14.33ZM152.79,266.42c-2.5.5-7.31,6.72-8.86,8.89-8.4,11.77-17.35,32.82-17.68,47.35-.02,1.04-.16,5.97,1.74,4.11s5.02-7.57,6.67-10.18c8.39-13.3,16.07-27.05,24.28-40.46.24-.52.13-.97,0-1.5-.26-1-2.59-4.8-3.29-5.88-.77-1.18-1.23-2.65-2.86-2.33Z"/>
            <path class="cls-1" d="M496.82,244.85c2.37-.49,4.74,2.05,7.16,2.46,5.1.88,7.67.1,12.47,3.2,17.47,11.3,2.88,43.59-6.3,56.45-5.27,7.38-17.51,21.36-27.28,20.89-15.9-.77-17.75-12.49-16.07-25.82,2.01-15.93,8.92-31.04,17.92-44.16,2.01-2.94,8.85-12.35,12.1-13.02ZM511.38,259.27c-.12-.13-2.83.84-3.42.86-1.03.03-2.01-.7-3.2-.56-4.85.57-8.59,7.14-10.87,11.03-6.02,10.28-10.87,23.36-13.11,35.07-.25,1.28-1.59,8.77-1.02,9.17s4.99-3.22,5.75-3.85c10.99-9.11,19.35-22.69,23.36-36.36,1.45-4.94,2.62-10.21,2.51-15.37Z"/>
            <path class="cls-1" d="M395.82,249.21c1.52-.49,2.51-2.06,3.94-2.71,3.85-1.77,8.74-.74,12.12,1.58,3.54,2.43,10.89,12.34,12.96,16.3,1.16,2.21,2.18,4.55-1.38,4.93-5.44.57-9.38-3.81-12.55-7.54-.83-.98-1.99-2.98-2.81-3.7-.26-.22-.33-.38-.74-.29-12.43,19.38-19.05,41.55-27.57,62.75-.68,1.69-3.08,8.1-4.15,9-2.95,2.49-12.04-1.45-13.09-5.21-1.08-3.87.99-14.6,1.74-19,2.24-13.19,5.58-27.33,9.58-40.08,1.64-5.23,6.49-20.29,10.86-23.13,3.43-2.23,12.13,2.3,11.09,7.1Z"/>
            <path class="cls-1" d="M418.38,336.32c-7.82-8-5.66-22.98-3.85-33.06,2.41-13.49,10.32-39.69,24.15-45.32,4.3-1.75,15.82-.84,20,1.57,4.78,2.74,5.73,9.35,5.12,14.4-.24,1.96-1.21,2.65-3.1,2.81-4.73.4-8.71-1.91-9.59-6.69-.18-1,.36-3.16-1.07-3.38-1.06-.16-3.66,1.56-4.55,2.26-11.47,9.05-18.82,42.74-17.75,56.73.05.64.39,4.21,1.31,3.99l8.59-7.97,13.14-13.76c3-2.64,12.61.24,12.67,4.44.04,2.68-5.49,9.63-7.35,11.82-8.7,10.28-24.73,25.47-37.72,12.17Z"/>
          </g>
        </g>
      </g>
    </g>
  </g>
</svg>