<?xml version="1.0" encoding="UTF-8"?>
<svg id="Camada_2" data-name="Camada 2" xmlns="http://www.w3.org/2000/svg" viewBox="0 0 38.2 87.77">
  <defs>
    <style>
      .cls-1 {
        fill: #3b1212;
      }

      .cls-2 {
        fill: #f0e8dd;
      }

      .cls-3 {
        fill: #7d501a;
      }

      .cls-4 {
        fill: #f0edec;
      }

      .cls-5 {
        fill: #dd4948;
      }

      .cls-6 {
        fill: #e68e3c;
      }

      .cls-7 {
        fill: #0a0f13;
      }

      .cls-8 {
        fill: #151111;
      }
    </style>
  </defs>
  <g id="Page-3">
    <g id="_Camada_" data-name="&amp;lt;Camada&amp;gt;">
      <g>
        <path class="cls-6" d="M6.82,48.46l2.01.07,2.02-.2c5.26-.64,8.66-1.88,13.42-4.09l.84-.4,1.66-.16c.86.8,1.16,2.49,1.48,3.68l-.65.73c-2.36,1.49-4.88,2.34-7.51,3.27-4.13,1.07-9.89,2.66-14.08,1.9-.63-2.15-1.46-3.27.53-4.65l.29-.16Z"/>
        <path class="cls-8" d="M6.82,48.46l2.01.07,2.02-.2c5.26-.64,8.66-1.88,13.42-4.09l.84-.4,1.66-.16-1.11.86c-.51.28-3.07,1.64-3.35,1.89-3.71,1.26-7.16,2.33-11.09,2.82-1.09.14-1.88.15-2.91.59-.58-.18-1.04-.37-1.6-.59l-.17-.63.29-.16Z"/>
        <path class="cls-6" d="M8.31,49.85c1.02-.44,1.82-.45,2.91-.59,3.92-.49,7.38-1.57,11.09-2.82-1.29,2.55-11.9,5.05-13.99,3.41Z"/>
        <path class="cls-7" d="M6.82,48.46l2.01.07,2.02-.2c5.26-.64,8.66-1.88,13.42-4.09l.84-.4,1.66-.16c.86.8,1.16,2.49,1.48,3.68.84.21,2.04.31,2.19,1.24.87,5.14,8.4,28.39,7.71,31.93-3.1,4.56-24.03,10.94-25.59,4.47-2.43-10.09-5.69-20.62-7.92-30.69l1.37-1.05c-.63-2.15-1.46-3.27.53-4.65l.29-.16Z"/>
        <path class="cls-4" d="M9.33,59.3c-.35-1.31-.87-2.53-.39-3.76l.5-.04c1.36,1.52,1.41,2.65,1.95,4.68,1.25,5.95,5.79,19.77,5.69,24.72h-.82c-2.57-7.3-4.63-17.8-6.93-25.59Z"/>
        <path class="cls-8" d="M6.01,53.27c4.19.76,9.95-.84,14.08-1.9-3.01,2.86-5.41,2.17-9.63,3.38.53,1.97,1.07,3.36.93,5.43-.54-2.03-.58-3.16-1.95-4.68l-.5.04c-.48,1.23.03,2.44.39,3.76-1.23-1.96-1.01-3.72-1.84-4.86-1-.47-1.73-.26-2.85-.12l1.37-1.05Z"/>
        <path class="cls-6" d="M18.35,22.39c1.14.61,1.14.55,1.62,2.08,1.92,6.2,3.27,13.22,5.14,19.37l-.84.4c-4.76,2.21-8.16,3.45-13.42,4.09l-2.02.2-2.01-.07c-.67-2.73-5.59-19.35-4.96-21.2l1.76.14,1.81.22c5.42-.92,8.59-1.62,13.16-4.84l-.24-.39Z"/>
        <path class="cls-2" d="M1.87,27.27l1.76.14,1.81.22c1.73,6.82,3.83,13.91,5.42,20.71l-2.02.2-2.01-.07c-.67-2.73-5.59-19.35-4.96-21.2Z"/>
        <path class="cls-6" d="M1.87,27.27l1.76.14c.29,3.89,3.97,16.6,5.2,21.13l-2.01-.07c-.67-2.73-5.59-19.35-4.96-21.2Z"/>
        <path class="cls-3" d="M18.35,22.39c1.14.61,1.14.55,1.62,2.08,1.92,6.2,3.27,13.22,5.14,19.37l-.84.4c-1.5-5.12-4.14-17.52-5.68-21.46l-.24-.39Z"/>
        <path class="cls-1" d="M1.87,27.27c.4-.27.79-.57,1.18-.85C3.74,23.45-.43,14.22.04,10.38.4,7.41,3.87-.9,7.55.08c6.93,1.85,6.65,17.63,9.77,22.14l1.04.17.24.39c-4.57,3.22-7.73,3.92-13.16,4.84l-1.81-.22-1.76-.14Z"/>
        <path class="cls-5" d="M1.9,12.62c1,1.29,2.8.65,3.89-.27,3.91-3.27,3.76-5.22,4.36-9.91,2.56,5.49,4.68,14.73,6.09,20.81-4.24,2.11-7.1,2.87-11.74,3.1-1.27-4.8-2.68-10.67-3.74-15.5l1.14,1.76Z"/>
        <path class="cls-5" d="M.76,10.86C1.11,7.85,3.43.27,7.33.74c4.44,2.87,1.28,12.12-5.43,11.88l-1.14-1.76Z"/>
      </g>
    </g>
  </g>
</svg>