<?xml version="1.0" encoding="UTF-8"?>
<svg id="Camada_2" data-name="Camada 2" xmlns="http://www.w3.org/2000/svg" viewBox="0 0 130.79 87.5">
  <defs>
    <style>
      .cls-1 {
        fill: #302e2c;
      }

      .cls-2 {
        fill: #0b406a;
      }

      .cls-3 {
        fill: #0e1c1e;
      }

      .cls-4 {
        fill: #fad4ba;
      }

      .cls-5 {
        fill: #dd4948;
      }

      .cls-6 {
        fill: #0a0f13;
      }
    </style>
  </defs>
  <g id="Page-3">
    <g id="_Camada_" data-name="&amp;lt;Camada&amp;gt;">
      <g>
        <path class="cls-2" d="M125.5,20.59c4.14.73,5.63,3.65,5.22,7.91-.25,2.61-2.69,4.12-4.68,5.3-6.83,3.88-13.9,7.53-20.86,11.19l-36.35,19c-9.5,4.92-19.02,9.8-28.57,14.62-5.34,2.69-24.38,14.88-27.81,5.25-3.55-2.43-5.93,2.43-10.41,2.42-6.32-3.74,3.8-7.46,6.72-9.04-.09-2.61-.13-3.36.73-5.84.15-.8.36-1.36.82-2.03,1.62-2.32,88.13-61.71,96.44-66.95,1.66-1.05,3.5-2.11,5.49-2.35,1.54-.18,3.11.06,4.3,1.14,1.3,1.19,1.85,3,1.77,4.73-.09,2.16-1.19,3.2-2.65,4.62-15.78,10.75-32.17,22.48-48.3,32.63-.44,1.39-.84,2.22-.64,3.66l1.04.67c3.64-2.65,17.85-9.52,22.52-11.97,9.31-4.62,18.37-9.98,27.87-14.17,2.59-1.14,3.33.98,7.36-.77Z"/>
        <path class="cls-6" d="M125.5,20.59c-.13,1.42.07,1.99-1.23,2.92-3.12,2.22-7.53,3.95-10.99,5.57l-51.16,25.92c-4.2,2.13-25.88,14.4-29.41,13.44l-.66-.95c1.32-5.52,31.64-19.61,33.82-25l1.48.68c-.44,1.39-.84,2.22-.64,3.66l1.04.67c3.64-2.65,17.85-9.52,22.52-11.97,9.31-4.62,18.37-9.98,27.87-14.17,2.59-1.14,3.33.98,7.36-.77Z"/>
        <path class="cls-4" d="M125.5,20.59c-.13,1.42.07,1.99-1.23,2.92-3.12,2.22-7.53,3.95-10.99,5.57l-1-.88-28,14.43c-3.28,1.66-11.44,5.97-14.65,6.84-.82-.33-.8-.27-1.32-.98l-.56-.99c3.64-2.65,17.85-9.52,22.52-11.97,9.31-4.62,18.37-9.98,27.87-14.17,2.59-1.14,3.33.98,7.36-.77Z"/>
        <path class="cls-1" d="M125.5,20.59c-.13,1.42.07,1.99-1.23,2.92-3.12,2.22-7.53,3.95-10.99,5.57l-1-.88c2.06-.98,8.31-3.53,9.11-5.38l-.36-.6c-.99-.09-2.59-.1-3.47.38-5.83,3.21-11.73,6.28-17.64,9.33l-20.49,10.54c-2.55,1.31-8.95,4.51-11.11,6.01l-.56-.99c3.64-2.65,17.85-9.52,22.52-11.97,9.31-4.62,18.37-9.98,27.87-14.17,2.59-1.14,3.33.98,7.36-.77Z"/>
        <path class="cls-1" d="M115.65,10.54c-15.78,10.75-32.17,22.48-48.3,32.63l-1.48-.68-.84-1.3c.69-2.22,42.93-30.43,48.21-34.25.53-.38,1.31.27,1.73.54.75,1.75.86,1.35.67,3.06Z"/>
        <path class="cls-4" d="M114.15,9.36c-.26.39-.5.74-.83,1.08-3.39,3.41-42.8,30.28-45.73,31.23-.31.1-1.01,0-1.35,0,2-2.07,42.96-30.77,45.63-32.11,1.1-.55,1.11-.62,2.28-.21Z"/>
        <path class="cls-3" d="M9.49,71.38l.42.11c-.06,2.11-.27,3.55.43,5.54.5,1.42,2.48,5.78,2.11,6.83-3.55-2.43-5.93,2.43-10.41,2.42-6.32-3.74,3.8-7.46,6.72-9.04-.09-2.61-.13-3.36.73-5.84Z"/>
        <path class="cls-5" d="M33.45,77.72c-1.41,1.53-2.83,2.7-5.04,2.77-1.12.04-2.16-.37-2.94-1.19-1.43-1.5-1.24-3.31-1.13-5.21.22-.22.44-.44.65-.65,1.49-1.42,2.91-2.33,5.08-2.17,1.02.08,1.92.5,2.58,1.29,1.26,1.5,1.04,3.36.79,5.15Z"/>
        <path class="cls-3" d="M27.27,65.73c-1.78.86-3.45,1.8-5.13,2.84l-1.03-.45c.85-1.13,1.74-2.27,3.11-2.8,1.11-.43,2.02-.08,3.04.4Z"/>
      </g>
    </g>
  </g>
</svg>