<?xml version="1.0" encoding="UTF-8"?>
<svg id="Camada_2" data-name="Camada 2" xmlns="http://www.w3.org/2000/svg" viewBox="0 0 65.21 66.52">
  <defs>
    <style>
      .cls-1 {
        fill: #c25d25;
      }

      .cls-2 {
        fill: #64576b;
      }

      .cls-3 {
        fill: #1a161f;
      }

      .cls-4 {
        fill: #151111;
      }
    </style>
  </defs>
  <g id="Page-3">
    <g id="_Camada_" data-name="&amp;lt;Camada&amp;gt;">
      <g>
        <path class="cls-2" d="M3.35,12.25c-.89-.49-1.74-.75-2.17-1.5l.35-.47c1.28.55,1.22.76,2.41.6.69-.58,1.1-1.4,1.57-2.18-1.03-.84-1.23-.73-1.61-1.8.9-.38,1.61.6,2.21,1.22.73-.75,1.55-1.64,2.3-2.36-.87-1.06-1.05-.96-1.26-2.14l.3-.17c.83.39,1.01.85,1.46,1.63,1.42-.57,1.59-1.02,2.57-1.52-.41-.87-.82-1.44-.64-2.35.75.18.98,1.07,1.27,1.77,1.01-.21,1.74-.3,2.55-1,.07-1.24-.13-1.2.51-2,.61.57.44,1.22.28,2.02.74.22,1.47.43,2.21.63.93-1.38.72-1.51,2.02-2.19l.27.26c-.15.98-.74,1.5-1.4,2.29l2.12,1.68c.69-.79,1.38-1.79,2.36-2.03l.23.27c-.3,1.09-1.21,1.74-2.06,2.53l1.99,1.93c.8-.77,1.68-1.81,2.72-2.01.27.97-1.38,2.25-2.07,2.9l2.12,1.71c.81-.76,1.56-1.65,2.61-1.82l.13.35c-.56.98-1.02,1.31-1.87,2.05.11.94.99,1.6,1.7,2.25.78-.78,1.59-1.78,2.63-2l.16.29c-.5,1.11-1.04,1.48-1.95,2.29.27.96.92,1.46,1.64,2.19.77-.78,1.58-1.78,2.6-2.04l.27.26c-.29,1-1.47,1.85-2.29,2.58.65.6,1.25,1.22,2,1.69.76-.76,1.58-1.79,2.59-1.98l.24.29c-.35,1.05-1.2,1.59-2.06,2.31.54.91.68,1.14,1.39,1.94.82-.76,1.69-1.75,2.76-1.94l.18.34c-.43.95-1.37,1.62-2.18,2.31.57.53,1.32,1.27,1.92,1.72.78-.73,1.51-1.59,2.53-1.76l.24.27c-.3.91-1.2,1.52-1.95,2.16.16.94.98,1.52,1.7,2.17.81-.76,1.54-1.65,2.59-1.83l.18.28c-.42.95-1.1,1.46-1.86,2.17.32,1.25.52,1.12,1.57,2.18.76-.66,1.36-1.37,2.3-1.45l.17.31c-.3.88-1.13,1.38-1.88,1.96,1.92,3.14,1.51,5.02-.02,8.28-.96.6-6.47,6.26-7,7.34-3.19,1.54-6.22,2.97-9.18.34-.72.8-1.45,1.86-2.46,2.06l-.2-.34c.32-.99,1-1.46,1.78-2.15-.15-.56-1.33-1.7-1.78-2.18-.74.78-1.5,1.76-2.49,2.04l-.32-.22c.24-1.01,1.21-1.74,2-2.47-.55-.69-1.22-1.4-1.81-2.06-.77.8-1.6,1.86-2.64,2.1l-.19-.32c.37-1.08,1.25-1.75,2.09-2.55-.31-.42-1.38-1.39-1.81-1.81-.78.78-1.59,1.8-2.62,1.97l-.19-.36c.32-.99,1.36-1.76,2.16-2.48l-1.81-1.91c-.78.82-1.56,1.86-2.64,1.99l-.25-.32c.24-.96,1.34-1.77,2.11-2.46-.54-.46-1.31-1.35-1.81-1.9-.81.74-1.69,1.78-2.7,1.95l-.21-.33c.35-1.03,1.2-1.58,2.04-2.29-.38-.67-1.22-1.46-1.77-2.05-.77.76-1.45,1.6-2.47,1.91l-.32-.23c.28-1.02,1.2-1.69,2.01-2.43l-1.69-2.06c-.78.78-1.67,1.87-2.71,2.05l-.22-.29c.34-.98,1.2-1.57,1.99-2.27-.14-.58-1.17-1.6-1.61-2.1-.83.75-1.65,1.76-2.68,1.87l-.2-.33c.37-1,1.29-1.59,2.13-2.28l-1.54-2c-.83.74-1.51,1.48-2.59,1.73l-.28-.27c.29-.97,1.31-1.68,2.12-2.37-.38-.44-.72-1.13-1-1.65-.94.38-2.01,1.01-2.93.47.46-.85,1.37-1.07,2.32-1.48-.04-.59.04-1.61.07-2.24.34-.17.2-.12.46-.51l-.31-.5c0-.85.22-1.38.47-2.19Z"/>
        <path class="cls-3" d="M36.49,21.34c-.71.78-1.24,1.55-2.21,1.83l-.34-.28c.17-1.03.98-1.56,1.78-2.27.82-.76,1.69-1.75,2.76-1.94l.18.34c-.43.95-1.37,1.62-2.18,2.31Z"/>
        <path class="cls-3" d="M23.84,8.29c-.59.71-1.08,1.42-1.93,1.77l-.38-.18c.11-.99.97-1.73,1.66-2.49.8-.77,1.68-1.81,2.72-2.01.27.97-1.38,2.25-2.07,2.9Z"/>
        <path class="cls-3" d="M31.58,16.39c-.66.73-1.31,1.62-2.23,1.87l-.2-.3c.24-1.01,1.07-1.63,1.85-2.36.77-.78,1.58-1.78,2.6-2.04l.27.26c-.29,1-1.47,1.85-2.29,2.58Z"/>
        <path class="cls-3" d="M39.23,23.74c-.86.69-1.46,2.01-2.75,2.01.1-1,1.2-1.93,1.93-2.69.78-.73,1.51-1.59,2.53-1.76l.24.27c-.3.91-1.2,1.52-1.95,2.16Z"/>
        <path class="cls-3" d="M26.82,10.58c-.78,1.05-1.18,1.76-2.33,2.35l-.32-.17c.11-.96,1.13-1.99,1.78-2.77.81-.76,1.56-1.65,2.61-1.82l.13.35c-.56.98-1.02,1.31-1.87,2.05Z"/>
        <path class="cls-3" d="M41.84,26.53c-.93.95-1.36,1.49-2.54,2.09l-.33-.1c.21-1,1.19-1.75,1.96-2.6.81-.76,1.54-1.65,2.59-1.83l.18.28c-.42.95-1.1,1.46-1.86,2.17Z"/>
        <path class="cls-3" d="M29.36,13.41c-.74.86-1.35,1.73-2.37,2.18l-.29-.21c.24-1.07,1.06-1.75,1.83-2.56.78-.78,1.59-1.78,2.63-2l.16.29c-.5,1.11-1.04,1.48-1.95,2.29Z"/>
        <path class="cls-3" d="M34.34,18.69c-.76.6-1.81,2.27-2.86,1.79.42-1.01,1.28-1.66,2.09-2.4.76-.76,1.58-1.79,2.59-1.98l.24.29c-.35,1.05-1.2,1.59-2.06,2.31Z"/>
        <path class="cls-3" d="M22.55,40.16c-.77.8-1.6,1.86-2.64,2.1l-.19-.32c.37-1.08,1.25-1.75,2.09-2.55.75-.61,1.98-1.55,2.45-2.37l1.08.7c-1.32.26-1.88,1.29-2.79,2.43Z"/>
        <path class="cls-3" d="M21.19,5.46c-.83.98-.9,1.39-1.96,1.79l-.23-.36c.21-.99.93-1.5,1.67-2.2.69-.79,1.38-1.79,2.36-2.03l.23.27c-.3,1.09-1.21,1.74-2.06,2.53Z"/>
        <path class="cls-3" d="M44,29.51c-.88.65-1.23,1.78-2.42,1.72.19-1.11,1-1.68,1.83-2.53.76-.66,1.36-1.37,2.3-1.45l.17.31c-.3.88-1.13,1.38-1.88,1.96Z"/>
        <path class="cls-3" d="M17.52,34.8c-.78.82-1.56,1.86-2.64,1.99l-.25-.32c.24-.96,1.34-1.77,2.11-2.46.73-.58,1-1.01,1.8-1.08-.1.87-.44,1.07-1.01,1.87Z"/>
        <path class="cls-3" d="M20,37.58c-.78.78-1.59,1.8-2.62,1.97l-.19-.36c.32-.99,1.36-1.76,2.16-2.48.69-.51,1.11-1.03,1.82-1.03-.1.79-.6,1.23-1.16,1.9Z"/>
        <path class="cls-3" d="M5.01,21.26c-.83.74-1.51,1.48-2.59,1.73l-.28-.27c.29-.97,1.31-1.68,2.12-2.37.62-.58.79-.86,1.62-.93l.25.36c-.21.77-.53.95-1.13,1.48Z"/>
        <path class="cls-3" d="M25.16,42.87c-.74.78-1.5,1.76-2.49,2.04l-.32-.22c.24-1.01,1.21-1.74,2-2.47.64-.69.88-1.08,1.78-1.36l.31.24c-.17.68-.73,1.41-1.28,1.77Z"/>
        <path class="cls-3" d="M14.93,32.12c-.81.74-1.69,1.78-2.7,1.95l-.21-.33c.35-1.03,1.2-1.58,2.04-2.29.64-.62.98-1.11,1.83-1.22l.12.42c-.42.69-.54.87-1.1,1.46Z"/>
        <path class="cls-3" d="M7.29,24c-.83.75-1.65,1.76-2.68,1.87l-.2-.33c.37-1,1.29-1.59,2.13-2.28.83-.63.78-.81,1.69-.83l.04.51c-.33.37-.64.72-.99,1.07Z"/>
        <path class="cls-3" d="M12.3,29.41c-.77.76-1.45,1.6-2.47,1.91l-.32-.23c.28-1.02,1.2-1.69,2.01-2.43.51-.64.66-.94,1.41-1.25l.27.32c-.21.82-.4,1-.91,1.67Z"/>
        <path class="cls-3" d="M27.81,45.47c-.72.8-1.45,1.86-2.46,2.06l-.2-.34c.32-.99,1-1.46,1.78-2.15.63-.73.84-1.08,1.76-1.43l.33.22c-.27.83-.58,1.02-1.22,1.63Z"/>
        <path class="cls-3" d="M9.83,26.61c-.78.78-1.67,1.87-2.71,2.05l-.22-.29c.34-.98,1.2-1.57,1.99-2.27.65-.6.97-1.04,1.81-1.12l.14.34c-.37.67-.46.76-1.02,1.28Z"/>
        <path class="cls-3" d="M18.55,3.01c-.63.83-.75,1.25-1.6,1.5-.03-.9.2-.97.7-1.86.93-1.38.72-1.51,2.02-2.19l.27.26c-.15.98-.74,1.5-1.4,2.29Z"/>
        <path class="cls-3" d="M5.51,8.71c-1.03-.84-1.23-.73-1.61-1.8.9-.38,1.61.6,2.21,1.22.62.56,1.36,1.05,1.5,1.81-.83-.05-1.41-.68-2.1-1.23Z"/>
        <path class="cls-3" d="M8.41,5.77c-.87-1.06-1.05-.96-1.26-2.14l.3-.17c.83.39,1.01.85,1.46,1.63.64.75,1.2,1.2,1.15,2.07-.87-.21-.95-.6-1.65-1.39Z"/>
        <path class="cls-3" d="M14.66,2c.07-1.24-.13-1.2.51-2,.61.57.44,1.22.28,2.02-.51.86-.18,1.55-.98,2.3-.29-.6.04-1.61.19-2.33Z"/>
        <path class="cls-4" d="M3.26,18.7c-.94.38-2.01,1.01-2.93.47.46-.85,1.37-1.07,2.32-1.48l.63-.03.22.47-.25.57Z"/>
        <path class="cls-4" d="M3.35,12.25c-.89-.49-1.74-.75-2.17-1.5l.35-.47c.79.45,2.4,1.23,2.79,1.93-.59.25-.28.2-.97.04Z"/>
        <path class="cls-3" d="M11.48,3.57c-.41-.87-.82-1.44-.64-2.35.75.18.98,1.07,1.27,1.77l.22.34-.16.44-.53.1-.16-.3Z"/>
        <path class="cls-3" d="M24.25,37.02c.98-.64.71-.68,1.69-.61l.33.33-.14.56c-.15.08-.67.38-.8.42l-1.08-.7Z"/>
        <path class="cls-3" d="M13.96,25.89c-.11-.47.18-.94.64-1.05.47-.11.94.17,1.06.63.08.31-.01.63-.24.85-.23.22-.55.3-.86.21-.3-.09-.54-.33-.61-.64Z"/>
        <path class="cls-3" d="M16.69,28.96c-.11-.3-.05-.63.15-.87s.52-.35.83-.29c.31.06.56.28.66.58.15.45-.09.94-.54,1.1-.45.16-.94-.08-1.11-.52Z"/>
        <path class="cls-3" d="M11.41,15.66c-.06-.44.22-.84.65-.94.43-.1.86.14,1,.55.11.31.03.65-.2.88-.23.23-.57.31-.88.21-.31-.11-.53-.38-.57-.7Z"/>
        <path class="cls-3" d="M20.8,18.03c.19-.62.46-1.11.8-1.66.6-.26.6-.24,1.19-.06l-.66,1.45c-.6.41-.61.38-1.33.26Z"/>
        <path class="cls-3" d="M8.81,20.23c-.15-.27-.15-.6.02-.86.16-.26.45-.42.76-.41.31.01.59.19.73.46.21.41.05.92-.36,1.14-.41.22-.92.07-1.14-.33Z"/>
        <path class="cls-3" d="M19.32,31.7c-.07-.42.2-.83.61-.95.41-.12.85.09,1.01.49.13.3.07.65-.15.9-.22.25-.56.34-.88.25-.32-.09-.55-.36-.6-.69Z"/>
        <path class="cls-3" d="M12.57,8.58c.24-.5.53-.85.89-1.27.71-.03.69.04,1.2.49-.46.62-.61,1.05-1.39,1.27l-.69-.49Z"/>
        <path class="cls-3" d="M14.14,18.76c-.17-.42.02-.89.43-1.07.41-.18.89,0,1.09.4.13.27.1.59-.08.84-.18.25-.47.38-.77.34s-.56-.23-.67-.51Z"/>
        <path class="cls-3" d="M17.97,14.26c.5-.58.68-.87,1.43-1.12l.72.39c-.28.48-.6.89-.97,1.32l-.58.04-.59-.63Z"/>
        <path class="cls-3" d="M9.09,12.93c-.13-.28-.09-.6.09-.85.19-.24.49-.36.79-.3.3.05.55.27.63.57.12.41-.09.85-.49,1-.4.15-.85-.03-1.03-.41Z"/>
        <path class="cls-3" d="M24.14,29.27c-.02-.31.13-.59.4-.75.26-.16.59-.15.85.02.26.16.4.46.37.76-.04.42-.4.74-.82.73-.42,0-.77-.34-.79-.76Z"/>
        <path class="cls-3" d="M27.16,39.86c-.05-.42.23-.8.64-.89.41-.09.82.14.95.54.1.3.02.62-.2.84-.22.22-.55.29-.84.19-.29-.1-.5-.37-.54-.67Z"/>
        <path class="cls-3" d="M19.07,24.18c-.12-.27-.08-.59.1-.82.18-.23.48-.35.77-.3.29.05.53.26.63.54.14.41-.07.85-.47,1.01-.4.16-.85-.03-1.03-.42Z"/>
        <path class="cls-3" d="M22,34.2c.06-.43.45-.74.89-.69.43.04.75.43.72.86-.02.29-.2.55-.47.68-.27.12-.58.09-.82-.09-.24-.18-.36-.47-.32-.76Z"/>
        <path class="cls-3" d="M16.51,21.34c-.08-.29.01-.61.24-.81.23-.2.55-.26.83-.14.28.12.47.38.49.68.03.41-.26.78-.66.84-.41.07-.8-.18-.9-.58Z"/>
        <path class="cls-3" d="M29.42,34.74c-.06-.43.24-.84.67-.9.43-.07.84.23.91.66.05.28-.06.57-.29.75-.22.18-.53.23-.8.12-.27-.11-.46-.35-.5-.63Z"/>
        <path class="cls-3" d="M6.5,16.9c-.07-.42.2-.82.61-.92.41-.1.83.14.95.55.09.29,0,.6-.21.81-.21.21-.53.28-.81.19s-.5-.34-.54-.63Z"/>
        <path class="cls-3" d="M11.41,22.93c-.14-.4.05-.83.44-.99.39-.16.84,0,1.02.39.13.26.1.58-.08.81-.17.23-.46.36-.75.31-.29-.04-.53-.24-.63-.52Z"/>
        <path class="cls-3" d="M32.05,37.49c0-.41.3-.76.71-.8.41-.04.78.23.86.64.06.29-.06.59-.29.78-.24.18-.55.22-.82.09-.27-.13-.44-.4-.45-.7Z"/>
        <path class="cls-3" d="M21.56,26.59c-.05-.43.26-.82.69-.87.43-.05.82.26.87.69.05.43-.26.81-.69.86-.43.05-.82-.26-.87-.68Z"/>
        <path class="cls-3" d="M15.31,11.82c.18-.38.36-.88.69-1.16.44-.37.89-.21,1.42-.17-.24.42-.5,1-.89,1.29-.45.34-.73.16-1.22.04Z"/>
        <path class="cls-3" d="M32.23,26.73c-.07-.38.14-.76.51-.89.36-.13.77.02.96.36.15.27.13.61-.06.86-.19.25-.51.36-.81.29-.3-.07-.54-.31-.6-.62Z"/>
        <path class="cls-3" d="M23.84,21.14c.32-.7.41-1.13,1.08-1.57l.87.2c-.19.4-.41.96-.75,1.23-.42.33-.72.2-1.2.13Z"/>
        <path class="cls-3" d="M26.87,31.86c.03-.41.37-.72.78-.71.41,0,.74.33.75.74.01.28-.14.55-.38.69-.25.14-.55.14-.79-.01-.24-.15-.38-.42-.36-.7Z"/>
        <path class="cls-3" d="M24.01,17.97c-.14-.39.04-.81.41-.98.37-.17.81-.01,1,.35.14.26.12.57-.05.81-.17.24-.45.37-.74.33-.29-.04-.53-.23-.63-.51Z"/>
        <path class="cls-3" d="M30.28,42.84c-.17-.25-.18-.58-.01-.84.16-.26.46-.39.76-.35.3.04.55.26.63.55.1.36-.08.75-.42.91-.34.16-.75.04-.96-.27Z"/>
        <path class="cls-3" d="M29.66,23.89c-.11-.27-.05-.57.14-.78.19-.21.49-.29.77-.21.28.08.48.32.52.6.06.37-.17.73-.54.83-.37.1-.75-.09-.89-.44Z"/>
        <path class="cls-3" d="M26.86,20.68c.02-.4.35-.71.75-.7.4,0,.72.34.71.74,0,.26-.15.51-.38.63-.23.13-.51.12-.74-.02-.22-.14-.36-.39-.35-.65Z"/>
        <path class="cls-3" d="M26.52,24.32c.1-.25.2-.52.34-.75.41-.69.7-.69,1.44-.91-.05.36-.09.79-.31,1.09-.35.48-.92.47-1.47.57Z"/>
        <path class="cls-3" d="M34.74,29.51c.05-.38.38-.65.76-.62.38.03.66.35.65.73-.01.26-.16.49-.39.61-.23.11-.51.09-.72-.06s-.32-.4-.29-.66Z"/>
        <path class="cls-3" d="M29.72,26.9c-.16-.21-.18-.5-.07-.73.12-.24.35-.39.62-.4s.51.13.64.36c.18.33.08.74-.23.95-.32.21-.74.13-.96-.18Z"/>
        <path class="cls-3" d="M34.43,40.03c.01-.26.16-.49.39-.6.23-.11.5-.09.71.06.21.15.32.4.28.66-.05.37-.38.64-.75.6s-.65-.35-.64-.72Z"/>
        <path class="cls-3" d="M21.16,14.49c-.15-.34,0-.74.33-.91.34-.17.74-.04.92.29.12.23.12.5-.03.72-.14.22-.39.34-.65.32-.26-.02-.48-.18-.58-.42Z"/>
        <path class="cls-3" d="M32.45,30.01c-.14-.23-.14-.51,0-.74.14-.23.4-.36.66-.33s.49.2.59.45c.13.34-.02.72-.34.88-.32.16-.71.05-.9-.26Z"/>
        <path class="cls-3" d="M38.21,35.63c.02-.31.26-.57.57-.62.31-.05.62.11.74.4.11.26.05.57-.15.76-.2.2-.51.25-.77.13-.26-.12-.41-.39-.39-.67Z"/>
        <path class="cls-3" d="M18.47,11.33c-.12-.23-.1-.5.04-.71.14-.21.39-.32.65-.29.25.03.47.2.56.43.13.34-.03.73-.36.87-.33.15-.73.02-.89-.31Z"/>
        <path class="cls-3" d="M35.27,33c-.12-.35.06-.73.41-.86.35-.13.73.03.88.37.1.23.07.5-.09.7-.16.2-.41.3-.66.25-.25-.04-.46-.22-.54-.46Z"/>
        <path class="cls-3" d="M15.9,7.8c-.01-.35.25-.65.59-.69.35-.04.67.19.73.54.05.25-.05.5-.25.66s-.47.19-.7.08c-.23-.11-.38-.34-.38-.59Z"/>
        <path class="cls-3" d="M37.47,32.82c-.15-.31-.02-.69.29-.84.31-.16.69-.04.85.27.11.2.1.45-.02.65-.13.2-.35.31-.58.29-.23-.01-.44-.15-.54-.36Z"/>
        <path class="cls-3" d="M4.86,13.94c-.11-.31.04-.65.34-.78.3-.13.65,0,.8.29.1.21.08.45-.05.64-.13.19-.36.28-.59.25-.23-.03-.42-.18-.5-.4Z"/>
        <path class="cls-1" d="M36.99,45.13c.52-1.08,6.03-6.74,7-7.34,4.14,5.66,20.41,16.82,21.19,22.85.18,1.41-.32,2.72-1.18,3.83-.86,1.11-1.97,1.87-3.4,2.01-1.55.15-3-.41-4.28-1.25-1.93-1.27-3.63-3.22-5.2-4.9-4.62-4.94-8.93-10.93-14.13-15.21Z"/>
        <path class="cls-4" d="M2.72,15.45c-.88-.01-2.24.13-2.72-.64.76-.55,1.9-.39,2.88-.37l.31.5c-.26.4-.12.34-.46.51Z"/>
      </g>
    </g>
  </g>
</svg>