<?xml version="1.0" encoding="UTF-8"?>
<svg id="Camada_2" data-name="Camada 2" xmlns="http://www.w3.org/2000/svg" viewBox="0 0 50.38 89.29">
  <defs>
    <style>
      .cls-1 {
        fill: #d7335f;
      }

      .cls-2 {
        fill: #f0edec;
      }

      .cls-3 {
        fill: #ee8493;
      }

      .cls-4 {
        fill: #a8a2ad;
      }

      .cls-5 {
        fill: #e56982;
      }

      .cls-6 {
        fill: #f5aca7;
      }

      .cls-7 {
        fill: #1a161f;
      }

      .cls-8 {
        fill: #151111;
      }

      .cls-9 {
        fill: #f7d4db;
      }

      .cls-10 {
        fill: #653256;
      }
    </style>
  </defs>
  <g id="Page-3">
    <g id="_Camada_" data-name="&amp;lt;Camada&amp;gt;">
      <g>
        <path class="cls-2" d="M28.39,9.29c1.2-1.99,1.07-7.5,3.06-8.5,3.79-1.9,12.79-.23,15.26,3.43,1.09,1.62-.63,6.91-1.12,8.85.4,2.09.45,1.23-.21,3.26l.46,1.42c-.8,3.14-2.81,10.31-3.18,13.21,1.24.66,2.48,1.34,3.63,2.17,1.99,1.43,3.79,3.38,4.08,5.93.39,3.44-9.71,45.56-11.76,48.24-.94,1.23-1.89,1.75-3.41,1.94-5.82.72-29.2-4.9-33.59-8.59-.62-.52-1.55-1.53-1.6-2.34-.26-4.39,9.96-46.65,12.3-49.11,2.6-2.74,7.29-3.11,10.81-3.21,1.04-4.31,2.04-8.45,2.86-12.8h1.83s-.08-.56-.08-.56c-.28-2.31-.48-1.43.66-3.33Z"/>
        <path class="cls-1" d="M23.35,28.01l2.99,1.16c3.19.76,8.8,1.93,11.72,2.96l-1.54.29-.22.86c2.17,2.44,6.44,2.34,9.28,6.05-.13,1.37-.5,4.12-.95,5.38-2.86,8.05-5.36,30.75-11,35.68-3.15,1.45-20.94-3.49-24.46-4.68-4.12-3.22-2.75-5.84-1.56-10.16,1.19-5.09,6.05-30.92,8.97-33.24,1.56-1.24,3.39-1.1,5.22-.83l.33-.29c-.65-.88-1.05-1.24-1.19-2.32.94-.41,1.43-.57,2.4-.85Z"/>
        <path class="cls-5" d="M23.35,28.01l2.99,1.16c3.19.76,8.8,1.93,11.72,2.96l-1.54.29-.22.86c2.17,2.44,6.44,2.34,9.28,6.05l-1.25.71c-3.45-1.83-6.39-3.51-10.3-4.36-4.35-.95-8.07-2.85-12.22-4.2l.33-.29c-.65-.88-1.05-1.24-1.19-2.32.94-.41,1.43-.57,2.4-.85Z"/>
        <path class="cls-9" d="M23.35,28.01l2.99,1.16c1.1,1.53,1.16,1.1,1.08,2.57-1.37.64-3.78-.11-5.27-.55-.65-.88-1.05-1.24-1.19-2.32.94-.41,1.43-.57,2.4-.85Z"/>
        <path class="cls-3" d="M37.64,41.8c-3.71-.75-16.52-2.85-18.1-5.85,2.74-2.23,16.99,1.96,19.99,3.9-.85,1.65-.34,1.16-1.89,1.95Z"/>
        <path class="cls-6" d="M37.64,41.8c-1.34-.55-1.65-.64-2.71-1.6l.03-.76c1.61-.61,2.92-.06,4.57.41-.85,1.65-.34,1.16-1.89,1.95Z"/>
        <path class="cls-7" d="M28.39,9.29c1.2-1.99,1.07-7.5,3.06-8.5,3.79-1.9,12.79-.23,15.26,3.43,1.09,1.62-.63,6.91-1.12,8.85.4,2.09.45,1.23-.21,3.26l.46,1.42c-.8,3.14-2.81,10.31-3.18,13.21l-.74.95c-1.34.15-2.53.36-3.87.22-2.92-1.03-8.53-2.2-11.72-2.96l-2.99-1.16-.17-.82-.07-1.22c1.04-4.31,2.04-8.45,2.86-12.8h1.83s-.08-.56-.08-.56c-.28-2.31-.48-1.43.66-3.33Z"/>
        <path class="cls-10" d="M28.39,9.29c1.2-1.99,1.07-7.5,3.06-8.5,3.79-1.9,12.79-.23,15.26,3.43,1.09,1.62-.63,6.91-1.12,8.85-3.63,1.91-13.77-1.72-17.2-3.78Z"/>
        <path class="cls-7" d="M28.39,9.29c3.43,2.06,13.57,5.69,17.2,3.78.4,2.09.45,1.23-.21,3.26-6.01.06-11.87-2.16-17.66-3.71-.28-2.31-.48-1.43.66-3.33Z"/>
        <path class="cls-4" d="M27.73,12.62c5.8,1.55,11.65,3.77,17.66,3.71l.46,1.42c-6.8-.34-13.49-2.29-19.88-4.57h1.83s-.08-.56-.08-.56Z"/>
        <path class="cls-8" d="M42.67,30.96c1.24.66,2.48,1.34,3.63,2.17,1.99,1.43,3.79,3.38,4.08,5.93.39,3.44-9.71,45.56-11.76,48.24-.94,1.23-1.89,1.75-3.41,1.94-5.82.72-29.2-4.9-33.59-8.59-.62-.52-1.55-1.53-1.6-2.34-.26-4.39,9.96-46.65,12.3-49.11,2.6-2.74,7.29-3.11,10.81-3.21l.07,1.22c-3.23.2-7.45.4-9.78,3.06-1.98,2.26-12.18,43.52-11.87,47.24.1,1.25.85,1.83,1.79,2.53,3.95,2.96,26.95,8.44,31.9,7.68,1.06-.16,1.71-.92,2.29-1.77,1.47-2.19,10.17-37.68,11.01-42.44.29-1.64.52-3.46.15-5.1-.72-3.18-4.22-4.88-6.75-6.49l.74-.95Z"/>
      </g>
    </g>
  </g>
</svg>