<?xml version="1.0" encoding="UTF-8"?>
<svg id="Camada_2" data-name="Camada 2" xmlns="http://www.w3.org/2000/svg" viewBox="0 0 56.19 103.85">
  <defs>
    <style>
      .cls-1 {
        fill: #9cb9c0;
      }

      .cls-2 {
        fill: #c25d25;
      }

      .cls-3 {
        fill: #a1cfdd;
      }

      .cls-4 {
        fill: #a8a2ad;
      }

      .cls-5 {
        fill: #e9c07a;
      }

      .cls-6 {
        fill: #151111;
      }

      .cls-7 {
        fill: #a5581b;
      }
    </style>
  </defs>
  <g id="Page-3">
    <g id="_Camada_" data-name="&amp;lt;Camada&amp;gt;">
      <g>
        <path class="cls-6" d="M16.58,65.78c-2.94-1.28-5.6-3.12-7.84-5.41C-4.78,46.64-1.68,21.24,11.63,8.51,21.9-1.3,37.65-3.83,47.99,7.35c18.59,20.09,3.55,60.22-25.06,59.77-.32,1.99-.67,3.92-.82,5.94-1.37-.24-5.99-.79-6.6-1.59l-.03-.21,1.1-5.48Z"/>
        <path class="cls-5" d="M40.98,3.21c5.32,2.58,9.42,7.61,11.63,13.02,3.79,9.29,3.12,19.96-.78,29.1-3.53,8.28-9.8,15.53-18.3,18.93-5.81,2.32-12.04,2.39-17.82-.07-5.73-3.15-9.74-7.82-12.14-13.87C-.07,41.12.35,30.23,4.27,21.19,7.73,13.24,13.99,5.97,22.21,2.78c6.24-2.42,12.64-2.28,18.77.43Z"/>
        <path class="cls-6" d="M38.71,4.41c4.89,2.31,8.53,5.94,11,10.73,4.15,8.07,4.06,17.71,1.31,26.22-2.67,8.26-8.28,15.97-16.14,19.94-5.73,2.89-11.47,3.18-17.51,1.18-4.5-2.06-7.98-5.56-10.31-9.9-4.33-8.1-4.71-17.96-2.05-26.64,2.52-8.23,7.89-16.01,15.67-20.05,5.74-2.98,11.89-3.47,18.04-1.48Z"/>
        <path class="cls-3" d="M8.37,53.01c-3.21-4.99-3.97-10.53-4.14-16.79C3.69,16.27,26.84-7.54,45.22,10.42c3.64,3.55,6.8,11.62,6.58,17.13.28,3.27.06,5.48-.44,8.71-2.34,9.76-6.34,17.72-15.13,23.21-4.67,2.92-11.42,4.72-16.74,2.71-4.7-.95-8.75-5.2-11.12-9.16Z"/>
        <path class="cls-3" d="M51.35,36.26c-2.34,9.76-6.34,17.72-15.13,23.21-4.67,2.92-11.42,4.72-16.74,2.71-.31-1.1-3.65-1.89-5.05-3.35.49-.28,3.04-1.99,3.04-1.99,3.95-2.28,31.44-20.79,33.87-20.58Z"/>
        <path class="cls-1" d="M51.79,27.54c.28,3.27.06,5.48-.44,8.71-2.43-.21-29.92,18.3-33.87,20.58,0,0-2.55,1.7-3.04,1.99,1.4,1.46,4.73,2.25,5.05,3.35-4.7-.95-8.75-5.2-11.12-9.16.21.06.39.12.61.17l.25.06c1.89.48,5.69-2.27,7.53-3.31,5.34-2.99,10.64-6.07,15.88-9.23,5.7-3.4,11.41-6.77,17.11-10.17,1.12-.67,1.5-1.86,2.03-2.99Z"/>
        <path class="cls-4" d="M21.79,66.81c.53,1.02-.32,4.08-.51,5.29l-4.17-.7-.38-.26c-.25-1.55.49-3.63.83-5.17,1.4.32,2.83.57,4.24.84Z"/>
        <path class="cls-7" d="M22.11,73.06c.7,2.16-3.69,21.07-3.87,24.57-.4,8.11-10.8,8.79-8.02-1,.36-2.6.68-4.63,1.24-7.19.01-.56.42-2.78.53-3.46l.95-5.3c.42-2.24,1.21-8.03,2.55-9.43l.03.21c.61.8,5.24,1.36,6.6,1.59Z"/>
        <path class="cls-2" d="M12.93,80.69l1.17-.08c.36,1.93-.22,2.85-1.04,4.61l-1.07.77.95-5.3Z"/>
        <path class="cls-2" d="M11.46,89.44c1.38,2.62.3,4.96-1.24,7.19.36-2.6.68-4.63,1.24-7.19Z"/>
      </g>
    </g>
  </g>
</svg>