<?xml version="1.0" encoding="UTF-8"?>
<svg id="Camada_2" data-name="Camada 2" xmlns="http://www.w3.org/2000/svg" viewBox="0 0 98.63 80.21">
  <defs>
    <style>
      .cls-1 {
        fill: #57bbeb;
      }

      .cls-2 {
        fill: #1d60a9;
      }

      .cls-3 {
        fill: #fbfcfd;
      }

      .cls-4 {
        fill: #53b3e3;
      }
    </style>
  </defs>
  <g id="Page-3">
    <g id="_Camada_" data-name="&amp;lt;Camada&amp;gt;">
      <g>
        <path class="cls-2" d="M2.07,30.93C7.67,13.18,25.8-5.11,46.36,1.31c5.87,1.83,11.45,5.14,17.33,7.02,6.36,2.35,12.15,2.64,18.15,4.29,1.83.51,3.6,1.21,5.28,2.11,3.61,1.96,6.53,4.97,8.4,8.62,4.65,9.02,3.5,21.23.43,30.55-.29.88-.44,1.28-.97,2.08-2.28,6.79-7.26,15.03-13.37,19.03l-.39.26c-5.07,3.33-9.57,4.95-15.72,4.94-11.24-.01-18.12-9.15-28.55-11.49-6.56-1.48-13.29.39-19.76-1.57-5.36-1.56-10.66-5.34-13.38-10.29l-.45-.65C-1.57,50.09-.24,37.94,2.07,30.93Z"/>
        <path class="cls-1" d="M2.07,30.93c1.81-.38,13.36,1.47,14.62,2.45-2.19.56-11.61-.78-14.07-1.5-.57-.56-.41-.24-.55-.95Z"/>
        <path class="cls-1" d="M83.31,51.3c1.84-.22,9.2,2.65,11.18,3.55.41.19.41.72.49,1.13-1.72.39-10.1-3.49-11.66-4.69Z"/>
        <path class="cls-1" d="M3.35,56.21c2.42-2.25,8.92-5.8,12.07-6.88-2.49,2.41-8.43,5.47-11.62,7.53l-.45-.65Z"/>
        <path class="cls-1" d="M72.46,66.54c2.02,1.07,8.73,6.55,9.14,8.47l-.39.26c-2.1-1.04-7.16-6.78-8.75-8.73Z"/>
        <path class="cls-3" d="M65.44,28.64c3.3-.11,6.37.38,9.41,1.7,3.08,1.34,7.49,4.32,8.63,7.66.27.8.23,1.58-.21,2.31-.94,1.58-2.97,2.16-4.65,2.51-3.52.18-6.31-.46-9.54-1.93-2.96-1.35-7.37-4.06-8.46-7.36-.24-.72-.23-1.43.14-2.1.88-1.61,3.01-2.37,4.68-2.79Z"/>
        <path class="cls-3" d="M32.81,19.38c3.62-.46,8.15.56,11.23,2.52,1.41.9,2.78,2.21,3.06,3.93.15.91-.11,1.82-.65,2.55-1.76,2.39-5.53,2.76-8.24,3.06-3.77.17-8.04-.58-11.23-2.67-1.27-.83-2.62-2.09-2.86-3.67-.14-.92.14-1.76.7-2.48,1.75-2.22,5.37-2.82,8-3.23Z"/>
        <path class="cls-3" d="M36.41,46.43c4.58-.55,9.91,1.17,14.12,2.88,2.45,1,6.47,2.77,7.4,5.46.16.47.17,1.24-.07,1.69-.84,1.56-2.22,1.99-3.8,2.49-3.68.17-7.74-1.25-11.2-2.39-3.09-1.01-8.61-2.66-9.99-5.9-.2-.45-.26-1.19-.06-1.64.71-1.57,2.1-2.03,3.6-2.59Z"/>
        <path class="cls-4" d="M43.46,39.65c3.09.29,5.62,1.22,8.46,2.41,1.23.52,3.05,1.7,4.13,1.18l.77-1.09c.05,1.49.24,1.13-.43,2.31-1.58.08-12.5-3.35-13.44-4.18l.5-.63Z"/>
        <path class="cls-1" d="M45.88,35.05c-.58,1.66-1.52,3.09-2.42,4.59l-.5.63c-.24-.33-.18-.38-.28-.83.65-1.62,2.05-3.05,3.2-4.4Z"/>
      </g>
    </g>
  </g>
</svg>