<?xml version="1.0" encoding="UTF-8"?>
<svg id="Camada_2" data-name="Camada 2" xmlns="http://www.w3.org/2000/svg" viewBox="0 0 258.45 206.47">
  <defs>
    <style>
      .cls-1 {
        fill: #f7ae7e;
      }

      .cls-2 {
        fill: #cb8c45;
      }

      .cls-3 {
        fill: #e1a45e;
      }

      .cls-4 {
        fill: #7d501a;
      }

      .cls-5 {
        fill: #6f513e;
      }

      .cls-6 {
        fill: #0b406a;
      }

      .cls-7 {
        fill: #f18447;
      }

      .cls-8 {
        fill: #0e1c1e;
      }

      .cls-9 {
        fill: #2a140d;
      }

      .cls-10 {
        fill: #c496c4;
      }

      .cls-11 {
        fill: #b6d3f0;
      }

      .cls-12 {
        fill: #0a0f13;
      }

      .cls-13 {
        fill: #0f1424;
      }

      .cls-14 {
        fill: #b06e48;
      }

      .cls-15 {
        fill: #f8b583;
      }

      .cls-16 {
        fill: #151111;
      }

      .cls-17 {
        fill: #063b41;
      }

      .cls-18 {
        fill: #a5581b;
      }

      .cls-19 {
        fill: #552a16;
      }
    </style>
  </defs>
  <g id="Page-3">
    <g id="_Camada_" data-name="&amp;lt;Camada&amp;gt;">
      <g>
        <path class="cls-11" d="M249.82,73.74c3.87,6.99,6.03,13.01,6.33,21.14.52,14.21-6.07,21.66,2.29,35.41-2.19.91-4.27,1.52-6.68,1.53,3.35,20.28,1.41,54.15-.9,74.65l-34.24-5.92c-4.88-.87-12.36-2.48-17.19-2.85-1.69-.13-9.84,1.78-12.1,2.23-4.59.88-9.22,1.56-13.87,2.06h-.62c-26.08,4.3-73.29-1.31-96.81-13.37-.97-.69-3.98-2.07-5.11-1.82-3.47.73-13.59-6.47-16.9-8.59-15.1,9.25-21.85,6.87-25.88-10.14-9.03-1.21-19.1-3.19-28.15-4.77,3.41-10.37,13.71-42.87,20.15-50.58-1.43-4.44-.33-6.55-2.04-10.86l1.77-3.58c-1.28-5.78,2-7.23,6.71-9.5-.32-1.84-.55-4.08-.79-5.96-5.63-3.01-6.45-3.09-11.09-7.73-8.97-10.51-4.95-26.3,7.33-32.52,4.28-1.62,9.05-2.76,13.63-1.99h.55c7.75.2,17.02,3.77,24.35,6.46.92-1.68,3.31-4.04,4.62-5.54,48.65-55.42,126.73-57.94,167.53,8.3"/>
        <path class="cls-1" d="M227.95,50.6c5.08.8,6.48,1.07,11.15,3.32,4.89,2.78,5.11,5.57,6.11,10.8-.72,1.11.2,6.56.14,8.7l.58.78-.86.34c3.87,6.99,6.03,13.01,6.33,21.14.52,14.21-6.07,21.66,2.29,35.41-2.19.91-4.27,1.52-6.68,1.53,3.35,20.28-1.59,48.03-3.89,68.52l-37.59-7.82c-4.88-.87-6.01,5.54-10.84,5.17-1.69-.13-9.84,1.78-12.1,2.23-4.59.88-9.22,1.56-13.87,2.06h-.62c-.07-2.76.37-6.74.77-9.46-.11-2.28.45-8.1.63-10.53.53-7.18,1.06-13.87,1.17-21.07-.21-.84-.38-5.87-.4-6.86-.16-12.89.46-26.27,3.55-38.8,2.38.98,2.74-2.14,4.75-.81h0c-.13-.44,3.1-3.03,3.11-3.37.13-6.1-7.35-25.3-6.79-30.14.62-1.49.06-1.53.03-2.32-.08-2.6,1.98-.95,3.18-4.58l1.69-2.31c1.92-6.54-.29-7.37.33-9.67l-.3-.11-.29-1.05c6.73,3.28,17.19,4.41,24.61,4.08,1.95-.09,12.92-.81,14.09-1.73v-.76c-1.04-.94-1.2-1.15-1.97-2.33l.63-.53c1.26,0,3.32-.29,4.42-1.02,5.3-.09,8.12,7.97,9.88,11.93-.45-6.32-3.16-10.36-8.81-13.07l.87-.34c.01-1.26,1.79-.5,3.03-2.48-1.46-.86-3.85-1.89-4.62-3.14l.28-.47c2.47-1.08,2.25.18,4.27-.34-.65-.61-2.72-.78-4.19-1.33,1.78-.11,4.13.24,5.95.45Z"/>
        <path class="cls-11" d="M242.69,138.39c-.28-6.25-.22-9.16,1.44-15.21-.1,1.44-.18,1.81.53,3.14l.62.34c.52-.25.85-.32,1.17-.78,1.23,3.08,1.86,5.03,5.32,5.94,3.35,20.28,1.41,54.15-.9,74.65l-30.91-2.15c-4.88-.87-14.42-3.14-19.25-3.52-1.69-.13-13.83,1.59-14.83.72-4.59.88-7.76-.03-12.41.46h-.62c-.07-2.76.37-6.74.77-9.46-.11-2.28.45-8.1.63-10.53.53-7.18,1.06-13.87,1.17-21.07,31.07,35.45,58.35,62.3,58.42-10.36,0-1.64-.23-7.09.53-8.14,3.6-.91,5.34-1.93,8.31-4.01Z"/>
        <path class="cls-3" d="M222.99,62.49c4.99,1.86,5.33,4.17,6.31,9.2-5.25,6.7-11.44,11.72-10.45,20.46l-.77.06.06.57c-.82,2.36-1.08,4.79-2.26,6.72-.72.17-.67.19-1.37-.05-2.99-5.42-5.09-11.55-8.14-17.06-.07,2.21,8,19.88,9.8,22.19l-4.61,22.09c-.5,2.36-1.91,9.4-2.68,11.48-.3,1.46-.86,4.68-1.26,5.97-1.4-1.06-1.78-2.21-2.55-3.8-5.36-9.1-8.98-15.07-17.63-21.05l.05-.36c-.13-.44-1.07-7.5-1.06-7.84.13-6.1-7.35-25.3-6.79-30.14.62-1.49.06-1.53.03-2.32-.08-2.6,1.98-.95,3.18-4.58l1.69-2.31c1.92-6.54-.29-7.37.33-9.67l-.3-.11-.29-1.05c6.73,3.28,17.19,4.41,24.61,4.08,1.95-.09,12.92-.81,14.09-1.73v-.76Z"/>
        <path class="cls-3" d="M222.99,62.49c4.99,1.86,5.33,4.17,6.31,9.2-5.25,6.7-11.44,11.72-10.45,20.46l-.77.06c-1.78-8.41,4.29-12.58,8.38-18.73,1.36-2.05,1.11-2.86.57-5.13l-.12-.69c-11.43,3.9-20.62,7.28-33.11,5.97-3.73-.39-6.04-1.34-9.25-1.9,1.92-6.54-.29-7.37.33-9.67l-.3-.11-.29-1.05c6.73,3.28,17.19,4.41,24.61,4.08,1.95-.09,12.92-.81,14.09-1.73v-.76Z"/>
        <path class="cls-9" d="M222.99,62.49c4.99,1.86,5.33,4.17,6.31,9.2-5.25,6.7-11.44,11.72-10.45,20.46l-.77.06c-1.78-8.41,4.29-12.58,8.38-18.73,1.36-2.05,1.11-2.86.57-5.13l-.12-.69c-.77-1.28-1.43-2.67-2.69-3.4-2.65-.18-6.57.92-9.48,1.23-10.54,1.09-19.99.7-29.86-3.42l-.3-.11-.29-1.05c6.73,3.28,17.19,4.41,24.61,4.08,1.95-.09,12.92-.81,14.09-1.73v-.76Z"/>
        <path class="cls-19" d="M226.91,67.66l.12.69c-1.71.26-2.97.89-4.51,1.6-8.54,3.97-29.95,8.05-37.98,1.78,3.22.56,5.53,1.51,9.25,1.9,12.5,1.31,21.68-2.07,33.11-5.97Z"/>
        <path class="cls-19" d="M179.64,80.94c2.71,7.32,9.51,30.83,7.85,37.98-.13-.44-1.07-7.5-1.06-7.84.13-6.1-7.35-25.3-6.79-30.14Z"/>
        <path class="cls-3" d="M205.08,140.33c2.94-1.54,2.27-2.35,3.99-4.45l-.18,2.28c-.3,1.46-.86,4.68-1.26,5.97-1.4-1.06-1.78-2.21-2.55-3.8Z"/>
        <path class="cls-19" d="M193.21,84.43c2.45,2.3,10.39,24.64,11.26,28.64,1.4,6.49,1.33,13.87-2.39,19.62-.5-.45.24-1.71.47-2.34,1.66-4.7,2.13-9.11,1.48-14.04-1.52-11.42-8.15-20.88-10.82-31.88Z"/>
        <path class="cls-3" d="M245.13,80.17c1.17-2.04,2.84-4.31,4.16-6.33l.53-.11c3.87,6.99,6.03,13.01,6.33,21.14.52,14.21-6.07,21.66,2.29,35.41-2.19.91-4.27,1.52-6.68,1.53-3.46-.91-4.09-2.86-5.32-5.94-.32.46-.64.54-1.17.78l-.62-.34c-.71-1.32-.62-1.69-.53-3.14-1.66,6.06-1.72,8.96-1.44,15.21-2.97,2.08-4.71,3.1-8.31,4.01-1.23-1.5-.75-44.39-.51-49.09,1.52-1.72,3.01-3.49,4.73-5.01l.13-.24c.87-1.57,4.9-6.22,6.24-7.66l.16-.24Z"/>
        <path class="cls-3" d="M245.13,80.17c1.17-2.04,2.84-4.31,4.16-6.33l.53-.11c3.87,6.99,6.03,13.01,6.33,21.14.52,14.21-6.07,21.66,2.29,35.41-2.19.91-4.27,1.52-6.68,1.53-3.46-.91-4.09-2.86-5.32-5.94-.32.46-.64.54-1.17.78l-.62-.34c-.71-1.32-.62-1.69-.53-3.14,3.39-9.83,4.28-11.68,5.31-21.92l.46-.17c.24-5.78-3.02-15.28-4.93-20.68l.16-.24Z"/>
        <path class="cls-11" d="M244.13,123.18c3.39-9.83,4.28-11.68,5.31-21.92l.46-.17c.14,2.91.27,5.81-.1,8.71-1.42,4.87-3.86,11.19-3.35,16.08-.32.46-.64.54-1.17.78l-.62-.34c-.71-1.32-.62-1.69-.53-3.14Z"/>
        <path class="cls-5" d="M245.13,80.17c3.8,5.01,7.61,23.95,4.67,29.63.37-2.9.25-5.8.1-8.71.24-5.78-3.02-15.28-4.93-20.68l.16-.24Z"/>
        <path class="cls-19" d="M238.73,88.07c3.04,4.26,3.65,22.22,2.41,27.78-.95,4.26-1.21,5.42-3.04,9.62,2.6-11.18,3.66-17.57,1.91-29.46-.29-1.95-.83-5.91-1.41-7.7l.13-.24Z"/>
        <path class="cls-9" d="M216.17,104.58c-1.79-2.31-9.87-19.98-9.8-22.19,3.05,5.51,5.15,11.64,8.14,17.06.7.24.65.22,1.37.05,1.18-1.92,1.44-4.36,2.26-6.72l-.06-.57.77-.06c1.01,3.86-13.42,67.1-15.21,76.6l-.28-.18c-.65-7.26,2.29-17.2,4.27-24.44.41-1.3.96-4.51,1.26-5.97.77-2.07,2.18-9.12,2.68-11.48l4.61-22.09Z"/>
        <path class="cls-3" d="M218.14,92.78c-.1,3.52-1.26,8.47-2.04,11.99-.47-1.77-.9-3.63-1.59-5.32.7.24.65.22,1.37.05,1.18-1.92,1.44-4.36,2.26-6.72Z"/>
        <path class="cls-16" d="M226.68,51.03c8.06,4.59,10.52,2.73,13.87,14.07.26.87.37,1.42.33,2.38l-.04-.33c-2.02-1.23-2.62-11.27-9.81-12.51-1.46-.86-3.85-1.89-4.62-3.14l.28-.47Z"/>
        <path class="cls-10" d="M158.32,140.6c1.76-5.73,7.19-23.94,9.41-28.44.58-.25.66-.37,1.27-.28,1.18.37,3.17,1.07,4.33,1.26l.31.12c1.98,1.08,2.76,1.32,4.94,2-3.09,12.53-3.71,25.9-3.55,38.8.01.99.19,6.02.4,6.86-.11,7.2-.64,13.89-1.17,21.07-.18,2.43-.75,8.25-.63,10.53-.41,2.72-.85,6.7-.77,9.45-26.08,4.31-73.29-1.3-96.81-13.36,1.24-3.95,2.63-9.34,3.5-13.31,1.1-2.45,4.52-15.91,5.34-18.97,1.28-2.58,2.81-8.64,4.31-11.88,6.09-13.13,13.12-28.28,21.37-40.14l7.42-.3,6.34.16c-5.28,7.82-9.96,19.33-12.15,28.56,15.15,3.88,30.58,6.51,46.16,7.88Z"/>
        <path class="cls-1" d="M149.8,29.06c10.45.64,14.96,9.36,22.57,16.11-.63,1.29-.79,1.58.28,2.75l.8,1.29c.39,1.68,1.05,6.16,1.38,7.26.02.18.09,1.07.14,1.17,2.44.62,7.09,2.17,9.32,3.26l.29,1.05.3.11c-.61,2.3,1.59,3.13-.33,9.67l-1.69,2.31c-1.21,3.63-3.26,1.97-3.18,4.58.02.79.59.84-.03,2.32-.55,4.84,6.92,24.04,6.79,30.14,0,.35.93,7.4,1.06,7.84l-.05.36c-2.01-1.33-6.48-3.05-8.86-4.02-2.17-.67-2.96-.92-4.94-2l-.31-.12c-1.15-.19-3.14-.88-4.33-1.26-.61-.09-.69.03-1.27.28-2.22,4.5-7.65,22.71-9.41,28.44-15.57-1.37-31.01-4-46.16-7.88,2.19-9.23,6.87-20.74,12.15-28.56l-6.34-.16-7.42.3-3.1-.3.86-1.08c.59-1.67,2.35-4.76,3.27-6.41,2.8-5.01,4.82-9.3,6.01-14.96l.7-4.28c.27-2.99,1.11-6.5,1.96-9.38.07.1-3.16-3.27-3.34-3.46l-.59-.13c-1.03-5.12-1.69-11.34,3.63-14.36,1.26-.12,1.62-.36,2.75-.86-.52.44,3.31-6.72,4.52-8.17,4.58-5.34,8.75-8.57,15.1-11.41,1.96-.65,2.54-.12,4.27-.83l.39.14c1.17.79,1.49.49,2.8.23Z"/>
        <path class="cls-2" d="M182.86,74.04c-1.21,3.63-3.26,1.97-3.18,4.58.02.79.59.84-.03,2.32-.55,4.84,6.92,24.04,6.79,30.14,0,.35.93,7.4,1.06,7.84l-.05.36c-2.01-1.33-6.48-3.05-8.86-4.02-2.17-.67-2.96-.92-4.94-2l-.31-.12c-1.15-.19-3.14-.88-4.33-1.26-2.84-.85-6.31-1.69-8.47-3.7-1.85-3.65-.37-15.05.06-19.39,4.78-4.81,6.48-6.79,10.19-12.45,4.52,3.87,8.42,1.03,12.08-2.3Z"/>
        <path class="cls-19" d="M173.33,113.14c-1.06-3.9-5.16-22.74-3.58-25.65.13.29.76,5.31.76,5.71,0,2.55,3.59,19.06,3.14,20.06l-.31-.12Z"/>
        <path class="cls-2" d="M120.27,67.9c1.27.48,2.53.99,3.77,1.54.54,1.45,1.04,3.02,1.32,4.54,1.27,6.89,5.41,12.23,9.74,17.6-.87,1.54-.44,3.14-1.09,4.82-.77,2.2-1.71,5.26-2.87,7.19-2.49.3-4.3.47-6.82.58l-6.34-.16-7.42.3-3.1-.3.86-1.08c.59-1.67,2.35-4.76,3.27-6.41,2.8-5.01,4.82-9.3,6.01-14.96l.7-4.28c.27-2.99,1.11-6.5,1.96-9.38Z"/>
        <path class="cls-19" d="M118.87,78.78c-1.13,6.32-5.57,20.27-10.55,24.14.59-1.67,2.35-4.76,3.27-6.41,2.8-5.01,4.82-9.3,6.01-14.96l1.27-2.78Z"/>
        <path class="cls-19" d="M125.51,82.01c-.21,6.42-3.39,17.08-7.53,22,.36-2.06,2.03-5.49,2.95-7.51,2.14-4.7,2.93-9.72,4.58-14.49Z"/>
        <path class="cls-4" d="M118.31,77.28l.61-1.46.33-.11c0,1.43,0,1.66-.38,3.06l-1.27,2.78.7-4.28Z"/>
        <path class="cls-12" d="M157.48,91.14c-4.76,6.44-18.1,16.53-23.47,5.27.65-1.68.22-3.28,1.09-4.82,8.14,7.12,13.73,4.68,22.37-.45Z"/>
        <path class="cls-3" d="M127.24,40.92c-.11,3.76-1.12,8.7-2.55,12.21l-.53.44c-.96-.24-1.03-.27-1.89-.76l-1.29.15c-1.25.42-1.21.18-1.86,1.04,1.2.44,2.3.7,3.03,1.75.35,2.43-1.25,2.51-2.75,4.37l-.36-.47.93-1.99c-.48-1.18-.54-1.39-1.58-2.1l-.71.18c-2.25,4.36-.23,4.58-.74,8.71l-.59-.13c-1.03-5.12-1.69-11.34,3.63-14.36,1.26-.12,1.62-.36,2.75-.86-.52.44,3.31-6.72,4.52-8.17Z"/>
        <path class="cls-9" d="M120.98,52.96c1.29,1.15,3.07,2.65,3.19,4.45-.89,2.11-3.71,1.68-3.01,3.86.38,1.18,1.95,1.76,2.07,3.15-1.87.92-3.41-2.9-3.83-4.29,1.5-1.86,3.1-1.95,2.75-4.37-.73-1.05-1.83-1.31-3.03-1.75.65-.86.61-.62,1.86-1.04Z"/>
        <path class="cls-4" d="M174.97,57.64c2.44.62,7.09,2.17,9.32,3.26l.29,1.05c-1.2-.58-2.63-1.5-3.88-1.81-1.63-.41-4.18.22-5.51-.59l-.22-1.91Z"/>
        <path class="cls-7" d="M160.21,64.05c1.34.16,2.75.31,3.96.92,1.38.69,2.74,1.91,3.19,3.44.3,1,.16,2.01-.38,2.9-1.06,1.74-2.93,2.18-4.76,2.65-1.15-.07-2.42-.26-3.49-.7-1.54-.62-3.07-1.64-3.69-3.26-.36-.95-.29-1.97.17-2.87.94-1.89,3.13-2.53,5-3.07Z"/>
        <path class="cls-7" d="M129.31,60.37c1.13.03,2.33.03,3.43.36,1.58.49,3.26,1.71,3.99,3.22.42.88.45,1.87.07,2.77-.8,1.86-2.65,2.33-4.4,2.93-1.02.04-2.11.11-3.1-.21-1.51-.5-2.91-1.8-3.55-3.24-.48-1.07-.48-2.34.04-3.4.74-1.5,2.06-1.94,3.52-2.43Z"/>
        <path class="cls-16" d="M146.63,49.34l.68.71c.71,2.45.76,4.99.22,7.48-.95,4.43-3.13,8.88-7.06,11.36l-.38.24c-.14.74.15.9.56,1.51,1.92,1.14,4.26.56,6.35.27l.58.51c-2.18,1.1-5.01,1.23-7.31.39-1.05-.38-1.27-.83-1.69-1.78.36-1.81,1.88-2.69,3.17-3.94,4.55-4.44,4.75-10.81,4.87-16.75Z"/>
        <path class="cls-16" d="M132.86,52.63c.77.1,1.59.2,2.34.44,1.25.41,2.56,1.77,3.12,2.92.34.7.33.8.08,1.53-1.14.11-1.75-.5-2.72-1.07-2.18-.81-4.37-.52-6.54-1.31l-.1-.62c1.1-1.04,2.42-1.41,3.83-1.89Z"/>
        <path class="cls-19" d="M159.15,47.47c3.01.2,5.49.53,8.01,2.31,1.19.84,2.38,1.9,2.64,3.39l-.35.22-1.26-1.01c-2.92-2.1-10.49-2.71-11.53-4.06.83-.74,1.45-.69,2.51-.84Z"/>
        <path class="cls-16" d="M160.63,56.69c2.67.21,4.42.89,6.24,2.88.44.48.37.5.34,1.15-1.4.16-2.42-.56-3.69-1.13-2.16-.27-5.41.74-7.2-.13.05-.11.09-.22.15-.32.71-1.36,2.83-1.98,4.17-2.45Z"/>
        <path class="cls-16" d="M179.6,63.73c.27.11.55.21.79.37.62.42.94.69,1.12,1.41-1.84-.19-3.24-.61-4.75.62-.07,1.88,1.64,2.92,2.16,4.65.16.53.05,1.04-.26,1.48-.97,1.38-2.88,1.95-4.45,2.28-.59-.65-1.24-1.1-1.32-2,1.81.37,2.45.48,4.05-.54,1.59-2.68-2.17-3.31-2.24-5.89,1.09-1.54,3.16-1.97,4.9-2.38Z"/>
        <path class="cls-19" d="M136.43,44.33c1.8.29,3.49.55,4.83,1.91-1.21,1.22-7,.39-8.89.51-.99.41-1.92.74-2.96.99l-.38-.35c.08-.14.17-.35.28-.48,1.65-2.01,4.71-2.51,7.12-2.59Z"/>
        <path class="cls-9" d="M152.11,77.35l.35.52-.34,1.18c-1.59,1.6-3.3,2.21-5.5,2.58-2.54.42-3.95-.02-6.01-1.49v-.77c.65-.59,3.36,1.47,4.71,1.43,2.68-.07,4.95-1.63,6.79-3.44Z"/>
        <path class="cls-1" d="M26.59,88.77c6.99-1.66,5.46-2.33,12.46.2l1.41,1.09c1.65,1.2,2.39,1.65,3.62,3.24.57,1.26,1.11,2.19,1.2,3.57l.5-.52c-.23,2.6-1.47,1.37-.64,2.45l1.59,1.79c.42,1.07.82,1.95.98,3.09-.29,4.17,1.38,4.85-1.77,8.46,1.01,9.98,2.62,20.7,6.41,30.08,10.71-9.5,19.87-20.83,30.6-30.31,2.92-2.58,7.4-4.19,10.64-6.5l.25.13c-.48-.15,12.79-1.48,13.62-1.54l3.1.3c-8.25,11.86-15.28,27.01-21.37,40.14-1.5,3.24-3.03,9.3-4.31,11.88-.82,3.05-4.24,16.52-5.34,18.97-.87,3.97-2.26,9.36-3.5,13.31-.97-.69-3.98-2.07-5.11-1.82-3.47.73-13.59-6.47-16.9-8.59-15.1,9.25-21.85,6.87-25.88-10.14-9.03-1.21-19.1-3.19-28.15-4.77,3.41-10.37,13.71-42.87,20.15-50.58-1.43-4.44-.33-6.55-2.04-10.86l1.77-3.58c-1.28-5.78,2-7.23,6.71-9.5Z"/>
        <path class="cls-11" d="M20.15,112.71c1.03,3.98,3.09,6.19,5.57,9.45-.55,10.96-.52,35.61,2.43,45.9-9.03-1.21-19.1-3.19-28.15-4.77,3.41-10.37,13.71-42.87,20.15-50.58Z"/>
        <path class="cls-6" d="M42.85,114.88l1.58-.55c.81.83.7,7.04.75,8.79.1,4.11,1.69,9.95-.89,13.38-.39.5-2.15.85-2.81,1-1.6.03-3.96.15-5.48-.04-3.67-1.16-5.22-16.59-5.09-20.22,3.06-3.05,9.6.23,11.95-2.37Z"/>
        <path class="cls-11" d="M84.88,156.33c-.82,3.05-4.24,16.52-5.34,18.97l-.17-.4c-.72,1.41-.29,1.01-1.58,1.64-2.96-.17-13.87-1.57-15.75-3.55,6.43-4.03,17.12-11.66,22.85-16.66Z"/>
        <path class="cls-11" d="M62.03,172.99c1.88,1.98,12.79,3.38,15.75,3.55,1.3-.64.86-.23,1.58-1.64l.17.4c-.87,3.97-2.26,9.36-3.5,13.31-.97-.69-3.98-2.07-5.11-1.82-1.22-1.56-12.54-7.99-15.36-9.74,1.98-1.02,4.55-2.81,6.46-4.06Z"/>
        <path class="cls-8" d="M38.64,144.08c.8-.37,1.41-.76,2.15-1.21-.98,2.24,1.2,11.08,1.94,13.8,2.16,7.96,6.15,15.36,12.84,20.38,2.82,1.75,14.14,8.18,15.36,9.74-3.47.73-13.59-6.47-16.9-8.59-4.63-3.48-8.44-8.22-10.67-13.59-2.1-5.05-5.42-15.15-4.72-20.53Z"/>
        <path class="cls-8" d="M36,137.46c1.53.19,3.88.07,5.48.04.19,1.45.56,3.38.22,4.74-.42.33-.44.42-.92.62-.75.45-1.35.84-2.15,1.21-.25-.55-.39-.64-.87-.99-1.67-1.24-1.62-3.67-1.77-5.63Z"/>
        <path class="cls-13" d="M38.38,141.44l.96.02-.74.4-.88-.14.66-.28Z"/>
        <path class="cls-16" d="M34.67,93.38c2.04.91,8.71,4.4,10.61,3.49l.5-.52c-.23,2.6-1.47,1.37-.64,2.45l-.43.71c-7.8-5.38-11.5-4.62-20.02-3.16,3.44-1.71,6.26-2.28,9.98-2.97Z"/>
        <path class="cls-15" d="M40.46,90.06c1.65,1.2,2.39,1.65,3.62,3.24.57,1.26,1.11,2.19,1.2,3.57-1.89.91-8.57-2.58-10.61-3.49,1.88-.35,5.48,1.5,9.13,1.62-1.35-1.46-3.07-2.92-3.34-4.94Z"/>
        <path class="cls-16" d="M42.85,114.88c-2.35,2.6-8.89-.68-11.95,2.37-.34-.19-1.6-.48-2.05-.6l-.02-.4c4.87-1.87,8.86-1.47,14.02-1.37Z"/>
        <path class="cls-14" d="M45.14,98.8l1.59,1.79c.42,1.07.82,1.95.98,3.09-.23-.2-2.18-3.2-3-4.17l.43-.71Z"/>
        <path class="cls-16" d="M51.92,141.92c.32.21.56.46.79.77,2.7,3.79,4.59,13.07,3.89,17.53-.83-.73-4.25-15.96-4.68-18.3Z"/>
        <path class="cls-9" d="M33.9,101.08c3.56.29,9.86,1.58,12.39,4.26-1.94.21-5.23-1.52-7.13-2.25-4.05-1.23-8.26-.77-12.43-.63l.14-.24c2.38-.69,4.57-.96,7.02-1.14Z"/>
        <path class="cls-16" d="M34.5,107.82c3.66.21,7.02,1.19,10.47,2.36l-.09.3.4.06c-2.69.06-5.2-.67-7.79-1.32-3.17-.59-6.79-.24-10-.19l.21-.25c2.28-.73,4.43-.85,6.8-.96Z"/>
        <path class="cls-6" d="M36.21,40.58c7.75.2,17.02,3.76,24.35,6.46,7.35,2.82,25.91,10.44,32.88,11.89-1.33,1.38-2.57,2.53-3.48,4.23-.57,1.22-1.06,2.17-1.4,3.48-1.84,5.57-2.07,10.5-.68,16.21-5.9-.97-37.75.16-42.16,2.23l-.42.98c-.04.83-.19,3.04-.13,3.76l-.84,2.52-.25.99c-1.23-1.59-1.97-2.04-3.62-3.24l-1.41-1.09c-7.01-2.53-5.48-1.86-12.46-.2-.32-1.84-.55-4.08-.79-5.96-5.63-3.01-6.45-3.09-11.09-7.73-8.97-10.51-4.95-26.3,7.33-32.52,4.28-1.62,9.05-2.76,13.63-1.99h.55Z"/>
        <path class="cls-6" d="M22.04,42.56l.59,1.56c6.35-1.32,7.12,4.41,7.4,9.14-.02,1.61.02,2.86-.29,4.44.34,2.22-1.02,7.33-1.6,9.57l-.73,2.4c-.23.51-1.18,2.49-1.31,2.9-2.01,2.73-2.63,3.77-6.08,4.42-1.14-.87-2.42-2.11-3.65-2.72l-.91.93-.75-.12c-8.97-10.51-4.95-26.3,7.33-32.52Z"/>
        <path class="cls-6" d="M12.85,63.94c4.82.64,9.58,2.03,14.4,2.77l.9.56-.73,2.4c-.23.51-1.18,2.49-1.31,2.9-2.01,2.73-2.63,3.77-6.08,4.42-1.14-.87-2.42-2.11-3.65-2.72l-1.51-2.35c-1.21-1.15-1.98-5.61-1.99-7.31v-.67Z"/>
        <path class="cls-8" d="M26.72,69.54l.69.14c-.23.51-1.18,2.49-1.31,2.9-2.01,2.73-2.63,3.77-6.08,4.42-1.14-.87-2.42-2.11-3.65-2.72l-1.51-2.35c2.97-.2,5.69,4.3,9.06,2.25-.25-.82-1.03-.86-2.18-1.19-4.26-1.24-6.46-3.14-9.87-5.79,3.93,1.07,9,3.19,13.11,3.52.9.07,1.09-.45,1.74-1.16Z"/>
        <path class="cls-12" d="M12.85,63.94c4.82.64,9.58,2.03,14.4,2.77l.9.56-.73,2.4-.69-.14c-4.44-1.43-10.2-1.34-13.86-4.93v-.67Z"/>
        <path class="cls-13" d="M22.04,42.56l.59,1.56c-1.54.83-2.07,1.1-3.41,2.22-1,.87-1.55,1.59-2.37,2.61l-.64,1.16c-2.33,2.19-4.06,10.65-3.37,13.83v.67c.03,1.7.8,6.16,2.01,7.31l1.51,2.35-.91.93-.75-.12c-8.97-10.51-4.95-26.3,7.33-32.52Z"/>
        <path class="cls-8" d="M22.63,44.11c6.35-1.32,7.12,4.41,7.4,9.14l-.42-.25-.47-.97c-1.75-1.24-9.77-1.37-12.93-1.93l.64-1.16c.82-1.02,1.36-1.74,2.37-2.61,1.34-1.12,1.87-1.39,3.41-2.22Z"/>
        <path class="cls-6" d="M19.22,46.33l.04.65c2.43-.09,7.05-.63,8.94.62v.56c-2.27,1.1-7.55-1.21-11.35.77.82-1.02,1.36-1.74,2.37-2.61Z"/>
        <path class="cls-12" d="M29.61,53.01l.42.25c-.02,1.61.02,2.86-.29,4.44l-.69,2.14c-.65.08-1.53-.03-2.05.22-2.19-.08-11.41-.98-12.71-2.51l.29-1.03c3.63-1.24,12.9,2.66,14.78.58l-.29-.72c-1.14-1.05-3.18-1.02-4.79-1.18-1.45-.27-2.73-.4-3.98-1.19-.77-1.15-.69-.68-.67-1.91,2.45.3,7.76,1.09,9.97.92Z"/>
        <path class="cls-8" d="M29.74,57.7c.34,2.22-1.02,7.33-1.6,9.57l-.9-.56.68-1.69-8.49-1.39c-2.16-.41-4.72-.78-5.97-2.52l.17-.37c3.64-1.42,13.5,3.26,15.02.4l-.24-.56-1.41-.51c.52-.25,1.4-.14,2.05-.22l.69-2.14Z"/>
        <path class="cls-12" d="M17.24,61.14c2.4.33,9.66,1.06,11.22,2.3-.13,1.07.05.89-.54,1.58l-8.49-1.39-2.2-2.49Z"/>
        <path class="cls-13" d="M24.29,55.19c-2.07-.19-8.24-.3-9.08-2.07,1.26-1.63,2.56-1.21,4.43-1.04-.02,1.23-.1.77.67,1.91,1.25.78,2.53.91,3.98,1.19Z"/>
        <path class="cls-8" d="M35.66,40.57h.55c3.75,5.96,2.99,13.09,2.36,19.77-.3,3.14-3.35,16.37-6.06,17.48,0-1.23,1.98-5.17,2.53-6.85,3.26-9.95,4.42-20.52.63-30.4Z"/>
        <path class="cls-17" d="M42.75,91.03c.02-2.01-.14-5.72,2.01-6.66.68.63.46.43.55,1.67-.04.83-.19,3.04-.13,3.76l-.84,2.52-.25.99c-1.23-1.59-1.97-2.04-3.62-3.24l-1.41-1.09c1.4.19,2.52,1.21,3.69,2.06Z"/>
        <path class="cls-11" d="M48.53,58.62c4.87.58,33.57,6.01,35.66,8.11.18,1.05-.06,1.76-.37,2.75-1.21.6-2.17.29-3.5.16-6.52-.83-13.02-2.06-19.51-3.12-4.36-.72-9.13-1.17-13.35-2.46-1.44-.44-2.06-.83-2.77-2.15-.04-1.12.16-1.63.8-2.54.97-.74,1.86-.69,3.03-.74Z"/>
        <path class="cls-3" d="M153.21,11.37c21.18-8.13,35.66,10.83,48.85,22.56,5.38,4.71,11.26,8.81,17.55,12.23,1.47.79,5.66,3.17,7.15,3.19,1.47.55,3.55.73,4.19,1.33-2.02.52-1.8-.73-4.27.34l-.28.47c.78,1.25,3.16,2.28,4.62,3.14-1.25,1.98-3.02,1.22-3.03,2.48l-.87.34c5.65,2.71,8.36,6.75,8.81,13.07-1.75-3.96-4.58-12.01-9.88-11.93-1.1.73-3.16,1.02-4.42,1.02l-.63.53c.77,1.18.94,1.39,1.98,2.33v.76c-1.18.92-12.16,1.64-14.1,1.73-7.42.33-17.88-.8-24.61-4.08-2.22-1.09-6.88-2.64-9.32-3.26-.05-.1-.12-.99-.14-1.17-.34-1.1-.99-5.58-1.38-7.26l-.8-1.29c-1.07-1.17-.91-1.47-.28-2.75-7.61-6.75-12.12-15.47-22.57-16.11-1.3.26-1.63.55-2.8-.23l-.39-.14c-1.73.71-2.31.18-4.27.83-6.36,2.83-10.52,6.07-15.1,11.41-1.21,1.45-5.04,8.61-4.52,8.17-1.13.51-1.49.74-2.75.86-.52-3.68-.75-6.2-.59-9.89.2-1.58.41-2.95.83-4.49,2.59-9.15,8.71-16.9,17-21.54,5.25-2.96,10.05-4.31,16-2.66Z"/>
        <path class="cls-3" d="M176.23,47.89c12.39,6.75,23.11,10.65,37.37,12.07,1.69.17,5.85.5,7.42.19.77,1.18.94,1.39,1.98,2.33v.76c-1.18.92-12.16,1.64-14.1,1.73-7.42.33-17.88-.8-24.61-4.08-2.22-1.09-6.88-2.64-9.32-3.26-.05-.1-.12-.99-.14-1.17-.34-1.1-.99-5.58-1.38-7.26l-.8-1.29c.9-.11,2.61-.04,3.58-.03Z"/>
        <path class="cls-2" d="M173.45,49.21c1.03.77,1.24.83,1.74,1.95-.08,1.83-.25,3.5-.36,5.31-.34-1.1-.99-5.58-1.38-7.26Z"/>
        <path class="cls-9" d="M149.8,29.06l-.03-.53c6.96-2.59,15.17,8.69,19.66,12.8,11.27,10.3,26.01,14.8,40.77,17.26,1.53.26,11.28.96,11.44,1.04l-.63.53c-1.57.31-5.73-.02-7.42-.19-14.26-1.43-24.97-5.32-37.37-12.07-.97,0-2.68-.08-3.58.03-1.07-1.17-.91-1.47-.28-2.75-7.61-6.75-12.12-15.47-22.57-16.11Z"/>
        <path class="cls-15" d="M172.37,45.17l3.86,2.72c-.97,0-2.68-.08-3.58.03-1.07-1.17-.91-1.47-.28-2.75Z"/>
        <path class="cls-9" d="M190.88,41.25c9.05,5.8,17.77,9.71,28.07,12.73.7.21,2.47.69,3.07.96,2.05,1.32,2.83,1.65,5.11,2.53,5.65,2.71,8.36,6.75,8.81,13.07-1.75-3.96-4.58-12.01-9.88-11.93-6.27-4.04-10.61-4.55-17.49-7.18-6.94-2.65-11.9-5.5-18.07-9.54l.38-.63Z"/>
        <path class="cls-9" d="M122.72,49.09c-.65-7.1,13.21-20.1,19.62-19.58-6.36,2.83-10.52,6.07-15.1,11.41-1.21,1.45-5.04,8.61-4.52,8.17Z"/>
        <path class="cls-9" d="M146.94,23.66c1.83-3.9,2.58-5.69,5.39-9.05l.38.12c-1.29,3.68-4.32,6.92-5.41,11.53l-.45.41c-.46-.68-.05-1.97.09-3.02Z"/>
        <path class="cls-15" d="M231.03,54.64c-1.25,1.98-3.02,1.22-3.03,2.48l-.87.34c-2.29-.88-3.06-1.21-5.11-2.53,1.58-.83,6.24.09,9.01-.3Z"/>
        <path class="cls-5" d="M190.5,41.88c-1.06-.69-3.33-2.08-3.67-3.27,1.36.32,2.88,1.72,4.05,2.64l-.38.63Z"/>
        <path class="cls-18" d="M146.94,23.66c-.14,1.05-.55,2.34-.09,3.02l.45-.41-.29,2.56-.39-.14c-.68-2.15-.42-3.05.33-5.03Z"/>
        <path class="cls-9" d="M141.13,23.54l1.07.72c-1.08.05-2.17.09-3.24.24-7.09,1.01-11.31,5.65-15.32,11.12-.12.1-.3.1-.45.13.79-2.43,2.85-4.83,4.65-6.6,3.73-3.68,8.05-5.64,13.29-5.6Z"/>
        <path class="cls-9" d="M171.84,26.99c-10.25-5.81-9.23-3.3-18.71-4.14l-.07-.18c5.6-3.19,14.16.62,19.07,3.71l-.28.61Z"/>
        <path class="cls-19" d="M159.75,14.99l.37.02c.65.05,2.63.22,3.02.67-1.42.18-2.81.27-4.24.3-1.02.18-2.43.65-3.38.17,1.23-.85,2.78-.94,4.23-1.17Z"/>
        <path class="cls-5" d="M172.13,26.38l1.09.95-.11.33c-.46-.22-.84-.39-1.27-.67l.28-.61Z"/>
        <path class="cls-3" d="M116.33,64.32l.59.13c.18.19,3.41,3.56,3.34,3.46-.85,2.88-1.69,6.39-1.96,9.38l-.7,4.28c-1.19,5.66-3.21,9.94-6.01,14.96-.92,1.65-2.68,4.74-3.27,6.41l-.86,1.08c-.83.05-14.09,1.39-13.62,1.54.58-.7,2.14-5.62,3.41-7.49,1.97-2.89,9.74-9.3,10.23-11.86,2.02-3.23,3.21-4.9,4.73-8.41,1.99-4.7,2.89-8.48,4.11-13.47Z"/>
        <path class="cls-17" d="M93.44,58.92c1.5-.17,6.59-.97,7.18-.06,3.41,5.25-1.64,23.47-4.3,27.6-2.97-1.16-5.54-2.29-8.44-3.62-1.39-5.7-1.16-10.64.68-16.21.34-1.31.83-2.26,1.4-3.48.9-1.7,2.15-2.85,3.48-4.23Z"/>
        <path class="cls-17" d="M89.96,63.15c.15,1.81.14,2.05-.39,3.79l-.51.54c-.43-.47-.33-.26-.5-.86.34-1.31.83-2.26,1.4-3.48Z"/>
        <path class="cls-1" d="M45.17,89.8c6.79,1.04,5.92,7.09,1.56,10.79l-1.59-1.79c-.83-1.08.41.15.64-2.45l-.5.52c-.09-1.38-.63-2.3-1.2-3.57l.25-.99.84-2.52Z"/>
        <path class="cls-14" d="M44.34,92.32c.73,1.4,1.44,2.46,1.44,4.03l-.5.52c-.09-1.38-.63-2.3-1.2-3.57l.25-.99Z"/>
        <path class="cls-18" d="M93.6,105.41c.38-6.96,8.95-14.51,13.89-19.22-.49,2.56-8.27,8.96-10.23,11.86-1.27,1.87-2.83,6.79-3.41,7.49l-.25-.13Z"/>
      </g>
    </g>
  </g>
</svg>