<?xml version="1.0" encoding="UTF-8"?>
<svg id="Camada_2" data-name="Camada 2" xmlns="http://www.w3.org/2000/svg" viewBox="0 0 256.42 258.3">
  <defs>
    <style>
      .cls-1 {
        fill: #95461b;
      }

      .cls-2 {
        fill: #f7ae7e;
      }

      .cls-3 {
        fill: #cb8c45;
      }

      .cls-4 {
        fill: #0e1c1e;
      }

      .cls-5 {
        fill: #2a140d;
      }

      .cls-6 {
        fill: #0a0f13;
      }

      .cls-7 {
        fill: #6d5ba4;
      }

      .cls-8 {
        fill: #f8b583;
      }

      .cls-9 {
        fill: #151111;
      }

      .cls-10 {
        fill: #a5581b;
      }

      .cls-11 {
        fill: #552a16;
      }

      .cls-12 {
        fill: #824014;
      }

      .cls-13 {
        fill: #f7d4db;
      }
    </style>
  </defs>
  <g id="Page-3">
    <g id="_Camada_" data-name="&amp;lt;Camada&amp;gt;">
      <g>
        <path class="cls-1" d="M82.62,9.73c2.5-2.77,5.47-5.21,8.79-6.92,6.1-3.12,13.2-3.67,19.71-1.52,5.91,2,9.46,5.58,12.21,11.02,11.68-4.03,24.08-3.8,29.53,9.81,1.18,2.95,1.1,6.13,1.25,9.3,12.23,1.88,19.87,5.29,19.24,19.41,8.35,4.79,18.83,14.72,24.98,22.05,28.58,34.06,45.95,78.35,58.08,120.32-6.89,4.82-22.79,16.11-30.29,19.54-3.53,2.48-13.98,8.57-17.98,10.2l-.63.37c-11.51,6.56-28.11,12.92-40.42,17.73-6.27,1.68-12.83,4.14-19.37,5.91-16.01,4.34-33.66,8.13-50.17,9.69-15.65,1.2-27.66,2.07-43.27,1.49l-.51-.1c-3.93-.18-8.52-.28-12.35-.9-9.56-.14-25.58-2.42-35.04-3.95-7.01-46.76-10.88-94.72,2.56-140.88,1.26-4.32,6.82-21.35,11.01-25.03.51-.45,1.5.23,2.37.6-.3-1.83-3.08-3.5-4.05-5.41-5.86-11.6.92-18.25,10.32-23.64-.76-2.05-1.78-4.74-2.02-6.88-.6-5.15.89-10.32,4.13-14.36,4.81-5.98,10.54-7.35,17.66-8.1,3.81-17.03,17.4-26.42,34.26-19.74Z"/>
        <path class="cls-4" d="M82.62,9.73c2.5-2.77,5.47-5.21,8.79-6.92,6.1-3.12,13.2-3.67,19.71-1.52,5.91,2,9.46,5.58,12.21,11.02,11.68-4.03,24.08-3.8,29.53,9.81,1.18,2.95,1.1,6.13,1.25,9.3,12.23,1.88,19.87,5.29,19.24,19.41-.77,3.07-1.18,4.56-2.42,7.56,3.5,2.18,5.34,3.28,7.93,6.66,4.18,5.45,3.93,14.63-.7,19.84-1.35,2.29-3.29,3.69-5.3,5.41,3.35,6.71,4.31,11.49-1.3,17.51-1.89,1.99-4.06,3.04-6.56,4.18-1.3,4.53-1.82,5.58-5.63,8.37-.78-.79-1.92-4.39-2.37-5.63-1.45-5.33-6.52-12.31-10.51-16.14-1.82-2.54-3.47-4.28-6.03-6.04,19.48-5.05,8.02-37.47-5.51-19.55-1.79-3.92-2.35-5.84-3.13-10.21-5.33-2.3-9.23-6.18-9.17-12.36-7.95.14-10.16-.02-15.51-6.33-6.41,3.88-12.64,4.15-18.6-.73-3.93,7.52-7.35,11.44-16.27,11.82-2,7.82-3.5,8.9-8.07,13.14-1.26,1.17,2.78,5.32-1.65,11.41.99,4.52,1.48,7.04,1.8,11.69-17.18-6.53-15.74,15.89-2.87,19.34,1.85.5,3.04.53,4.91.8-2.16,2.75-5.01,10.73-5.76,14.15-3.49,8.83-.94,8.46-1.21,14.67-1.47.07-2.94.11-4.4.12-11.01.03-14.97-5.47-15.01-15.74-1.1-.14-2.19-.29-3.28-.47-10.66-1.75-13.44-7.1-11.75-17.07-.39-.26-.78-.52-1.16-.79-7.46-5.3-6.52-11.84-1.5-18.57-.3-1.83-3.08-3.5-4.05-5.41-5.86-11.6.92-18.25,10.32-23.64-.76-2.05-1.78-4.74-2.02-6.88-.6-5.15.89-10.32,4.13-14.36,4.81-5.98,10.54-7.35,17.66-8.1,3.81-17.03,17.4-26.42,34.26-19.74Z"/>
        <path class="cls-6" d="M171.57,107.8l.59-3.07-.4.16c5.72-8.98-.72-8.55,1.14-16.33.2-.81,3.7-3.23,5.28-3.67-1.35,2.29-3.29,3.69-5.3,5.41,3.35,6.71,4.31,11.49-1.3,17.51Z"/>
        <path class="cls-7" d="M173.36,50.83c8.35,4.79,18.83,14.72,24.98,22.05,28.58,34.06,45.95,78.35,58.08,120.32-6.89,4.82-22.79,16.11-30.29,19.54-3.53,2.48-13.98,8.57-17.98,10.2l-.63.37c-15.71-16.2-40.84-41.09-53.86-59.33,1.18-6.74,3.15-14.76,4.92-21.38l.51-.24c.66-3.77,1.29-7.54,1.88-11.32.56-4.93-.1-5.96-1.58-10.69,3.81-2.79,4.33-3.84,5.63-8.37,2.5-1.13,4.67-2.19,6.56-4.18,5.61-6.01,4.65-10.79,1.3-17.51,2.01-1.72,3.95-3.12,5.3-5.41,4.63-5.21,4.88-14.38.7-19.84-2.59-3.38-4.42-4.48-7.93-6.66,1.23-3,1.64-4.49,2.42-7.56Z"/>
        <path class="cls-1" d="M153.66,163.98c1.18-6.74,3.15-14.76,4.92-21.38l.51-.24c13.62-.96,32.54-4.02,43.27,5.75,12.77,11.61,19.7,47.16,23.77,64.63-3.53,2.48-13.98,8.57-17.98,10.2l-.63.37c-15.71-16.2-40.84-41.09-53.86-59.33Z"/>
        <path class="cls-5" d="M153.66,163.98c1.18-6.74,3.15-14.76,4.92-21.38l.51-.24c-.67,7.3-2.94,14.13-4.27,21.16,6.92,8.92,14.31,17.46,22.14,25.6,1.77-.28,2.02-.13,3.66.65-.61-1.95-1.24-10.26-.81-12.16l.58.17c.95,2.8,1.79,13.87,2.02,17.24,3.14,3.32,25.62,25.74,25.75,27.92l-.63.37c-15.71-16.2-40.84-41.09-53.86-59.33Z"/>
        <path class="cls-3" d="M176.96,189.12c1.77-.28,2.02-.13,3.66.65.03.98-.05,1.51-.17,2.49l-.68.06-2.81-3.2Z"/>
        <path class="cls-7" d="M6.4,253.17c-7.01-46.76-10.88-94.72,2.56-140.88,1.26-4.32,6.82-21.35,11.01-25.03.51-.45,1.5.23,2.37.6-5.01,6.73-5.95,13.27,1.5,18.57.39.27.77.53,1.16.79-1.69,9.97,1.09,15.32,11.75,17.07,1.09.18,2.19.34,3.28.47.04,10.27,3.99,15.77,15.01,15.74,1.47-.01,2.94-.05,4.4-.12.71,9.33,4.6,16.32,10.49,23.51,1.8.91,9.77,12.81,11.56,15.37-3.19,14.05-9.04,29.88-14.03,43.47-4.3,11.71-8.67,23.77-13.16,35.38l-.51-.1c-3.93-.18-8.52-.28-12.35-.9-9.56-.14-25.58-2.42-35.04-3.95Z"/>
        <path class="cls-1" d="M69.93,163.89c1.8.91,9.77,12.81,11.56,15.37-3.19,14.05-9.04,29.88-14.03,43.47-4.3,11.71-8.67,23.77-13.16,35.38l-.51-.1c-3.93-.18-8.52-.28-12.35-.9-.85-4.22-1.99-13.86-2.46-18.38-1.63-15.65-5.78-35.29-.54-50.36,4.73-13.62,19.37-18.85,31.49-24.5Z"/>
        <path class="cls-5" d="M69.93,163.89c1.8.91,9.77,12.81,11.56,15.37-3.19,14.05-9.04,29.88-14.03,43.47-4.3,11.71-8.67,23.77-13.16,35.38l-.51-.1c-.28-4.92,12.37-35.75,14.77-43.13-.96-2.58-2.95-7.37-2.71-9.93.06.87,1.24,1.54,1.55,2.3.67,1.72,1.39,3.68,2.03,5.39,3.53-9,8.59-23.51,10.81-32.88-2.34-3.9-9.04-12.05-10.3-15.88Z"/>
        <path class="cls-1" d="M115.47,139.9c5.47-4.06,7.52-8.73,10.57-14.39l1.22,1.53c.73,4.01,2.44,9.8,6.17,12.05-1.29,4.7-4.53,15.53-4.52,20.47,0,10.2,10,24.89,13.89,34.75.07.11.13.22.2.33-15.73,3.65-25.46,6.6-40.52,10.9,1.02-24.44,6.79-33.67-9.29-54.07,6.23-3.98,5.03-7.15,4.21-13.76.67.84,1.83,2.2,2.4,3.04,5.96,3.21,10.33,4.42,15.68-.84Z"/>
        <path class="cls-10" d="M97.39,137.7c.67.84,1.83,2.2,2.4,3.04l-.9.6c-1.07-.93-1.05-2.03-1.5-3.64Z"/>
        <path class="cls-2" d="M101.13,226.5c9.44-3.53,18.9-7.61,28.28-11.41,6.69-2.71,13.21-4.8,19.8-7.36,2.04,4.42,14.97,32.54,17.9,33.31-6.27,1.68-12.83,4.14-19.37,5.91-16.01,4.34-33.66,8.13-50.17,9.69l.52-.35c.25-.29.56-.66.94-1.09,1.17-8.65,1.99-20.25,2.11-28.69Z"/>
        <path class="cls-2" d="M102.47,205.53c15.06-4.29,24.79-7.25,40.52-10.9l5.66,12.11c-9.19,2.81-17.02,5.91-25.97,9.42-4.51-.65-14.29,6.04-19.2,6.43-1.14-.9-1.17-1.86-1.74-3.43.04-4.09.5-9.45.73-13.64Z"/>
        <path class="cls-6" d="M83.66,127.08c1.85-.42,2.2-.22,3.9.42,4.69,2.66,7.41,4.19,12.48,6.02,12.88,2.99,17.49-.23,25.79-9.86,1.43,1.71,1.02,1.08,1.44,3.37l-1.22-1.53c-3.05,5.65-5.1,10.32-10.57,14.39-5.35,5.26-9.72,4.05-15.68.84-.57-.84-1.73-2.19-2.4-3.04.82,6.6,2.02,9.77-4.21,13.76l-1.85-.75c-6.85-8.12-7.66-13.52-7.67-23.63Z"/>
        <path class="cls-9" d="M125.82,123.67c1.43,1.71,1.02,1.08,1.44,3.37l-1.22-1.53c-3.05,5.65-5.1,10.32-10.57,14.39.78-3.23,5.68-6.43,6.76-9.33l-.42-.39c-2.49.7-4.28,2.89-6.8,4.26-4.81,2.63-9.72,1.42-14.65.01l-.33-.92c12.88,2.99,17.49-.23,25.79-9.86Z"/>
        <path class="cls-5" d="M133.43,139.09l1.12.26c-2.42,8.92-6.31,20.34-2.52,29.31.57,1.33,3.06,6.24,3.89,7.27,1.45,3.7,2.72,6.23,4.54,9.78,4.1,9.89,9.65,20.17,14.11,29.82,1.73,3.75,12.25,22.85,12.54,25.5-2.93-.77-15.86-28.89-17.9-33.31-6.59,2.56-13.11,4.66-19.8,7.36-9.38,3.8-18.84,7.88-28.28,11.41-.12,8.44-.94,20.04-2.11,28.69-.37.43-.68.8-.94,1.09-.86-1.45,1.12-21.59,1.32-24.49.8-12.57,1.52-25.14,2.16-37.72,1.46-24.2,4.29-23.15-10.24-43.36l1.85.75c16.08,20.4,10.31,29.63,9.29,54.07-.23,4.18-.69,9.55-.73,13.64.57,1.57.6,2.53,1.74,3.43,4.91-.39,14.69-7.09,19.2-6.43,8.95-3.51,16.78-6.61,25.97-9.42l-5.66-12.11c-.07-.11-.13-.22-.2-.33-3.89-9.86-13.88-24.55-13.89-34.75,0-4.94,3.23-15.77,4.52-20.47Z"/>
        <path class="cls-8" d="M101.74,219.16c.57,1.57.6,2.53,1.74,3.43,4.91-.39,14.69-7.09,19.2-6.43-7.08,3-14.17,5.96-21.28,8.89l.34-5.89Z"/>
        <path class="cls-13" d="M128.89,94.78c-4.07,3.38-8.75,4.36-12.2-.5-.69-3.85,3.01-5,5.87-6.71,2.88-1.72,5.79-4.81,8.85-5.71,3.39.48,3.28,3.39,3.24,6.25-2.17,2.98-4.24,4.01-5.76,6.67Z"/>
        <path class="cls-6" d="M131.56,113.88l1.35.61c4.33,11.6,4.7,12.91,1.65,24.86l-1.12-.26c-3.73-2.25-5.44-8.04-6.17-12.05-.43-2.29-.02-1.66-1.44-3.37,2.41-3,4.11-6.34,5.73-9.79Z"/>
        <path class="cls-12" d="M134.65,88.11l.93,1.13-.13.44c-.39,1.66-.61,2.14.07,3.76.71.74,1.18,1.34,2.09,1.82l.04,1.31c-.7-.32-1.33-.55-2.04-.83-.39,2.18-.42,2.48-1.96,4.15l-2.62-2.02-.39.85c-1.32-1.96.64-1.69-1.74-3.96,1.52-2.65,3.58-3.69,5.76-6.67Z"/>
        <path class="cls-13" d="M131.03,97.89c-.22-1.8-.21-3.03,1.22-4.18,2.02.3,1.58.41,3.36,2.05-.39,2.18-.42,2.48-1.96,4.15l-2.62-2.02Z"/>
        <path class="cls-5" d="M131.03,97.89l2.62,2.02c4.46,9.19,12.43,18.3,12.45,28.87l-.41.22c-1.56-3.23-1.81-6.79-2.99-9.47-2.35-5.33-6.26-12.19-9.33-17.16-.78-1.04-1.79-2.15-2.65-3.15l-.07-.49.39-.85Z"/>
        <path class="cls-9" d="M137.6,95.28l1.95,1.57c.47,1.72,6.78,9.93,8.25,12.16,3.58,5.55,5.54,11.29,6.33,17.84l-.23.11c-.85-1.5-1.36-2.84-1.78-4.51-2.44-9.7-8.82-17.75-14.48-25.85l-.04-1.31Z"/>
        <path class="cls-5" d="M79.23,116.38c-.88,1.54-.79,3.45-1.22,5.11-2.21,8.61-.43,15.54.04,23.87l-.43.48c-.06-.06-.12-.11-.18-.17-3.84-8.53-.59-23.73.66-31.45l.58-.12.56,2.28Z"/>
        <path class="cls-10" d="M66.41,111.57l1.29.34c-1.28,4.09-2.8,9.6-3.8,13.82-1.73-.31-1.07-.46-2.47.49l-.78-.51c.75-3.42,3.6-11.4,5.76-14.15Z"/>
        <path class="cls-11" d="M67.69,111.91l.46.49c-1.05,5.98-2.86,11.36-3.96,17.34-.49,2.65.48,13.37-.08,14.43-2.39-2.83-.93-14.82-.22-18.45,1-4.22,2.52-9.73,3.8-13.82Z"/>
        <path class="cls-13" d="M135.45,89.69c2.45.55,3.06.92,4.78,2.99.06,1.62.29,2.84-.67,4.16l-1.95-1.57c-.91-.49-1.38-1.08-2.09-1.82-.68-1.62-.46-2.1-.07-3.76Z"/>
        <path class="cls-1" d="M157.01,114.73c.45,1.23,1.59,4.84,2.37,5.63,1.48,4.73,2.15,5.76,1.58,10.69-3.22-6.66-2.71-8.8-3.96-16.32Z"/>
        <path class="cls-13" d="M129.2,105.05c-.45-3.01-.99-3.92,1.51-5.83.86,1,1.87,2.11,2.65,3.15-1.11,1.77-1.48,2.51-3.09,3.86l-1.07-1.19Z"/>
        <path class="cls-13" d="M78.67,114.1c1.14-1.26,1.18-1.71,2.66-2.14,1.15.7,1.29,1.45,1.83,2.7l-.05.43c-1.29,2.02-1.37,1.86-3.88,1.29l-.56-2.28Z"/>
        <path class="cls-11" d="M131.56,113.88c-1.02-2.37-2.53-7.21-2.91-9.7l.55.88,1.07,1.19c.48,2.67,1.69,5.66,2.63,8.25l-1.35-.61Z"/>
        <path class="cls-11" d="M83.16,114.66c1.55,2.78,1.43,6.77,1.51,9.99l-1.08-.24c-.06-3.32-.2-6.01-.49-9.33l.05-.43Z"/>
        <path class="cls-9" d="M83.6,124.41l1.08.24c.87.9,1.94,2.07,2.88,2.85-1.7-.65-2.05-.85-3.9-.42l-.06-2.67Z"/>
        <path class="cls-13" d="M69.58,100.26c.28-1.68.27-2.54,1.53-3.73,2.74-1.31,16.7.18,19.18,3.95,1,6.75-7.43,6.88-12.19,5.27-4.51-2.41-5.44-.93-8.51-5.49Z"/>
        <path class="cls-9" d="M114.71,74.5c.42-.11.85-.21,1.27-.31,1.76-.39,3.46-.44,5,.7.8.6,1.3,1.53,1.38,2.53.16,2.16-1.09,3.54-2.38,5.09-.83.16-1.66.32-2.5.41-1.4.14-3.16-.4-4.18-1.38-.79-.76-1.11-1.57-1.15-2.64-.06-1.85,1.36-3.18,2.56-4.4Z"/>
        <path class="cls-9" d="M77.37,84.23c.65-.21,1.31-.41,1.97-.59,1.82-.48,3.91-.43,5.52.69.93.65,1.35,1.39,1.58,2.47.36,1.74-.62,3.11-1.54,4.47-.24.08-.48.17-.73.24-2.07.65-4.14.62-6.06-.52-1.09-.65-1.85-1.66-2.06-2.92-.26-1.58.48-2.62,1.32-3.85Z"/>
        <path class="cls-12" d="M69.72,109.45c-.37.06-.86-.05-1.26-.11.15-1.52,1.75-3.27,2.75-4.58,0-1.46-1.39-2.5-2.34-4.49l.34-.78.38.77c3.07,4.56,4,3.08,8.51,5.49-1.84.06-1.98-.25-3.26.73l.29.69c1.55.33.94.38,2.37-.09,2.15,1.57,3.55,2.93,1.73,5.63-1.88.48-1.07.5-3.22-.52-.31-1.17-.08-1.06-.84-1.65l-1.43,2.3-.81-.63-.06-.12c-1.86-.27-2.11-1.24-3.14-2.66Z"/>
        <path class="cls-13" d="M69.72,109.45c.94-2.24.45-1.93,2.2-3.29l1.27.04c1.78,2.07,1.43,3.75-.32,5.91-1.86-.27-2.11-1.24-3.14-2.66Z"/>
        <path class="cls-13" d="M76,112.2l-.02-.33c-.14-2.46-.09-3,1.51-4.79,2.15,1.57,3.55,2.93,1.73,5.63-1.88.48-1.07.5-3.22-.52Z"/>
        <path class="cls-9" d="M94.58,74.78l.74-.41c2.04,1.14,3.62,5.59,4.17,7.41,1.94,6.29,1.01,11.37-1.72,17.11-.31.64.43,1.38.92,1.93,4.01,1.36,7.06-.72,10.02-3.14l.48.41c-1.14,6.32-10.07,4.63-14.27,2.53,1.97-3.4,3.89-6.52,3.76-10.66.06-6.06-1.24-10-4.1-15.18Z"/>
        <path class="cls-9" d="M108.58,62c4.83-1.49,9.33-2.07,14.1.1,1.16.52,2.23,1.11,2.71,2.34l-.66.45-2.47-.64c-4.95-1.15-9,.2-13.88.75-1.11.13-1.85.33-2.75-.37.66-1.43,1.63-1.78,2.94-2.62Z"/>
        <path class="cls-9" d="M78.43,70.11c2.14-.5,4.32-1.2,6.38-.11-.86,1.69-10.79,5.48-13.29,7.28-.9,1.07-1.68,2.07-2.91,2.78l-.54-.53c.07-.46.18-.91.37-1.34,1.89-4.31,5.78-6.59,9.99-8.09Z"/>
        <path class="cls-5" d="M72.93,112.22l.81.63c-1.97,3.45-3.98,15.91-4.29,20.6-.22,3.28,1.3,11.7.78,12.54l-.79-.67c-2.61-5.72-.19-30.31,3.5-33.09Z"/>
        <path class="cls-9" d="M110.04,113.67c-4.75,1.28-10.29,2-14.12-1.95,1.31-.47,8.08,1.57,10.31,1.46,3.73-.18,7.07-4.97,9.71-7.57l.49.38-.37,2.18c-2.13,2.13-3.63,3.61-6.01,5.51Z"/>
        <path class="cls-9" d="M140.77,72.9c1.49-.42,2.75-.5,4.24,0l.09.69c-1.12.21-2.28.4-3.37.72-.77.23-1.1.61-1.46,1.3-1.52,2.94,3.71,3.23,4.41,6.04.45,1.79-.77,3.45-1.66,4.91-1.57.24-2.03.35-3.53-.31l-.28-.92c.95-.31,1.92-.46,2.9-.64.82-.82,1.22-1.34,1.45-2.49-1.23-1.68-3.13-1.51-4.67-2.76-.77-.62-.72-1.09-.87-2.01.56-1.86,1.55-3.06,2.76-4.53Z"/>
        <path class="cls-9" d="M56.06,95.37c2.24-.87,3.51-.97,5.76-.15,1.43.52,2.34,1.1,3,2.52,0,2.5-1.49,2.12-2.79,3.95-.62.87-.63.93-.46,1.99,1.98,1.63,3.59-.11,5.34.74l.27,1.48c-2.06.48-4.1.2-6.08-.5-.52-.61-.92-.87-.97-1.7-.14-2.04,1.47-3.7,2.7-5.15l-.31-.99c-2.95-2.44-3.45-.84-6.6-.74l.15-1.45Z"/>
      </g>
    </g>
  </g>
</svg>