<?xml version="1.0" encoding="UTF-8"?>
<svg id="Camada_2" data-name="Camada 2" xmlns="http://www.w3.org/2000/svg" xmlns:xlink="http://www.w3.org/1999/xlink" viewBox="0 0 252.21 188.97">
  <defs>
    <style>
      .cls-1 {
        fill: #3b1212;
      }

      .cls-2 {
        fill: #95461b;
      }

      .cls-3 {
        fill: #bec8d3;
      }

      .cls-4 {
        fill: #9cb9c0;
      }

      .cls-5 {
        fill: #c25d25;
      }

      .cls-6 {
        fill: url(#Gradiente_sem_nome_2);
      }

      .cls-7 {
        fill: #ee8493;
      }

      .cls-8 {
        fill: #f18447;
      }

      .cls-9 {
        fill: #88817c;
      }

      .cls-10 {
        fill: #c54063;
      }

      .cls-11 {
        fill: #a1cfdd;
      }

      .cls-12 {
        fill: #dd4948;
      }

      .cls-13 {
        fill: #2a140d;
      }

      .cls-14 {
        fill: #fbfcfd;
      }

      .cls-15 {
        fill: #e56982;
      }

      .cls-16 {
        fill: #f5aca7;
      }

      .cls-17 {
        fill: #b06e48;
      }

      .cls-18 {
        fill: #f08249;
      }

      .cls-19 {
        fill: #ec6349;
      }

      .cls-20 {
        fill: #151111;
      }

      .cls-21 {
        fill: url(#Gradiente_sem_nome_8);
      }

      .cls-22 {
        fill: #552a16;
      }

      .cls-23 {
        fill: #824014;
      }

      .cls-24 {
        fill: #f7d4db;
      }
    </style>
    <linearGradient id="Gradiente_sem_nome_8" data-name="Gradiente sem nome 8" x1="3.87" y1="-279.19" x2="32.17" y2="-278.6" gradientTransform="translate(0 -194.26) scale(1 -1)" gradientUnits="userSpaceOnUse">
      <stop offset="0" stop-color="#a5b5c0"/>
      <stop offset="1" stop-color="#c6d6e3"/>
    </linearGradient>
    <linearGradient id="Gradiente_sem_nome_2" data-name="Gradiente sem nome 2" x1="148.74" y1="-278.19" x2="149.5" y2="-288.82" gradientTransform="translate(0 -194.26) scale(1 -1)" gradientUnits="userSpaceOnUse">
      <stop offset="0" stop-color="#18100a"/>
      <stop offset="1" stop-color="#080e15"/>
    </linearGradient>
  </defs>
  <g id="Page-3">
    <g id="_Camada_" data-name="&amp;lt;Camada&amp;gt;">
      <g>
        <path class="cls-23" d="M54.9,55.2c10.25-16.67,23.35-31.75,40.01-42.24C113.97.95,137.04-2.92,158.97,2.22c5.06,1.27,15.18,4.88,19.39,7.84,56.96,31.83,69.97,110.41,73.85,169.88-7.94-.03-20.23-.43-27.86-.05-2.26.35-10.81.19-13.41.19l-27.76-.07-91.37-.03c-3.84,0-25.39-.58-28.03.16-1.97,1.73-.7,4.55-4.49,5.58-15.8,4.31-36.05,4.51-51.68-.53-.8-.26-2.48-1.44-2.63-2.36-.29-5.5,10.19-7.58,13.45-8.32-.64-6.04,4.26-40.02,7.48-44.59-14.98-9.52-20.96-25.84-23.37-42.5.02.11-1.99-2.15-2.1-2.38-1.25-2.58.31-4.01,1.97-5.77-1.31-13.96-1.1-36.44,13.31-44.69,4.83-2.79,10.58-3.53,15.95-2.05,11.08,3.06,17.85,13.35,23.22,22.67Z"/>
        <path class="cls-20" d="M25.91,129.93c-14.98-9.52-20.96-25.84-23.37-42.5.02.11-1.99-2.15-2.1-2.38-1.25-2.58.31-4.01,1.97-5.77-1.31-13.96-1.1-36.44,13.31-44.69,4.83-2.79,10.58-3.53,15.95-2.05,11.08,3.06,17.85,13.35,23.22,22.67,4.68,10.03,6.29,15.77,8.18,26.78l.64,5.82c3.15-3.45,4.1-6.83,8.83-8.69l.43.23c1.21.12,7.59-1.86,8.95-2.39,1.26-.25,1.89-.53,3.04-.01l.35.37.7-.28c4.79-2.78,9.56-5.62,14.28-8.52l-.04.7,1.5,2.95c.36.45.89,1.08,1.19,1.54l2.09.58c2.07-.3,4.85-1.03,6.94-1.51l1.1-.43c.97-.05,2.66-.67,3.65-.98,1.26-.32,2.38-1.28,3.45-2.07.54,1.53,3.15,7.48,3.22,8.34l.44-.13c3.57,5.39,9.13,13.18,16.33,13.01l-.67.56c.45,2.25.75,3.14,1.57,5.3-.49,1.03-.22,1.89-.14,3.18l-1.53.79-5.4,1.29c-5.86.96-9.87,2.26-15,5.44.42,3.3,1.44,5.83,2.95,8.73.37.72,1.1,1.73,1.24,2.42.26,1.64,2.21,4.34,3.2,5.83,1.79,2.51,8.02,12.57,9.61,13.75.26,2.28,17.42,24.11,20.03,27.46l.58.64c1.95,2.64,7.35,9.08,6.61,12.16l.38.6h30.77s16.54.05,16.54.05c2.68,0,11.98-.81,13.42,1.18-2.26.35-10.81.19-13.41.19l-27.76-.07-91.37-.03c-3.84,0-25.39-.58-28.03.16-1.97,1.73-.7,4.55-4.49,5.58-15.8,4.31-36.05,4.51-51.68-.53-.8-.26-2.48-1.44-2.63-2.36-.29-5.5,10.19-7.58,13.45-8.32-.64-6.04,4.26-40.02,7.48-44.59Z"/>
        <path class="cls-18" d="M120.21,69.28c.54,1.53,3.15,7.48,3.22,8.34l.44-.13c3.57,5.39,9.13,13.18,16.33,13.01l-.67.56c.45,2.25.75,3.14,1.57,5.3-.49,1.03-.22,1.89-.14,3.18l-1.53.79-5.4,1.29c-5.86.96-9.87,2.26-15,5.44.42,3.3,1.44,5.83,2.95,8.73.37.72,1.1,1.73,1.24,2.42.26,1.64,2.21,4.34,3.2,5.83,1.79,2.51,8.02,12.57,9.61,13.75.26,2.28,17.42,24.11,20.03,27.46l.58.64c1.95,2.64,7.35,9.08,6.61,12.16l.38.6-3.41-.08c-9.9.4-22.3.07-32.35.04-6.36,0-13.13-.1-19.45.14l-.36-.12c-2.55.04-5.22-.01-7.77-.02l-2.88-.05-.49.03-.25-.46-.1-.38c-.09-1.73-.23-3.45-.42-5.17l.12-.44c-.43-3.72-4.08-21.44-3.78-23.5l.15-.41c3.68-6.69,10.32-18.02,14.53-24.17-.46-2.71-5.83-9.61-7.62-12.53-1.55-2.55-2.91-5.22-4.06-7.98-2.13-5.15-2.51-7.68-.42-12.7.65-1.95,1.1-3,1.99-4.86,1.57-2.9,5.68-8.13,8.28-10.09.54-.84.42-.4.45-1.36l-.72-.29c2.07-.3,4.85-1.03,6.94-1.51l1.1-.43c.97-.05,2.66-.67,3.65-.98,1.26-.32,2.38-1.28,3.45-2.07Z"/>
        <path class="cls-10" d="M107.17,124.08c1.09,1.66,3.16,8.17,3.79,10.34.77,2.03,2.11,4.74,1.63,6.76-2.58,8.07-4.84,15.03-4.64,23.66.08,3.41,1.06,11.05.47,13.93l-.36-.12c-2.55.04-5.22-.01-7.77-.02l-2.88-.05-.49.03-.25-.46-.1-.38c-.09-1.73-.23-3.45-.42-5.17l.12-.44c-.43-3.72-4.08-21.44-3.78-23.5l.15-.41c3.68-6.69,10.32-18.02,14.53-24.17Z"/>
        <path class="cls-12" d="M112.26,139.85c-.6-1.72-1.48-3.67-1.3-5.44.77,2.03,2.11,4.74,1.63,6.76-2.58,8.07-4.84,15.03-4.64,23.66.08,3.41,1.06,11.05.47,13.93l-.36-.12c-.2-1.47-.28-4.36-.37-5.94.04-.93-.22-2.9-.35-3.93-1.25-10.34,1.55-19.14,4.92-28.92Z"/>
        <path class="cls-1" d="M92.49,148.65c2.54,5.49,4.4,17.23,4.86,23.31l-.6.67-.48-.49c-.43-3.72-4.08-21.44-3.78-23.5Z"/>
        <path class="cls-18" d="M105.71,174.78c.51-.62,1.4-1.47,1.98-2.07.09,1.59.17,4.47.37,5.94-2.55.04-5.22-.01-7.77-.02,2.97-1.83,4.07.02,5.42-3.85Z"/>
        <path class="cls-19" d="M97.4,178.58c4.34-.91,4.9-.98,8.3-3.8-1.36,3.87-2.45,2.02-5.42,3.85l-2.88-.05Z"/>
        <path class="cls-2" d="M96.28,172.15l.48.49.6-.67c-.08,2.13.04,3.84-.78,5.79-.09-1.73-.23-3.45-.42-5.17l.12-.44Z"/>
        <path class="cls-23" d="M123.43,77.62l.44-.13c3.57,5.39,9.13,13.18,16.33,13.01l-.67.56c.45,2.25.75,3.14,1.57,5.3-.49,1.03-.22,1.89-.14,3.18l-1.53.79-5.4,1.29c-5.86.96-9.87,2.26-15,5.44l-.29-.09c-.35-4.21-5.06-13.08-4.9-14.94,3.04-5.57,7.65-9.82,9.6-14.41Z"/>
        <path class="cls-13" d="M125.43,83c.25,2.53-2.74,8.66-3.63,11.43.75,1.51,1.5,3,2.15,4.56-1.27-.71-2.18-1.67-2.55-3.11-.96-3.7,2.2-9.73,4.03-12.88Z"/>
        <path class="cls-13" d="M129.02,90.29c.05.07.11.13.16.2,1.12,1.58,2.71,7.09,2.27,9.02-.11-.12-.29-.31-.39-.45-1.22-1.87-2.48-6.62-2.05-8.76Z"/>
        <path class="cls-16" d="M112.59,141.17c1.36.89,10.34,27.67,12.32,30.77.31.48,2.61,5.82,2.95,6.69-6.36,0-13.13-.1-19.45.14.6-2.88-.39-10.52-.47-13.93-.2-8.63,2.07-15.59,4.64-23.66Z"/>
        <path class="cls-24" d="M120.21,69.28c.54,1.53,3.15,7.48,3.22,8.34-1.95,4.58-6.56,8.83-9.6,14.41-.66-2.59-1.31-5.07-2.18-7.6-.43-1.27-1.52-2.62-1.53-3.68l-1.17-2.06c.82-1.74,2.82-3.62,4.16-6.36.97-.05,2.66-.67,3.65-.98,1.26-.32,2.38-1.28,3.45-2.07Z"/>
        <path class="cls-5" d="M105.06,74.27c2.07-.3,4.85-1.03,6.94-1.51l-.15.23c-2.35,3.53-4.88,5.14-6.2,9.98l-.8-.31c-5.4,4.77-4.05,9.42-5.95,10.92-.45-1.4-.59-3.3-.03-4.69l-.51-.92-.61.1c-.62,1.06-1.58,3.41-2.37,3.65l-.33-.87c.65-1.95,1.1-3,1.99-4.86,1.57-2.9,5.68-8.13,8.28-10.09.54-.84.42-.4.45-1.36l-.72-.29Z"/>
        <path class="cls-22" d="M105.34,75.92c-.37,1.85-5.17,6.98-6.39,9.82-.74.34-1.11.16-1.89.27,1.57-2.9,5.68-8.13,8.28-10.09Z"/>
        <path class="cls-22" d="M118.72,106.97l.29.09c.42,3.3,1.44,5.83,2.95,8.73.37.72,1.1,1.73,1.24,2.42.26,1.64,2.21,4.34,3.2,5.83,1.79,2.51,8.02,12.57,9.61,13.75.26,2.28,17.42,24.11,20.03,27.46l.58.64c1.95,2.64,7.35,9.08,6.61,12.16-.63-.73-1.87-2.73-2.46-3.64-5.92-9.26-13.35-17.82-19.29-26.84-7.89-11.97-20.16-26.47-22.77-40.62Z"/>
        <path class="cls-13" d="M112,72.76l1.1-.43c-1.34,2.74-3.34,4.61-4.16,6.36l1.17,2.06c-1.33,2.36-2.68,4.71-4.05,7.04.06,1.28.44,6.55-.19,7.29-1.52-4.22-1.25-7.89-.22-12.1,1.32-4.85,3.85-6.45,6.2-9.98l.15-.23Z"/>
        <path class="cls-17" d="M108.94,78.69l1.17,2.06c-1.33,2.36-2.68,4.71-4.05,7.04.07-3.92.57-5.94,2.88-9.1Z"/>
        <path class="cls-8" d="M160.78,174.42c.59.9,1.82,2.91,2.46,3.64l.38.6-3.41-.08c-1.68-.61-3.9-.49-5.73-.51,1.01-.33,3.51-.09,5.23-.53,1.12-1.33.79-1.14,1.06-3.13Z"/>
        <path class="cls-18" d="M86.03,77.02c4.79-2.78,9.56-5.62,14.28-8.52l-.04.7,1.5,2.95c.36.45.89,1.08,1.19,1.54l2.09.58.72.29c-.03.96.09.52-.45,1.36-2.61,1.96-6.71,7.19-8.28,10.09-.89,1.86-1.34,2.91-1.99,4.86-2.09,5.02-1.71,7.55.42,12.7,1.15,2.76,2.51,5.42,4.06,7.98,1.79,2.92,7.16,9.83,7.62,12.53-4.21,6.16-10.85,17.48-14.53,24.17l-.15.41c-.3,2.05,3.35,19.78,3.78,23.5l-.12.44c.19,1.72.32,3.45.42,5.17l.1.38.25.46c-9.2.05-18.4.04-27.59-.02-3.1-9.53-1.85-28.45.04-38.53.11-5.65,3.22-20.27,1.01-24.08-1.61-.85-6.47-9.92-7.78-10.41.9-5.78,1.28-9.86,1.22-15.69,3.87-4.32,4.1-7.09,9.17-10.54,1.21.12,7.59-1.86,8.95-2.39,1.26-.25,1.89-.53,3.04-.01l.35.37.7-.28Z"/>
        <path class="cls-24" d="M102.97,73.69l2.09.58.72.29c-.03.96.09.52-.45,1.36-2.61,1.96-6.71,7.19-8.28,10.09-.89,1.86-1.34,2.91-1.99,4.86-2.09,5.02-1.71,7.55.42,12.7,1.15,2.76,2.51,5.42,4.06,7.98,1.79,2.92,7.16,9.83,7.62,12.53-4.21,6.16-10.85,17.48-14.53,24.17-1.77-4.68-5.83-28.09-5.89-33.28.09-2.42-.05-3.07-.54-5.47-.12-2.91-1.96-9.45-3.11-12.17,1.42-2.93,3.09-4.29,5.12-6.84l.02-.46c-1.13-1.28-1.29-1.48-1.97-3.06,1.49-.64,3.48-1.21,3.62-2.93l-2.63-2.03c5.05-2.65,10.35-6.31,15.71-8.32Z"/>
        <path class="cls-13" d="M86.03,77.02c4.79-2.78,9.56-5.62,14.28-8.52l-.04.7,1.5,2.95c.36.45.89,1.08,1.19,1.54-5.36,2.01-10.66,5.67-15.71,8.32-2.88-.69-8,1.18-10.53,2.66-3.13,1.82-5.7,8.33-8.22,10.12l-.47-.19c1.93-3.04,5.28-8.98,8.15-10.96,1.92-1.33,6.06-1.72,8.33-3.38.07-1.35.15-1.76.81-2.95l.7-.28Z"/>
        <path class="cls-7" d="M100.28,69.2l1.5,2.95c-3.14,1.01-11.4,7.16-13.59,6.03.2-1.17.34-1.8,1.48-2.45,3.42-1.92,7.27-3.84,10.32-6.29l.29-.23Z"/>
        <path class="cls-13" d="M80.83,98.97c1.21-2.22,4.83-8,7.38-8.5-2.03,2.55-3.7,3.91-5.12,6.84,1.15,2.72,2.99,9.27,3.11,12.17.5,2.4.63,3.05.54,5.47-2.02-7.27-2.51-7.05-7.14-13.17l1.23-2.82Z"/>
        <path class="cls-8" d="M83.1,97.32c1.15,2.72,2.99,9.27,3.11,12.17-1.62-2.89-3.28-5.13-5.21-7.82.49-1.23,1.49-3.11,2.11-4.35Z"/>
        <path class="cls-8" d="M81.94,76.94c1.26-.25,1.89-.53,3.04-.01l.35.37c-.66,1.19-.74,1.59-.81,2.95-2.26,1.66-6.41,2.05-8.33,3.38-2.87,1.98-6.22,7.92-8.15,10.96-.1-.35-.12-.87-.16-1.24,1.72-3.85,4.06-8.3,7.28-11.14.52.25.77.32,1.31.49l.33-.45-.67-.17-.18-.36c.33-.27,3.1-.49,4.1-.71l-1.99-.02c.63-.76,1.51-2.09,2.38-2.3l.98,1c1.07-.2.68.02,1.4-.87-.32-.82-.45-1.1-.89-1.86Z"/>
        <path class="cls-8" d="M79.46,91.55c1.23-2.42,4.45-3.6,6.81-4.59.68,1.58.83,1.78,1.97,3.06l-.02.46c-2.56.5-6.17,6.27-7.38,8.5-1.41-3.64,4.46-6.35,2.98-8.9-2.66-.35-1.72,1.44-4.36,1.48Z"/>
        <path class="cls-13" d="M89.89,84.04c-.14,1.72-2.13,2.29-3.62,2.93-2.36.99-5.58,2.17-6.81,4.59-1.53,1.25-4.84,6.61-7.02,9.02,4.8-9.84,7.49-12.47,17.46-16.54Z"/>
        <path class="cls-8" d="M96.67,178.15c-1.05-.03-2.38.08-3.19-.47,2.82-1.78.44-2.16,1.74-4.9l.94-.19c.19,1.72.32,3.45.42,5.17l.1.38Z"/>
        <path class="cls-24" d="M62.6,105.57c1.31.49,6.16,9.56,7.78,10.41,2.21,3.81-.9,18.43-1.01,24.08-1.89,10.08-3.14,29-.04,38.53-8.94.22-9-1.4-17.47-3.63-4.14-1.09-9.93-1.47-14.21-1.69v-39.89c15.56-.95,22.25-14.39,24.96-27.81Z"/>
        <path class="cls-24" d="M25.91,129.93c1.44.69,3.1,1.52,4.56,2.12l-.18,41.12c-3.96.29-7.95.59-11.86,1.35-.64-6.04,4.26-40.02,7.48-44.59Z"/>
        <path class="cls-11" d="M14.15,100.34c-5.56-14.54-8.54-30.85-4.98-46.31,1.36-5.74,4.33-12.96,9.54-16.1,9.1-5.48,21.1,5.54,25.37,13.05,3.03,4.17,5.22,8.67,7.11,13.45,5.68,16.67,8.64,35.62,1.06,52.13-3.06,6.67-10.21,13.67-17.47,9.28-3.81-2.3-9.86-6.93-11.99-10.8-3.53-3.84-6.48-10.06-8.65-14.7Z"/>
        <path class="cls-11" d="M51.19,64.43c5.68,16.67,8.64,35.62,1.06,52.13-3.06,6.67-10.21,13.67-17.47,9.28-3.81-2.3-9.86-6.93-11.99-10.8l.22-.35c-.08-.5-.22-1.9,0-2.26,3.33-5.54,24.96-46.32,28.17-48Z"/>
        <path class="cls-4" d="M14.15,100.34l1.65.07c3.52-3.88,27.02-44.61,28.28-49.43,3.03,4.17,5.22,8.67,7.11,13.45-3.21,1.68-24.84,42.46-28.17,48-.22.37-.08,1.76,0,2.26l-.22.35c-3.53-3.84-6.48-10.06-8.65-14.7Z"/>
        <path class="cls-3" d="M9.21,42.41c6.51-10.1,18.92-12.44,28.72-5.71,12.74,8.76,20.03,25.58,22.96,40.21,2.94,14.69,2.42,31.71-5.85,44.65-3.07,4.74-8.09,9.05-13.72,10.14-1.5.29-5.06.49-6.4-.14l.11-.16c-.38-.62-.14-.33-1.04-.64l1.16-.78-1.5-.04-.3.52c-1.33-.22-1.18.02-2.03-.74,1.38-1.99,3.46.78,6.02-.89,6.52-.54,12.01-4.13,15.1-10.1,12.43-23.98,3.22-66.25-19.95-81-9.52-6.06-17.01-.53-21.9,8.15-.52-.32-.98-2.44-1.37-3.45Z"/>
        <path class="cls-3" d="M25.94,174.54l4.32-.33c-.04,1.53-.34,3.29.69,4.54.69.83,1.88,1.69,3,1.69,1.04,0,2.04-.61,2.76-1.33,1.37-1.38,1-3.04.99-4.82,5.77.29,11.68.86,17.25,2.49,2.28.67,5.69,1.6,6.89,3.79-.06.64,0,.99-.42,1.51-2.35,2.92-9.34,3.45-12.9,3.86-10.62,1.78-25.1,1.32-35.6-1.2-2.13-.51-5.12-1.16-6.34-3.15.04-.86.02-1.08.63-1.75,3.15-3.47,14.15-4.9,18.72-5.32Z"/>
        <path class="cls-21" d="M32.92,126.74c-1.65-.75-3.24-1.64-4.75-2.65C6.91,109.83-5.43,64.25,9.21,42.41c.39,1.01.85,3.13,1.37,3.45-7.14,19.35-4.19,38.99,3.91,57.77,3.39,7.85,11.1,18.42,18.93,22.4l-.5.72Z"/>
        <path class="cls-3" d="M31.78,132.48c1.53.48,3.07.68,4.66.89.03,15.07-.1,30.15.13,45.22-1.75.1-3.44.41-4.9-.67-.57-5.1-.18-10.55-.15-15.7.03-9.91.12-19.83.27-29.74Z"/>
        <path class="cls-14" d="M5.02,92.81l1.09.19c4.55,13.9,15.27,33.37,31.21,35.82-2.55,1.67-4.63-1.09-6.02.89.85.75.7.52,2.03.74l.3-.52,1.5.04-1.16.78c.91.31.67.03,1.04.64l-.11.16c-2.82-.24-6.75-1.87-9.07-3.43-12.3-8.32-17.83-21.48-20.83-35.3Z"/>
        <path class="cls-3" d="M2.22,80.64l.47.44c.64,1.75.74,3.59.14,5.36-.58-.72-1.01-1.55-1.28-2.43-.37-1.27.09-2.28.67-3.37Z"/>
        <path class="cls-3" d="M5.02,92.81c-.23-.99-.61-2.32-.62-3.3l.28-.16c.76,1.33.98,2.2,1.43,3.65l-1.09-.19Z"/>
        <path class="cls-9" d="M33.42,126.02c1.05.45,1.67.5,2.24,1.32-1.21.14-1.61-.14-2.74-.61l.5-.72Z"/>
        <path class="cls-10" d="M174.45,98.53c1.7.51,6.14,1.9,7.74,2.03l2.12.66c1.91.36,4.52.77,6.35,1.2,15.48,2.92,23.66,13.28,23.53,29.01-.78,7.25-1.4,11.31-4.12,18.06.64,7.7,1.05,21.34.86,29.21l-16.54-.03h-30.77s-.38-.62-.38-.62c.75-3.09-4.65-9.52-6.61-12.16l-.58-.64c-2.61-3.35-19.78-25.18-20.03-27.46-1.59-1.18-7.82-11.24-9.61-13.75-.99-1.49-2.94-4.19-3.2-5.83-.14-.7-.87-1.7-1.24-2.42-1.51-2.91-2.53-5.43-2.95-8.73,5.13-3.19,9.14-4.48,15-5.44l5.4-1.29,1.53-.79c.24,5.29-1.16,5.44-1.73,10.35-.09,1.08.23,2.76,1.14,3.45,11.52,8.69,27.02-7.38,34.08-14.81Z"/>
        <path class="cls-10" d="M174.45,98.53c1.7.51,6.14,1.9,7.74,2.03l2.12.66c-4.39,3.41-6.56,6.26-9.75,10.83-5.01,9.68-8.49,16.56-11.38,27.29-6.69-.43-21.64-.64-27.17-1.55-1.59-1.18-7.82-11.24-9.61-13.75-.99-1.49-2.94-4.19-3.2-5.83-.14-.7-.87-1.7-1.24-2.42-1.51-2.91-2.53-5.43-2.95-8.73,5.13-3.19,9.14-4.48,15-5.44l5.4-1.29,1.53-.79c.24,5.29-1.16,5.44-1.73,10.35-.09,1.08.23,2.76,1.14,3.45,11.52,8.69,27.02-7.38,34.08-14.81Z"/>
        <path class="cls-16" d="M139.42,100.33c-.36.99-2.74,3.19-3.86,4.8-3.37,4.86-7.71,13.25-9.16,18.91-.99-1.49-2.94-4.19-3.2-5.83-.14-.7-.87-1.7-1.24-2.42-1.51-2.91-2.53-5.43-2.95-8.73,5.13-3.19,9.14-4.48,15-5.44l5.4-1.29Z"/>
        <path class="cls-10" d="M119.02,107.06c5.13-3.19,9.14-4.48,15-5.44-4.99,5.25-8.07,9.82-10.82,16.6-.14-.7-.87-1.7-1.24-2.42-1.51-2.91-2.53-5.43-2.95-8.73Z"/>
        <path class="cls-16" d="M184.31,101.23c1.91.36,4.52.77,6.35,1.2-10.32,5.18-21.03,26.26-21.57,37.14-3.13,7.23-9.25,18.54-13.04,25.68-2.61-3.35-19.78-25.18-20.03-27.46,5.52.91,20.47,1.11,27.17,1.55,2.88-10.73,6.37-17.61,11.38-27.29,3.19-4.56,5.36-7.41,9.75-10.83Z"/>
        <path class="cls-16" d="M210.07,149.5c.64,7.7,1.05,21.34.86,29.21l-16.54-.03c4.9-6.44,12.42-21.63,15.68-29.18Z"/>
        <path class="cls-1" d="M175.25,129.78c-1.59,4.01-4.5,9.34-6.51,13.29-3.86,7.7-7.9,15.31-12.11,22.82l-.58-.64c3.79-7.14,9.91-18.46,13.04-25.68,1.97-3.46,3.62-6.69,6.16-9.78Z"/>
        <path class="cls-24" d="M178.37,10.06c56.96,31.83,69.97,110.41,73.85,169.88-7.94-.03-20.23-.43-27.86-.05-1.44-1.99-10.74-1.19-13.42-1.18.19-7.87-.23-21.52-.86-29.21,2.71-6.75,3.34-10.8,4.12-18.06,7.52-2.24,15.87-9.03,14.8-17.99-.59-4.95-4.79-7.98-8.6-10.7,7.6-9.82,7.15-16.82-4.89-22.88-1.74-.88-3.58-1.82-5.28-2.78.32-.84.61-1.69.89-2.55,3.49-11.22-4.78-15.03-13.78-17.74-3.09-4.17-3.97-5.06-8.22-8,6.23-13.5-.91-28.3-11.44-37.26.12-.55.42-.99.7-1.49Z"/>
        <path class="cls-24" d="M54.9,55.2c10.25-16.67,23.35-31.75,40.01-42.24C113.97.95,137.04-2.92,158.97,2.22c-.39.88-.38.44-.03,1.35-1.2.37-10.2-.35-11.69,2.06-9.37-2.31-19.42,3.12-25.22,10.36-.86,1.14-1.85,2.38-2.57,3.59-4.78,7.22-4.35,12.11-1.22,19.85.26,1.03.21,1.17-.1,2.2l-.03.93c-.62,3.9-1.34,12.42-.64,16.24.49,3.28,3.15,8.27,2.73,10.46-1.07.78-2.19,1.74-3.45,2.07-.99.31-2.68.93-3.65.98l-1.1.43c-2.09.48-4.87,1.21-6.94,1.51l-2.09-.58c-.3-.46-.83-1.09-1.19-1.54l-1.5-2.95.04-.7c-4.73,2.89-9.49,5.73-14.28,8.52l-.7.28-.35-.37c-1.15-.52-1.78-.24-3.04.01-1.36.53-7.74,2.51-8.95,2.39l-.43-.23c-4.73,1.86-5.68,5.24-8.83,8.69l-.64-5.82c-1.89-11.01-3.5-16.75-8.18-26.78Z"/>
        <path class="cls-20" d="M109.88,59.46c.87-1.02,3.57-2.94,5-2.75,1.33.18,1.8,1.15,2.6,2.11.49,3.28,3.15,8.27,2.73,10.46-1.07.78-2.19,1.74-3.45,2.07-.99.31-2.68.93-3.65.98l-1.1.43c-2.09.48-4.87,1.21-6.94,1.51l-2.09-.58c-.3-.46-.83-1.09-1.19-1.54l-1.5-2.95.04-.7c.42-1.61,7.97-7.78,9.57-9.04Z"/>
        <path class="cls-15" d="M109.88,59.46c.87-1.02,3.57-2.94,5-2.75,1.33.18,1.8,1.15,2.6,2.11.49,3.28,3.15,8.27,2.73,10.46-1.07.78-2.19,1.74-3.45,2.07-.2-.04-.39-.08-.59-.13-3.46-.86-1.3-2.54-2.33-4.18l-1.05-.15c-.86-1.12.07-1.16-.31-2.8l-1.25-.08c-.82-1.78.7-.91.05-2.73l-1.41.09c-.38-.96-.25-.7.02-1.91Z"/>
        <path class="cls-8" d="M79.79,77.09c1.39-.81,2.57-1.85,4.13-1.81,1.22.35,1.35.68,2.11,1.73l-.7.28-.35-.37c-1.15-.52-1.78-.24-3.04.01-1.36.53-7.74,2.51-8.95,2.39l-.43-.23c-4.73,1.86-5.68,5.24-8.83,8.69l-.64-5.82c5.1-5.05,10.07-5.05,16.71-4.88Z"/>
        <path class="cls-18" d="M138.25,23.34c4.38,2.48,6.68,1.61,11.06,2.77,4.27,7.27,5,6.35,10.56,11.83,1.57,1.55,6.54,12.86,7.61,15.45,6.18-5.69,13.46-4.84,13.45,4.84-.01,6.75-7.15,11.84-14.17,9.27-1.31,3.23-2.55,5.86-4.09,8.99,1.26,8.03,2.59,19.53,11.79,22.03-7.06,7.43-22.56,23.49-34.08,14.81-.91-.69-1.23-2.37-1.14-3.45.56-4.91,1.97-5.07,1.73-10.35-.08-1.29-.35-2.15.14-3.18-.82-2.16-1.12-3.05-1.57-5.3l.67-.56c-7.2.17-12.76-7.62-16.33-13.01l-.44.13c-.07-.86-2.68-6.81-3.22-8.34.42-2.2-2.24-7.19-2.73-10.46-.71-3.82.02-12.34.64-16.24l.03-.93c.31-1.03.36-1.17.1-2.2,2.09-9.08,7.02-9.81,12.96-15.59l7.05-.51Z"/>
        <path class="cls-6" d="M140.2,90.5c6.74-1.23,13.13-4.86,18.04-9.58-3.69,6.05-9.28,14.92-17.15,15.44-.82-2.16-1.12-3.05-1.57-5.3l.67-.56Z"/>
        <path class="cls-23" d="M118.14,41.65c3.17-4.28,7.01-4.31,11.73-2.55l.51.58c-1.55,1.42-6.16.98-8.32,1.47-1.43.33-2.61.83-3.94,1.42l.03-.93Z"/>
        <path class="cls-5" d="M151.06,56.01c1.5-.14,2.99-.25,4.48.11,1.87.45,3.82,1.66,4.74,3.39.48.91.56,1.98.22,2.95-.73,2.08-2.9,3.08-4.77,3.91-1.36.08-2.77.07-4.11-.21-1.88-.38-4.07-1.57-5.05-3.28-.49-.85-.64-1.87-.34-2.81.72-2.2,2.92-3.13,4.83-4.06Z"/>
        <path class="cls-5" d="M120.76,55.24c.87,0,1.78-.04,2.65.09,1.59.24,3.49,1.6,4.39,2.92.5.73.73,1.57.53,2.45-.33,1.49-1.67,2.25-2.89,2.96-1.09.28-2.71.7-3.83.4-1.13-.31-2.4-1.62-2.95-2.63-.7-1.26-.75-2.75-.29-4.11.4-1.17,1.35-1.57,2.38-2.07Z"/>
        <path class="cls-13" d="M168.7,59.38c.94-2.85,3.71-7.45,7.24-4.95l.12.61-.44-.02c-.95-.03-2.99.02-3.88.26l-.53,1.12c1.21,1.28,3.07,2.87,3.58,4.41-.2,2.89-3.31,5.2-5.94,3.31-.26-.6-.47-.92-.4-1.57.15-1.45-.41-1.57.26-3.18Z"/>
        <path class="cls-8" d="M168.7,59.38c1.21-.01,1.55-.21,2.57-.84,1.48.51.98.14,1.91,1.34.28,1.21.23,1.36-.29,2.5-.85.9-.99.95-2.21,1.18-1.13-.28-1.27-.36-2.24-1,.15-1.45-.41-1.57.26-3.18Z"/>
        <path class="cls-13" d="M135.63,42.59l.88.64c1.76,5.13-.09,11.7-2.99,16.11-.92,1.4-2.78,3.03-3,4.64l.94.82c2.16.76,4.95-.52,7-1.25l.68.34c-1.19,1.07-2.77,1.82-4.35,2.03-1.54.2-3.97.48-5.24-.61-.55-.47-.74-1.49-.48-2.17.54-1.39,2.24-2.89,3.12-4.15,3.43-4.91,3.63-10.66,3.44-16.4Z"/>
        <path class="cls-23" d="M147.68,38.7c3.27-.13,5.99.44,8.78,2.19,1.12.7,2,1.34,2.29,2.66l-.55.28-1.99-.85c-3.72-1.48-8.15-.85-11.62-2.48l-.11-.59c.9-.89,2.02-.98,3.21-1.22Z"/>
        <path class="cls-20" d="M149.91,47.89c.39-.02.78-.02,1.18,0,3.98.17,5.95,2.26,8.46,5.04-2.02-.54-3.98-1.37-5.93-2.11-2.26-.22-3.66.3-5.79.56-.8.1-1.35.23-2.02-.28.78-1.83,2.38-2.49,4.1-3.21Z"/>
        <path class="cls-20" d="M122.85,47.09c.69,0,1.37.06,2.05.19,1.37.27,2.72,1.2,3.42,2.44.54.96.58,1.23.27,2.22-1.1.25-1.57-.27-2.51-.8-2.12-.91-4.44-.36-6.52-1.36l-.03-.68c.95-1,2.08-1.46,3.32-2.01Z"/>
        <path class="cls-13" d="M145.18,69.11c.4.48.3.73.31,1.34-.46,1.08-1.27,1.78-2.24,2.4-2.81,1.81-5.58,2.26-8.78,1.54l-.47-.85c.51-.62,3.47-.17,4.5-.31,3.04-.41,4.86-1.71,6.68-4.13Z"/>
        <path class="cls-13" d="M187.53,60.9c1.12.26,9.3,5.41,10.36,6.22,8.02,6.06-1.65,9.34-.97,14.36,2.29,4.92,12.73,3.1,17.68,6.92,1.36,1.05,2.42,2.37,2.58,4.14.29,3.22-1.95,6.89-3.84,9.3l-.37-.11c-.06-.14-.2-.26-.19-.42.01-.55,1.41-2.56,1.7-3.27.54-1.32.9-2.7,1.07-4.11.2-1.52.02-2.76-.95-4-2.79-3.57-7.42-3.23-11.5-3.68-2.48-.28-4.97-1.17-6.5-3.26-2.81-3.84,2.76-6.56,3.22-10.19.67-5.21-9.28-7.78-12.06-11.58l-.22-.3Z"/>
        <path class="cls-13" d="M144.19,18.55c2.46-.16,4.6-.06,6.96.7,2.67.86,5.01,2.27,7.26,3.9,4.73,3.42,8.57,7.96,13.14,11.57,2.13,1.68,9.33,5.71,10.3,7.6l-1.19-.28c-3.7-2.11-7.19-4.4-10.46-7.14-5.51-4.6-11.22-11.7-18.01-14.26-2.79-1.05-6.16-1.01-9.11-1.09l-.07-.4,1.18-.61Z"/>
        <path class="cls-13" d="M195.33,93.96c-3.24-1.64-6.84-3.2-8.89-6.29-4.08-6.16,3.35-8.71,4.21-12.76-.28-2.95-4-3.94-6.47-6.61l.12-.21c1.16.36,1.69.71,2.63,1.22,11,6.12-1.17,9.34-.44,16.27.33,3.08,7.53,6.31,10.62,8.2l-1.78.18Z"/>
        <path class="cls-13" d="M210.58,106.31c2.45.59,5.33,2.59,6.99,4.45,1.45,1.62,2.53,3.68,2.35,5.91-.2,2.44-1.75,3.9-3.53,5.38l-.36-.06c-.2-1.09,2.74-3.5,2.95-5.42.5-4.73-5.87-6.94-8.24-10.04-.05-.07-.1-.14-.15-.21Z"/>
        <path class="cls-20" d="M165.34,39.34c3.31,1.62,6.65,3.17,10.15,4.35,3.56,1.2,7.39,2.06,10.78,3.69-.29.04-.57.07-.86.08-5.36.03-16.34-4.29-20.07-8.12Z"/>
        <path class="cls-13" d="M174.47,80.21c.29.07.44.08.7.19,1.98.78,3.24,3.9,4.02,5.68-.45,2.19-.89,4.38-1.32,6.58l2.35,4.47c-5.75-2.13-1.48-7.93-2.56-11.81-.48-1.73-2.17-3.62-3.18-5.11Z"/>
        <path class="cls-20" d="M128.9,23.14l1.22.02.14.28c-3.49,1.76-6.52,3.25-9.42,5.94-.24.27-.43.31-.76.44,0-.43.02-.74.22-1.12,1.47-2.86,5.73-4.47,8.59-5.55Z"/>
        <path class="cls-13" d="M179.83,30.72c.35.09.71.21,1.03.39,2.9,1.65,6.71,5.98,7.63,9.11-2.46-1.36-6.73-7.11-8.66-9.5Z"/>
        <path class="cls-13" d="M177.36,70.98c.88.65,1.43,2.29,2.12,3.2,1.64,2.15,3.68,3.52,5.9,4.99-1.73-.1-3.59-1.02-4.92-2.12-1.98-1.63-2.84-3.58-3.1-6.08Z"/>
        <path class="cls-13" d="M207.21,93.06c.09.08.18.16.26.25,1.62,1.7,1.38,4.85,1.24,6.98-1.63-1.57-1.37-5-1.5-7.23Z"/>
        <path class="cls-13" d="M199.32,95.33c.9,2.4.69,4.39-.1,6.8l-.5.49c-.51-1.26-.22-2.27-.03-3.65l.62-3.64Z"/>
        <path class="cls-22" d="M197.11,93.78c1.12.53,1.29.7,2.21,1.54l-.62,3.64c-.01-1.42,0-1.79-.39-3.22-.74-1.12-1.73-1.33-2.98-1.79l1.78-.18Z"/>
      </g>
    </g>
  </g>
</svg>