<?xml version="1.0" encoding="UTF-8"?>
<svg id="Camada_2" data-name="Camada 2" xmlns="http://www.w3.org/2000/svg" viewBox="0 0 58.15 49.42">
  <defs>
    <style>
      .cls-1 {
        fill: #9c3052;
      }

      .cls-2 {
        fill: #f0edec;
      }

      .cls-3 {
        fill: #e68e3c;
      }

      .cls-4 {
        fill: #0a0f13;
      }

      .cls-5 {
        fill: #64576b;
      }

      .cls-6 {
        fill: #1a161f;
      }

      .cls-7 {
        fill: #4a4861;
      }

      .cls-8 {
        fill: #f7d4db;
      }
    </style>
  </defs>
  <g id="Page-3">
    <g id="_Camada_" data-name="&amp;lt;Camada&amp;gt;">
      <g>
        <path class="cls-5" d="M24.45,22.56c-2.1-1.91-3.57-3.57-4.48-6.38-.94-2.9-.66-6.05.77-8.74C27.56-5.66,53.94-.08,57.65,13.45c1.87,6.82-1.62,12.7-8.34,14.64h-.24s-.87.49-.87.49c3.37,2.05,5.11,3.58,4.88,7.73,0,2.68-.27,4.47-2.25,6.48-5.29,5.36-16.3,6.64-23.42,6.62-7.59-.03-19.51-1.76-25.12-7.45-.93-.95-1.87-2.22-1.95-3.59-1.04-5.23.4-8.96,5.09-11.59,5.82-3.26,12.52-4.06,19.04-4.23Z"/>
        <path class="cls-6" d="M24.45,22.56c-2.1-1.91-3.57-3.57-4.48-6.38-.94-2.9-.66-6.05.77-8.74C27.56-5.66,53.94-.08,57.65,13.45c1.87,6.82-1.62,12.7-8.34,14.64h-.24s-.87.49-.87.49c3.37,2.05,5.11,3.58,4.88,7.73l-.65-.53c.03-.38.05-.77.03-1.16-.1-1.78-.93-2.86-2.22-4l-.27-.19-.53-.39-.28-.2-.8-.48-.25-.17c-2.64-1.35-22.61-5.9-25.49-5.98-3.98-.11-8.35.74-12.13,1.96-3.42,1.11-7.52,3.08-9.22,6.41-.62,1.21-.66,2.3-.43,3.62-.72.7-.37,2.19-.5,3.17-1.04-5.23.4-8.96,5.09-11.59,5.82-3.26,12.52-4.06,19.04-4.23Z"/>
        <path class="cls-7" d="M25.36,22.86c-1.39-1.8-3.02-3.09-4.11-5.21-3.02-5.89-.1-12.37,5.61-15.22,5.56-2.65,11.43-2.18,17.21-.42,9.63,2.93,18.43,13.31,10.15,22.68-1.24,1.4-3.22,2.23-4.92,3.08v.32h-.24c-.48-.13-1.34-.01-1.86-.15-1.29-.34-5.8-1.01-6.47-1.94l.19-.45c1.87-1.02,7.37,2.43,10.39-.39,2.21-2.06,4.47-3.99,4.54-7.36.21-9.62-10.91-15.26-19.27-15.7-9.16-.91-17.94,5.8-13.58,15.55,2.54,5.67,7.9,4.16,9.33,5.73l-.24.49c-1.3.71-5.08-.58-6.72-1Z"/>
        <path class="cls-2" d="M24.24,18.4c-.31-.33-.66-1.04-.85-1.46-2.19-4.91.12-10.35,5.02-12.42,5.59-2.37,10.77-1.19,16.16.8,2.98,1.44,5,2.74,7.17,5.31,1.86,2.52,3.06,5.11,2.57,8.35-.35,2.31-1.63,4.38-3.54,5.73-.74.53-1.5.91-2.34,1.24-1.71-.26-11.97-2.27-13.18-2.9-4.16-.82-8.61-.86-11-4.65Z"/>
        <path class="cls-8" d="M24.24,18.4c-.31-.33-.66-1.04-.85-1.46-2.19-4.91.12-10.35,5.02-12.42,5.59-2.37,10.77-1.19,16.16.8-.9,2.02-16.38,11.55-19.07,13.33-.13.09-1.05-.18-1.26-.24Z"/>
        <path class="cls-8" d="M51.73,10.62c1.86,2.52,3.06,5.11,2.57,8.35-.35,2.31-1.63,4.38-3.54,5.73-.74.53-1.5.91-2.34,1.24-1.71-.26-11.97-2.27-13.18-2.9l.27-.19c-.45-.22-.32-.07-.55-.41.72-.84,5.48-4.03,6.65-4.83l10.12-7Z"/>
        <path class="cls-7" d="M32.8,23.21c2.41.32,5.16.95,7.48,1.69.17.48-.03.86-.17,1.33-1.69.03-5.52-1.1-7.24-1.63-.31-.42-.13-.89-.07-1.4Z"/>
        <path class="cls-4" d="M.32,38.38c.13-.98-.21-2.47.5-3.17,2.11,3.95,6.36,6.17,10.49,7.44.24-.18.33-.19.43-.48.07-.18.13-.31.26-.46l.12.07.27-.47c3.82.24,7.52,1.87,11.43,2.01l-.18.14-.16,1.45.26.21c5.82.97,14.63-.4,20.09-2.46,3.55-1.34,6.95-3.27,8.57-6.87l.65.53c0,2.68-.27,4.47-2.25,6.48-5.29,5.36-16.3,6.64-23.42,6.62-7.59-.03-19.51-1.76-25.12-7.45-.93-.95-1.87-2.22-1.95-3.59Z"/>
        <path class="cls-5" d="M12.13,41.77l.27-.47c3.82.24,7.52,1.87,11.43,2.01l-.18.14-.58.64c-.9.23-1.95.02-2.86-.11-1.69-.25-7.03-.81-8.08-2.22Z"/>
        <path class="cls-5" d="M11.66,43.87c2.39.87,5.13,1.7,7.66,1.96,1.28.13,2.63,0,3.89.24l.28.82c-2.57.32-7.17-.64-9.68-1.47-1.07-.35-1.63-.5-2.15-1.54Z"/>
        <path class="cls-6" d="M12.01,41.69l.14-.44c-2.92-2.22-8.75-2.6-9.43-7.64-.12-.85.19-1.82.33-2.66h.15c.06.67-.21,1.08-.25,1.69-.12,1.53,1.34,3.44,2.44,4.37,6.27,5.3,20.02,6.51,27.87,5.77,4.47-.42,12.54-2,15.52-5.62.65-.79,1.28-1.69,2.02-2.4.05,1.07-.8,1.98-1.5,2.72-4.38,4.68-13.34,5.87-19.38,6-2.02.04-4.09,0-6.1-.17-3.91-.15-7.6-1.77-11.43-2.01l-.27.47-.12-.07Z"/>
        <path class="cls-6" d="M17.28,25.35c2.57-.24,6.5.3,8.56,1.91.87.68,1.52,1.65,1.64,2.77.13,1.26-.38,2.43-1.17,3.39-2.51,3.08-6.53,4.08-10.3,4.44-2.45.27-6.24-.56-8.23-1.95-.99-.69-1.8-1.71-1.98-2.92-.18-1.17.26-2.28.97-3.19,2.42-3.08,6.81-4.04,10.51-4.44Z"/>
        <path class="cls-3" d="M16.73,25.98c2.54-.33,6.35.08,8.46,1.55.87.6,1.55,1.49,1.7,2.56.13,1.02-.25,2.02-.85,2.83-2.06,2.82-5.9,3.89-9.19,4.38-2.71.24-6.11-.11-8.44-1.6-.91-.59-1.76-1.49-1.94-2.6-.18-1.07.18-2.05.82-2.9,2.1-2.77,6.14-3.8,9.44-4.2Z"/>
        <path class="cls-6" d="M36.43,28.7c2.83-.2,6.1.26,8.61,1.65,1.06.58,2.1,1.49,2.42,2.71.24.91.07,1.8-.4,2.6-1.5,2.61-5.07,3.63-7.79,4.37-3.02.53-6.59.44-9.21-1.37-1.03-.71-1.86-1.72-2.06-2.97-.18-1.11.22-2.2.87-3.1,1.75-2.41,4.75-3.4,7.56-3.88Z"/>
        <path class="cls-1" d="M35.77,29.37c2.83-.26,5.52-.14,8.15,1.09,1.21.57,2.51,1.44,2.94,2.78.23.73.13,1.48-.23,2.14-1.29,2.38-4.67,3.39-7.1,4.09-2.76.58-5.95.57-8.47-.85-1.05-.59-2.03-1.51-2.33-2.72-.24-.94-.01-1.91.48-2.73,1.36-2.25,4.17-3.18,6.57-3.8Z"/>
      </g>
    </g>
  </g>
</svg>