<?xml version="1.0" encoding="UTF-8"?>
<svg id="Camada_2" data-name="Camada 2" xmlns="http://www.w3.org/2000/svg" xmlns:xlink="http://www.w3.org/1999/xlink" viewBox="0 0 42.73 71.12">
  <defs>
    <style>
      .cls-1 {
        fill: #f7ae7e;
      }

      .cls-2 {
        fill: #e1a45e;
      }

      .cls-3 {
        fill: #7d501a;
      }

      .cls-4 {
        fill: #f0edec;
      }

      .cls-5 {
        fill: #fad4ba;
      }

      .cls-6 {
        fill: #f5bd47;
      }

      .cls-7 {
        fill: #fbfcfd;
      }

      .cls-8 {
        fill: #f3a894;
      }

      .cls-9 {
        fill: #f5aca7;
      }

      .cls-10 {
        fill: #e9c07a;
      }

      .cls-11 {
        fill: #f8b583;
      }

      .cls-12 {
        fill: url(#Gradiente_sem_nome_3);
      }

      .cls-13 {
        fill: #cbc4b9;
      }

      .cls-14 {
        fill: #f7d4db;
      }
    </style>
    <linearGradient id="Gradiente_sem_nome_3" data-name="Gradiente sem nome 3" x1="15.41" y1="-870.88" x2="28.87" y2="-915.39" gradientTransform="translate(0 -846.79) scale(1 -1)" gradientUnits="userSpaceOnUse">
      <stop offset="0" stop-color="#fae6e4"/>
      <stop offset="1" stop-color="#fcfefe"/>
    </linearGradient>
  </defs>
  <g id="Page-3">
    <g id="_Camada_" data-name="&amp;lt;Camada&amp;gt;">
      <g>
        <path class="cls-12" d="M9.08,5.1c1.85,1.53,5.32,4.32,6.01,6.53l-.25.29c-1.7-1.13-6.23-5.73-6.27-7.87-.1-3.44,6.41-3.68,8.87-3.88,3.83-.31,13.91-.52,16.58,2.43.42.97.18,1.8.03,2.85-.77-.3-.91-.36-1.73-.35-2.54.34-4.14.45-6.7.51-.01,1.77.05,5.51-.18,7.1,1.04-.05,2.27-.25,3.11.3,1.41,1.53.64,5.32.72,7.51.43,1.9.29,1.63,2.1,2.83,2.09,1.38,7.18,3.62,8.76,5.4,1.14.72,2.1,1.4,2.34,2.84.69,4.15-.11,16.22-.98,20-.11,2.45-.31,5.05-.83,7.44-.29,2.77-.25,8.18-2.56,9.98-3.54,2.75-23.98,2.28-28.86,1.47-1.55-.26-4.15-.78-5.18-2.12-1.39-1.81-1.62-5.17-1.77-7.39C1.2,57.93-.31,35.57.05,31.87c1.22-2.98,10.81-9.18,13.68-9.64.23-1.91.21-7.41.28-9.55,1.49-.14,2.04.25,3.54-.05.6-.59.41-.61.42-1.67-.17-1.38-.15-3.73-.18-5.19-2.91-.18-5.81-.4-8.71-.68Z"/>
        <path class="cls-9" d="M22.98,24.06c.92-.05,1.95-.17,2.88-.25,2.39,2.8,4.5,4.97,7.5,7.17,2.03.82,3,1.22,4.9,2.33-.11,6.72-1.41,23.73-3.43,29.86-6.39-.39-12.67-.73-19.08-.44-.75.04-1.72.09-2.45.06-.29-.11-.21-.1-.45-.15-.99-.21-1.61-.3-2.36-1.03l-.64.13c-.67-.81-.75-2.24-.92-3.26-.65-8.2,1.31-19.98,5.28-27.14l.06.5c.23-.14.25-.4.37-.73l.07.26c.7-1.05,3.98-6.69,3.85-7.31h4.43Z"/>
        <path class="cls-14" d="M22.98,24.06c.92-.05,1.95-.17,2.88-.25,2.39,2.8,4.5,4.97,7.5,7.17-5.22.38-11.71.9-16.89.41.19-.75,2.87-5.74,3.5-7.06.91,0,2.27.11,3.02-.28Z"/>
        <path class="cls-5" d="M18.55,24.05h4.43c-.75.39-2.12.28-3.02.28-.63,1.32-3.3,6.31-3.5,7.06-2.09.06-3.01,4.05-3.58,5.76-2.47,7.49-4.07,16.64-2.41,24.46l-.64.13c-.67-.81-.75-2.24-.92-3.26-.65-8.2,1.31-19.98,5.28-27.14l.06.5c.23-.14.25-.4.37-.73l.07.26c.7-1.05,3.98-6.69,3.85-7.31Z"/>
        <path class="cls-10" d="M9.08,5.1c1.85,1.53,5.32,4.32,6.01,6.53l-.25.29c-1.7-1.13-6.23-5.73-6.27-7.87-.1-3.44,6.41-3.68,8.87-3.88,3.83-.31,13.91-.52,16.58,2.43.42.97.18,1.8.03,2.85-.77-.3-.91-.36-1.73-.35-2.54.34-4.14.45-6.7.51-.01,1.77.05,5.51-.18,7.1,1.04-.05,2.27-.25,3.11.3,1.41,1.53.64,5.32.72,7.51-.06,1.38.17,1.43-.51,2.38l-1.51.63-1.39.27c-.93.08-1.96.2-2.88.25h-4.43c-.78-.08-2.02-.39-2.83-.57-1.01-.35-1.26-.4-1.98-1.25.23-1.91.21-7.41.28-9.55,1.49-.14,2.04.25,3.54-.05.6-.59.41-.61.42-1.67-.17-1.38-.15-3.73-.18-5.19-2.91-.18-5.81-.4-8.71-.68Z"/>
        <path class="cls-3" d="M17.98,10.97c.06-1.46.08-3.65.31-5.03.45,2.75.18,5.03.47,7.28,1.92.12,4.03.06,5.97.05,0-2.47-.08-5.62.21-8.01.83,1.26.16,5.44.49,7.46,1.04-.05,2.27-.25,3.11.3,1.41,1.53.64,5.32.72,7.51-.06,1.38.17,1.43-.51,2.38l-1.51.63-1.39.27c-.93.08-1.96.2-2.88.25h-4.43c-.78-.08-2.02-.39-2.83-.57-1.01-.35-1.26-.4-1.98-1.25.23-1.91.21-7.41.28-9.55,1.49-.14,2.04.25,3.54-.05.6-.59.41-.61.42-1.67Z"/>
        <path class="cls-6" d="M14.66,13.33c4.86,1.01,8.98.99,13.83-.06-.04,3.01,0,6.02.09,9.02-3.58,1.93-10.14,1.14-13.95.15l.03-9.12Z"/>
        <path class="cls-6" d="M18.72,4.99c1.47-.01,5.04-.18,6.22.27-.29,2.39-.21,5.54-.21,8.01-1.94,0-4.05.07-5.97-.05.04-2.68-.03-5.54-.04-8.24Z"/>
        <path class="cls-4" d="M18.23,2.02c4.72-.36,10.36-.22,14.69,1.87-2.65.29-5.31.52-7.98.69-5.16.05-10.39.07-15.5-.73,2.94-1.11,5.66-1.58,8.78-1.84Z"/>
        <path class="cls-10" d="M4.06,55.66c.82,3.79,1,7.75,1.66,11.58l1.19-.52.32,1.01c8.14-2.12,15.75-2.54,24.05-1.05,1.25.35,2.6.87,3.9.74.29-.21.54-.37.74-.68l.36.33,1.12-.53c.16-3.12.46-6.37,1.01-9.45l.04.31c.19,1.77-.73,6.66.25,7.85,1.26-1.87.81-4.36,1.99-6.2-.29,2.77-.25,8.18-2.56,9.98-3.54,2.75-23.98,2.28-28.86,1.47-1.55-.26-4.15-.78-5.18-2.12-1.39-1.81-1.62-5.17-1.77-7.39,1.03,1.56,1.01,3.5,1.6,5.24l.23.05c.54-3.4-.37-6.96-.09-10.37l.02-.25Z"/>
        <path class="cls-7" d="M7.22,67.73c8.14-2.12,15.75-2.54,24.05-1.05,1.25.35,2.6.87,3.9.74.29-.21.54-.37.74-.68l.36.33,1.12-.53c-.57,1.05-1.3,1.44-2.41,1.77-5.81,1.72-21.48,1.06-27.73.1l-.03-.67Z"/>
        <path class="cls-4" d="M5.71,67.24l1.19-.52.32,1.01.03.67c-.74-.27-1.07-.52-1.54-1.16Z"/>
        <path class="cls-9" d="M6.12,53.35c-.85-5.59-1.58-11.44-2.05-17.08-.07-.85-.07-2.4.59-3,1.92-1.77,7.06-2,9.54-1.93-3.97,7.17-5.93,18.95-5.28,27.14-.16.47-.3.87-.21,1.38.11.58.15,1.14.19,1.73l-.14.06c-.63-1.76-1.51-8.71-2.31-9.57l-.33,1.27Z"/>
        <path class="cls-1" d="M29.26,20.53c.43,1.9.29,1.63,2.1,2.83,2.09,1.38,7.18,3.62,8.76,5.4,1.14.72,2.1,1.4,2.34,2.84.69,4.15-.11,16.22-.98,20-.11,2.45-.31,5.05-.83,7.44-1.17,1.84-.73,4.33-1.99,6.2-.98-1.19-.06-6.08-.25-7.85l-.04-.31c.02-1.85.57-6.26.76-8.35.52-5.72.89-10.87.93-16.63-3.22-2.92-9.19-5.61-12.83-8.57l1.51-.63c.67-.95.45-1,.51-2.38Z"/>
        <path class="cls-11" d="M40.12,28.76c1.14.72,2.1,1.4,2.34,2.84.69,4.15-.11,16.22-.98,20-.65-5.15,1.02-14.9-.07-20.46-.09-.45-.98-1.81-1.29-2.39Z"/>
        <path class="cls-2" d="M.05,31.87c.89-.3,1.22-.5,1.97-1.05l.34.05-.14.24c-1.22,2.14-1.06,6.1.39,8.02.29,4.56,1.39,12.47,1.43,16.53l-.02.25c-.28,3.41.63,6.97.09,10.37l-.23-.05c-.59-1.74-.57-3.67-1.6-5.24C1.2,57.93-.31,35.57.05,31.87Z"/>
        <path class="cls-10" d="M6.9,66.72c7.22-3.66,16.97-3.53,24.69-1.75,1.53.4,3.04.79,4.32,1.77-.2.31-.44.46-.74.68-1.3.13-2.66-.39-3.9-.74-8.3-1.48-15.91-1.07-24.05,1.05l-.32-1.01Z"/>
        <path class="cls-5" d="M31.59,64.97c1.53.4,3.04.79,4.32,1.77-.2.31-.44.46-.74.68-1.3.13-2.66-.39-3.9-.74l1.62-.11.23-.38.1.33.59-.09c-.78-.33-1.64-.59-2.13-1.32-.03-.04-.05-.09-.08-.13Z"/>
        <path class="cls-1" d="M13.74,22.24c.72.86.97.9,1.98,1.25-1.21.1-12.22,7.58-13.36,9.02.02,2.31.11,4.32.26,6.62-1.45-1.92-1.61-5.88-.39-8.02l.14-.24-.34-.05c-.74.56-1.08.75-1.97,1.05,1.22-2.98,10.81-9.18,13.68-9.64Z"/>
        <path class="cls-8" d="M6.12,53.35l.33-1.27c.8.86,1.68,7.81,2.31,9.57l.14-.06c-.04-.59-.09-1.15-.19-1.73-.09-.51.05-.9.21-1.38.17,1.02.24,2.45.92,3.26l.64-.13c.75.73,1.37.82,2.36,1.03.24.05.16.04.45.15-1.76.17-3.44.18-5.2.11-1.01-3.08-1.46-6.35-1.97-9.55Z"/>
        <path class="cls-13" d="M32.31,5.11c.82-.02.96.05,1.73.35-1.72,2.24-4.99,5.72-6.93,7.92.84-2.2,1.47-3.43,3.04-5.25.77-.89,2.19-1.76,2.6-2.7l-.43-.32Z"/>
      </g>
    </g>
  </g>
</svg>