<?xml version="1.0" encoding="UTF-8"?>
<svg id="Camada_2" data-name="Camada 2" xmlns="http://www.w3.org/2000/svg" viewBox="0 0 97.6 90.95">
  <defs>
    <style>
      .cls-1 {
        fill: #6d5ca4;
      }

      .cls-2 {
        fill: #2a140d;
      }

      .cls-3 {
        fill: #1a161f;
      }
    </style>
  </defs>
  <g id="Page-3">
    <g id="_Camada_" data-name="&amp;lt;Camada&amp;gt;">
      <g>
        <path class="cls-1" d="M21.05,36.49c-4.95-1.52-16.87-5.69-20.43-9.74-.7-.79-.76-2.86-.4-3.89C3.72,12.87,10.7,5.23,19.4,0c1.55,1.33,3.8,3.08,4.73,4.81,3.68,3.4,11.25,15.83,13.4,20.53l-1.37.63-.97,1.23-.94,1.44-.87.67-1.74,1.75-.24.42-1.69,2.08-.82,1.03-1.22,1.34-.7,1.07-.23.56.13,1.16c-1.63-.49-4.15-1.57-5.81-2.21Z"/>
        <path class="cls-1" d="M9.54,25.96l-1.42-1.44.79-.23c.16-2.2.55-2.21,2.69-3.06,1.38-.14,1.42-.09,2.67.61.7-1.38.95-1.44,2.28-2.35,2.8,2.54,11.9,11.14,14.85,11.98l-1.69,2.08-.82,1.03-1.22,1.34-.7,1.07-.23.56.13,1.16c-1.63-.49-4.15-1.57-5.81-2.21-1.92-2.73-10.84-5.43-12.85-8.13l1.11-.38-.32-1.72.56-.3Z"/>
        <path class="cls-1" d="M21.05,36.49c-1.92-2.73-10.84-5.43-12.85-8.13l1.11-.38-.32-1.72.56-.3c2.79,1.71,16.54,9.73,17.42,11.03l-.23.56.13,1.16c-1.63-.49-4.15-1.57-5.81-2.21Z"/>
        <path class="cls-1" d="M21.05,36.49c-1.92-2.73-10.84-5.43-12.85-8.13l1.11-.38c5.76,3.28,11.57,6.46,17.43,9.56l.13,1.16c-1.63-.49-4.15-1.57-5.81-2.21Z"/>
        <path class="cls-1" d="M14.26,21.84c.7-1.38.95-1.44,2.28-2.35,2.8,2.54,11.9,11.14,14.85,11.98l-1.69,2.08c-5.05-4.24-10.11-7.84-15.44-11.71Z"/>
        <path class="cls-2" d="M11.6,21.23c1.38-.14,1.42-.09,2.67.61,5.33,3.86,10.38,7.47,15.44,11.71l-.82,1.03c-4.65-4.14-13.32-8.85-17.28-13.35Z"/>
        <path class="cls-2" d="M9.54,25.96l-1.42-1.44.79-.23c4.57,1.83,14.89,8.46,18.75,11.64l-.7,1.07c-.88-1.3-14.64-9.32-17.42-11.03Z"/>
        <path class="cls-1" d="M16.54,19.49c-.97-.93-2.06-1.64-2.37-2.75,1.25.32,1.33.32,2.39,1.03,1.79-.57,2.38-.43,3.42-2.11l-1.14-1.95.24-.43c.7.43,1.24.75,1.91,1.25l3.04-.8c3.23,4.32,7.56,9.36,11.16,13.47l-.94,1.44-.87.67-1.74,1.75-.24.42c-2.95-.84-12.05-9.44-14.85-11.98Z"/>
        <path class="cls-1" d="M19.98,15.66l-1.14-1.95.24-.43c.7.43,1.24.75,1.91,1.25l3.04-.8c3.23,4.32,7.56,9.36,11.16,13.47l-.94,1.44-.87.67c-4.6-4.28-9.07-9.07-13.39-13.65Z"/>
        <path class="cls-2" d="M19.98,15.66l-1.14-1.95.24-.43c.7.43,1.24.75,1.91,1.25,4.45,4.44,9.34,9.23,13.25,14.11l-.87.67c-4.6-4.28-9.07-9.07-13.39-13.65Z"/>
        <path class="cls-2" d="M16.54,19.49c-.97-.93-2.06-1.64-2.37-2.75,1.25.32,1.33.32,2.39,1.03,4.91,4.14,10.68,8.7,15.07,13.28l-.24.42c-2.95-.84-12.05-9.44-14.85-11.98Z"/>
        <path class="cls-2" d="M24.02,13.73c-1.32-1.69-1.93-2.39-2.84-4.36l.43-.85.74-.56c1.88,1.29,2.18,2.28,3.41,3.14.23-2.38-.71-4.09-1.63-6.29,3.68,3.4,11.25,15.83,13.4,20.53l-1.37.63-.97,1.23c-3.6-4.11-7.93-9.16-11.16-13.47Z"/>
        <path class="cls-1" d="M25.76,11.1c.23-2.38-.71-4.09-1.63-6.29,3.68,3.4,11.25,15.83,13.4,20.53l-1.37.63c-.19-3.17-8.11-12.13-10.39-14.87Z"/>
        <path class="cls-1" d="M21.62,8.52l.74-.56c1.88,1.29,2.18,2.28,3.41,3.14,2.28,2.74,10.21,11.7,10.39,14.87-1.16-.41-12.06-14.81-14.54-17.46Z"/>
        <path class="cls-1" d="M47.96,53.95l7.97-8.39c5.86,5.51,39.68,36.52,41.53,41.54.27.74.13,1.43-.28,2.1-.65,1.05-1.56,1.5-2.71,1.76-3.47-.51-41.32-32.56-46.51-37.01Z"/>
        <path class="cls-3" d="M26.73,37.55l.23-.56.7-1.07,1.22-1.34.82-1.03,1.69-2.08.24-.42,1.74-1.75.87-.67.94-1.44.97-1.23,1.37-.63c6.34,6.55,12.47,13.29,18.4,20.21l-7.97,8.39c-6.32-3.76-15.2-10.74-21.1-15.24l-.13-1.16Z"/>
      </g>
    </g>
  </g>
</svg>