<?xml version="1.0" encoding="UTF-8"?>
<svg id="Camada_2" data-name="Camada 2" xmlns="http://www.w3.org/2000/svg" viewBox="0 0 81.45 83.74">
  <defs>
    <style>
      .cls-1 {
        fill: #f0e8dd;
      }

      .cls-2 {
        fill: #f0edec;
      }

      .cls-3 {
        fill: #6f513e;
      }

      .cls-4 {
        fill: #6b6662;
      }

      .cls-5 {
        fill: #88817c;
      }

      .cls-6 {
        fill: #fad4ba;
      }

      .cls-7 {
        fill: #e68e3c;
      }

      .cls-8 {
        fill: #cbc4b9;
      }
    </style>
  </defs>
  <g id="Page-3">
    <g id="_Camada_" data-name="&amp;lt;Camada&amp;gt;">
      <g>
        <path class="cls-7" d="M12.21,16.19c2.35-.97,5.56-4.02,7.88-4.68,9.27-2.64,16.11-2.54,22.3-10.83,2.33-3.12,8.27,5.54,9.13,7.11.25.46,3,1.19,4.03,1.46,4.3.78,6.32,1.13,9.91,3.97.73.58,2.72,2.54,3.26,2.88,8.7,3.45,4.46,5.57,5.35,12.55,2.09,1.28,6.84,3.85,6.88,6.1.13,7.27.99,33.12,0,38.86-8.23,13.6-68.93,13.29-80.71.41-.43-1.84-.24-22.89-.05-25.55.02-3.44-.07-7.22.34-10.61l-.1-.41c-.95-4.53,3.24-6.68,6.88-8l.23-.49-.39-2.79c-.05-2.06.04-4.17.11-6.24,1.95-1.84,2.64-2.31,4.94-3.74Z"/>
        <path class="cls-5" d="M12.21,16.19c2.35-.97,5.56-4.02,7.88-4.68,9.27-2.64,16.11-2.54,22.3-10.83,2.33-3.12,8.27,5.54,9.13,7.11.25.46,3,1.19,4.03,1.46,4.3.78,6.32,1.13,9.91,3.97.73.58,2.72,2.54,3.26,2.88,8.7,3.45,4.46,5.57,5.35,12.55l-.41,1.35c-9.83,9.24-56.42,10.37-66.48.62l.12-1.16.23-.49-.39-2.79c-.05-2.06.04-4.17.11-6.24,1.95-1.84,2.64-2.31,4.94-3.74Z"/>
        <path class="cls-6" d="M12.21,16.19c2.35-.97,5.56-4.02,7.88-4.68,9.27-2.64,16.11-2.54,22.3-10.83,2.33-3.12,8.27,5.54,9.13,7.11.25.46,3,1.19,4.03,1.46,4.3.78,6.32,1.13,9.91,3.97.73.58,2.72,2.54,3.26,2.88l.23,1.12c-2.55,8.62-53.86,8.55-57.69,1.39.3-.87.58-1.57.93-2.41Z"/>
        <path class="cls-7" d="M55.56,9.24c4.3.78,6.32,1.13,9.91,3.97.73.58,2.72,2.54,3.26,2.88l.23,1.12c-.58-.06-1.34-.23-1.93-.34-2.59-4.08-6.94-5.3-11.25-6.73l-.22-.9Z"/>
        <path class="cls-7" d="M47.73,8.44c.55.8.88,1.61,1.08,2.57.22,1.08-.04,2.06-.66,2.95-2.09,2.98-6.9,3.83-10.25,4.58l-.67-.27c.49-1.06,6.45-2.15,8.07-3.58,1.98-1.76,2.23-3.76,2.43-6.25Z"/>
        <path class="cls-7" d="M31,11.68c-.3,1.23-2.15,2.11-3.14,2.74l-.06-.75c.74-1.34,1.82-1.44,3.2-1.99Z"/>
        <path class="cls-1" d="M7.16,26.16c17.56,7.8,43.22,7.14,61.73,1.45,1.9-.59,2.24-1.61,4.12-1.49,2.02,12.19-54.13,11.36-61.97,6.01-2.03-1.39-1.83-1.13-3.48-3.17l-.39-2.79Z"/>
        <path class="cls-1" d="M70.82,17.79c.96.73,2.05,1.59,2.5,2.76.38.99.44,1.78-.02,2.73-.93,1.91-4.1,2.93-5.97,3.54-14.85,4.85-43.98,6.12-58.1-1.14-.56-.55-.84-1.28-1.18-1.98,0-1.49.27-2.48.81-3.85.3-.14.56-.42.89-.43.32-.01,6.05,3.43,8.17,3.76,13.46,2.04,27.83,2.43,41.27.12,4.36-.75,8.97-1.72,11.65-5.51Z"/>
        <path class="cls-2" d="M1.09,65.14c18.72,9.81,60.9,10.95,79.17-.28.45,2.76.34,5.61.32,8.41l.4.34c-8.23,13.6-68.93,13.29-80.71.41l.82-.64c.22-3.32.26-4.85.02-8.24Z"/>
        <path class="cls-4" d="M80.57,73.27l.4.34c-8.23,13.6-68.93,13.29-80.71.41l.82-.64c11.74,12.44,65.49,11.23,79.5-.11Z"/>
        <path class="cls-1" d="M.44,37.44c-.95-4.53,3.24-6.68,6.88-8l-.12,1.16c10.06,9.75,56.66,8.62,66.48-.62,2.3,1.55,5.17,3.47,6.66,5.86-12.28,11-67.75,11.58-79.59.59l-.32,1.01Z"/>
        <path class="cls-8" d="M.44,37.44c-.95-4.53,3.24-6.68,6.88-8l-.12,1.16c-2.74,1.3-5.44,2.74-6.44,5.83l-.32,1.01Z"/>
        <path class="cls-3" d="M80.35,35.85c.36.3.39.21.5.55-5.17,7.25-24.58,7.39-32.49,8.88-15.8.17-26.78.12-42.41-4.29-1.93-1.01-3.54-1.98-5.41-3.13l-.1-.41.32-1.01c11.84,10.99,67.31,10.41,79.59-.59Z"/>
        <path class="cls-8" d="M74.09,28.64c2.09,1.28,6.84,3.85,6.88,6.1.13,7.27.99,33.12,0,38.86l-.4-.34c.02-2.8.14-5.65-.32-8.41,1.12-1.85.58-24.46.6-28.46-.11-.34-.14-.25-.5-.55-1.49-2.39-4.36-4.31-6.66-5.86l.41-1.35Z"/>
        <path class="cls-1" d="M64.71,46.41l.64.53c1.14,5.77.28,14.34.29,20.42-15.3,3.65-30.85,3.43-46.3.87l-.8-.66c-1.77-4.66-.5-15.31-.39-20.54,15.82,1.75,30.81,1.73,46.57-.63Z"/>
        <path class="cls-7" d="M57.56,52.84c.57-.16.95-.05,1.52.08l-.13.63c-8.91,3.43-21.96,1.75-31.4,1.31-1.12-.23-1.57-.24-2.46-1l.47-.57c10.74.23,21.29.55,32.01-.45Z"/>
        <path class="cls-7" d="M52.75,63.68c1.61-.22,3.33-.62,4.9-.11l-.35.69c-6.51,2.91-20.25,1.7-27.42,1.02-1.41-.07-2.38-.25-3.64-.87.49-.37,22.97-.48,26.51-.73Z"/>
      </g>
    </g>
  </g>
</svg>