<?xml version="1.0" encoding="UTF-8"?>
<svg id="Camada_2" data-name="Camada 2" xmlns="http://www.w3.org/2000/svg" viewBox="0 0 43.45 69.11">
  <defs>
    <style>
      .cls-1 {
        fill: #302e2c;
      }

      .cls-2 {
        fill: #f0e8dd;
      }

      .cls-3 {
        fill: #f0edec;
      }

      .cls-4 {
        fill: #88817c;
      }

      .cls-5 {
        fill: #6d5ca4;
      }

      .cls-6 {
        fill: #fbfcfd;
      }

      .cls-7 {
        fill: #1a161f;
      }

      .cls-8 {
        fill: #f7d4db;
      }
    </style>
  </defs>
  <g id="Page-3">
    <g id="_Camada_" data-name="&amp;lt;Camada&amp;gt;">
      <g>
        <path class="cls-6" d="M19.04,16.73c5.42,1.99,7.76.75,10.69,7.33,4.48,10.06,9.03,20.15,13.4,30.24.44,1.01.41,2.89.04,3.91-.95,3.29-7.1,6.17-10.08,7.63-3.33,1.63-10.05,4.25-13.62,2.89-2.29-.87-2.79-2.57-3.75-4.68l-9.07-20.35c-1.56-3.51-3.53-7.49-4.61-11.14-.73-2.49,1.11-8.08,3.37-9.51l-.17-.22c4.9-.48,9.54-2.45,13.28-5.65l.51-.48Z"/>
        <path class="cls-2" d="M6.03,34.41c7.36-1.08,14.73-5.17,20.88-9.15l1.59,3.57c1.47,3.17,11.11,23.84,11.43,25.9-1.19-1.88-2-4.24-2.9-6.28-5.89,4.51-13.31,8.3-20.77,9.05-2.95-6.4-5.81-12.83-8.59-19.3-.63-1.31-1.09-2.45-1.63-3.8Z"/>
        <path class="cls-5" d="M6.03,34.41c7.36-1.08,14.73-5.17,20.88-9.15l1.59,3.57c-5.27,4.57-14.02,8.07-20.84,9.38-.63-1.31-1.09-2.45-1.63-3.8Z"/>
        <path class="cls-3" d="M5.24,22.85c4.9-.48,9.54-2.45,13.28-5.65l.06.47-.39.61c1.25,2.19,6.54,2.28,8.71,6.97-6.15,3.98-13.51,8.07-20.88,9.15-2.04-5.53.9-7.26.86-10.47l-.38-.35-.89.05-.21-.57-.17-.22Z"/>
        <path class="cls-5" d="M16.25,57.51c7.46-.75,14.89-4.54,20.77-9.05.9,2.04,1.72,4.4,2.9,6.28-.12.14-.24.28-.36.41-4,4.46-14.25,8.66-20.19,8.94-1.15-2.12-2.1-4.4-3.13-6.59Z"/>
        <path class="cls-4" d="M19.04,16.73c5.42,1.99,7.76.75,10.69,7.33,4.48,10.06,9.03,20.15,13.4,30.24.44,1.01.41,2.89.04,3.91-.95,3.29-7.1,6.17-10.08,7.63-3.33,1.63-10.05,4.25-13.62,2.89-2.29-.87-2.79-2.57-3.75-4.68l-9.07-20.35c-1.56-3.51-3.53-7.49-4.61-11.14-.73-2.49,1.11-8.08,3.37-9.51l.21.57c-.89,1.58-1.83,3.22-2.26,4.99-.43,1.78-.41,3.52.12,5.28,1.31,4.42,4.33,9.85,6.28,14.22,2.41,5.41,5.2,13.22,8.15,18.02.63,1.04,1.16,1.46,2.35,1.74,4.95,1.16,13.71-3.41,17.87-6.03,1.93-1.22,3.98-2.87,4.45-5.24.32-1.62-13.55-32.37-15.49-35.21-1.74-2.54-5.67-3.19-8.5-3.76l-.06-.47.51-.48Z"/>
        <path class="cls-7" d="M2.41,11.13C1.64,9.5-.1,6.32,0,4.65.47,3.27,2.96,1.68,4.2.95c5.26-3.11,6.05,2.19,7.93,5.49.88.56.63.39,1.85.3.74.16,1.16.15,1.58.97.96,1.89,3.77,7.15,3.48,9.02l-.51.48c-3.75,3.2-8.38,5.17-13.28,5.65-1.82-.72-3.96-7.3-4.75-9.35.35-1.01,1.14-1.63,1.92-2.38Z"/>
        <path class="cls-1" d="M2.41,11.13C1.64,9.5-.1,6.32,0,4.65.47,3.27,2.96,1.68,4.2.95c5.26-3.11,6.05,2.19,7.93,5.49.88.56.63.39,1.85.3l.09.36c-1.98.98-3.4,2.7-5.57,3.74-2.39,1.13-5.96.78-7.58,2.72l-.43-.05c.35-1.01,1.14-1.63,1.92-2.38Z"/>
        <path class="cls-8" d="M3.44,2.36c.37-.17.73-.34,1.1-.51,1.12-.5,2.45-1.13,3.67-.58,1.81.81,2.94,4.86,3.71,6.62l-2.75,1.7c-1.85.87-3.74,1.47-5.69,2.07-.77-1.84-2.9-4.93-2.52-6.88.24-1.25,1.5-1.82,2.49-2.42Z"/>
        <path class="cls-5" d="M.92,13.55c1.61-1.94,5.19-1.59,7.58-2.72,2.18-1.04,3.6-2.75,5.57-3.74l.36.65c-1.18,2.71-10.84,6.83-13.51,5.81Z"/>
      </g>
    </g>
  </g>
</svg>