<?xml version="1.0" encoding="UTF-8"?>
<svg id="Camada_2" data-name="Camada 2" xmlns="http://www.w3.org/2000/svg" xmlns:xlink="http://www.w3.org/1999/xlink" viewBox="0 0 78.82 128.46">
  <defs>
    <style>
      .cls-1 {
        fill: #6485a9;
      }

      .cls-2 {
        fill: url(#Gradiente_sem_nome_19);
      }

      .cls-3 {
        fill: #a8a2ad;
      }

      .cls-4 {
        fill: #1d60a9;
      }

      .cls-5 {
        fill: #fbfcfd;
      }

      .cls-6 {
        fill: url(#Gradiente_sem_nome_20);
      }

      .cls-7 {
        fill: #1a161f;
      }

      .cls-8 {
        fill: #4373a9;
      }
    </style>
    <linearGradient id="Gradiente_sem_nome_20" data-name="Gradiente sem nome 20" x1="41.9" y1="-715.92" x2="-18.11" y2="-724.15" gradientTransform="translate(661.28 -349.45) rotate(58.35) scale(1 -1)" gradientUnits="userSpaceOnUse">
      <stop offset="0" stop-color="#6183a9"/>
      <stop offset="1" stop-color="#dbdae1"/>
    </linearGradient>
    <linearGradient id="Gradiente_sem_nome_19" data-name="Gradiente sem nome 19" x1="35.83" y1="-773.66" x2="42.49" y2="-756.62" gradientTransform="translate(661.28 -349.45) rotate(58.35) scale(1 -1)" gradientUnits="userSpaceOnUse">
      <stop offset="0" stop-color="#1d60a9"/>
      <stop offset="1" stop-color="#4373a9"/>
    </linearGradient>
  </defs>
  <g id="Page-3">
    <g id="_Camada_" data-name="&amp;lt;Camada&amp;gt;">
      <g>
        <path class="cls-7" d="M50.51,49.84c3.74-5.5,23.5-38.82,27.5-39.18l.81.97-.26.85c-1.38,10.13-14.01,34.73-19.27,44.37-9.65,17.69-7.48,15.46-7.46,35.23,1.87.87,3.55,1.76,5.25,3.05,10.99,8.38,7.34,31.95-7.65,33.28-14.91,1.12-16.95-16.64-11.69-26.8,3-5.8,8.15-7.64,7.08-15.27-.54-3.85-1.29-8.71-4.38-11.42l-1.12.08c-12.64,9.45-8.37,12.16-10.95,25.43-.87,4.09-5.51,10.12-9.63,11.7-21.82,8.33-24.61-23.14-8.26-31.1,5.02-2.44,8.74-1.98,13.98-.24,2.27-2.25,10.77-11.67,11.93-14.59,3.55-8.86,7.23-63.83,15.24-65.29,1.92,2.34.94,13.15.78,16.8-.54,10.71-1.17,21.42-1.9,32.13Z"/>
        <path class="cls-6" d="M76.82,11.95l.96.81c-4.06,11.86-9.01,23.39-14.81,34.5-2.78,5.38-10.34,18.86-11.8,23.75l-.2.65c-.57,2.87-.58,4.16-.64,7.12l-.91.83c.29,1.79-.66,2.42-1.78,3.63l-.62.02c-.06-3.02-1.19-3.94-3.02-6.2-1.29-2.28-3.57-3.99-4.51-6.51-2.44-6.55,5.94-50.63,8.17-59.48.98-3.91,2.16-7.42,3.91-11.05.55,9.72-.74,25.32-1.33,35.44l-.03.68c-.4,6.92-.96,13.83-1.69,20.73,2.63-6.63,7.49-13.42,11.41-19.48,5.45-8.59,11.08-17.07,16.88-25.43Z"/>
        <path class="cls-7" d="M48.73,61.58c1.04.96,1.47,2.4,1.15,3.77-.33,1.37-1.37,2.46-2.73,2.84-1.36.38-2.81,0-3.81-.99-1.5-1.5-1.52-3.92-.05-5.45,1.47-1.53,3.89-1.6,5.45-.17Z"/>
        <path class="cls-3" d="M47.02,61.93c.89.33,1.54,1.12,1.67,2.06.14.94-.25,1.88-1.02,2.46-.76.57-1.78.68-2.64.28-1.27-.58-1.85-2.06-1.32-3.36.53-1.29,1.99-1.93,3.3-1.45Z"/>
        <path class="cls-4" d="M51.04,96.94c3.32.85,5.77,2.35,7.52,5.4,1.88,3.29,1.61,7.68.59,11.19-1.11,3.83-3.24,7.47-6.81,9.46-2.22,1.23-4.99,1.93-7.47,1.1-2.11-.71-3.4-2.56-4.27-4.5-1.23-2.72-1.35-5.27-1.42-8.2l.09-.67c1.04-5.78,2.88-9.47,7.68-13.04l4.09-.73Z"/>
        <path class="cls-5" d="M55.35,100.23c.97,1.41,1.84,2.77,2.32,4.42,1.26,4.35.51,9.61-1.75,13.51-1.31,2.26-3.18,4.1-5.76,4.77-2.82.73-5.06-.22-7.42-1.69-.96-1.23-1.55-2.68-1.94-4.19-1.13-4.42-.16-9.87,2.15-13.77,1.31-2.21,3.19-4.2,5.78-4.79,2.62-.59,4.48.33,6.61,1.73Z"/>
        <path class="cls-4" d="M54.45,94.8c3.7,1.72,5.86,5.16,7.32,8.79,6.4,16-16.88,35.63-24.67,14.86-2.63-7,1.16-16.26,5.69-21.93.58.72,1.1,1.36,1.84,1.92l2.32-.78c-4.8,3.57-6.64,7.27-7.68,13.04l-.09.67c.07,2.93.19,5.48,1.42,8.2.87,1.94,2.16,3.79,4.27,4.5,2.47.83,5.25.13,7.47-1.1,3.57-1.99,5.7-5.63,6.81-9.46,1.02-3.51,1.3-7.9-.59-11.19-1.75-3.05-4.2-4.55-7.52-5.4,1.06-.8,2.27-1.45,3.41-2.14Z"/>
        <path class="cls-8" d="M51.07,92.05c.86,1.59,1.81,1.91,3.38,2.75-1.14.69-2.35,1.34-3.41,2.14l-4.09.73-2.32.78c-.74-.56-1.26-1.2-1.84-1.92,2.55-2.67,3.1-4.91,3.49-8.5.71.16,1.44.32,2.11.59,1.53.59,2.03,2.06,2.68,3.45Z"/>
        <path class="cls-1" d="M50.33,78.78c.33,4.42.57,8.84.73,13.27-.65-1.38-1.15-2.86-2.68-3.45-.68-.26-1.41-.43-2.11-.59-.2-4.46-.75-6.87-2.27-10.97,1.83,2.26,2.96,3.18,3.02,6.2l.62-.02c1.12-1.2,2.07-1.84,1.78-3.63l.91-.83Z"/>
        <path class="cls-4" d="M37.23,67.42c.24,2.33.66,4.15,1.67,6.27-4.76,4.06-9.54,7.57-10.11,14.26-.33,3.84-.03,7.62-1.25,11.33-.03.08-.05.17-.08.25l-.14.7-1.29,2.5c-2.17,4.24-5.24,7.5-9.88,8.98-1.84.6-3.78.76-5.7.49l-.86-.21c-2.23-.5-4.04-1.61-5.52-3.34-2.41-2.81-3.05-6.71-2.75-10.3.43-5.34,2.84-11.09,7.02-14.55,2.76-2.29,6.36-3.52,9.94-3.19,1.35-.05,2.76.18,4.11.32.92.4,1.44.84,2.46.44,3.83-1.51,9.54-10.55,12.39-13.95Z"/>
        <path class="cls-4" d="M9.58,112c-2.23-.5-4.04-1.61-5.52-3.34-2.41-2.81-3.05-6.71-2.75-10.3.43-5.34,2.84-11.09,7.02-14.55,2.76-2.29,6.36-3.52,9.94-3.19.09.92.25,1.91.14,2.83-4.16.12-7.48,1-10.41,4.16-2.85,3.08-4.13,7.5-3.92,11.64.16,3.17,1.28,6.21,3.73,8.31,1.72,1.47,3.98,2.27,6.24,2.04,3.07-.33,5.98-2.88,7.76-5.24.19-.25.37-.5.55-.75,1.47-.92,1.98-.87,3.66-.86-2.17,4.24-5.24,7.5-9.88,8.98-1.84.6-3.78.76-5.7.49l-.86-.21Z"/>
        <path class="cls-2" d="M37.23,67.42c.24,2.33.66,4.15,1.67,6.27-4.76,4.06-9.54,7.57-10.11,14.26-.33,3.84-.03,7.62-1.25,11.33-.03.08-.05.17-.08.25l-.14.7-1.29,2.5c-1.67,0-2.19-.06-3.66.86.92-1.55,1.79-3.25,2.39-4.95,1.56-4.4.85-8.06-1.06-12.18l-1.32-5.54c.92.4,1.44.84,2.46.44,3.83-1.51,9.54-10.55,12.39-13.95Z"/>
        <path class="cls-8" d="M22.39,80.94l1.32,5.54c-1.72-1.37-3.19-2.36-5.29-3.03.12-.91-.05-1.91-.14-2.83,1.35-.05,2.76.18,4.11.32Z"/>
        <path class="cls-5" d="M21.36,86.01c.9,1.1,1.72,2.23,2.22,3.57,1.3,3.46.45,7.89-1.1,11.11-1.49,3.09-3.91,5.94-7.25,7.07-2.87.97-5,.22-7.59-1.1-.72-.93-1.33-1.91-1.77-3.01-1.35-3.36-.78-7.79.6-11.04,1.34-3.16,3.67-6.05,6.96-7.28,2.88-1.08,5.22-.54,7.93.67Z"/>
      </g>
    </g>
  </g>
</svg>