<?xml version="1.0" encoding="UTF-8"?>
<svg id="Camada_2" data-name="Camada 2" xmlns="http://www.w3.org/2000/svg" viewBox="0 0 36.58 57.92">
  <defs>
    <style>
      .cls-1 {
        fill: none;
        stroke: #042122;
        stroke-linecap: round;
        stroke-linejoin: round;
      }

      .cls-2 {
        fill: #f18853;
      }
    </style>
  </defs>
  <g id="Page-3">
    <g id="_Camada_" data-name="&amp;lt;Camada&amp;gt;">
      <g>
        <path class="cls-2" d="M11.92,23.6c1.12-6.86-6.23-10.79-11.92-12.27,5.85.51,11.27,4.44,13.57,9.84-1.7-6.92-1.72-14.25-.04-21.18-.25,7.24.38,14.51,1.85,21.6.66-6.59,4.57-12.77,10.25-16.18-3.5,4.75-5.89,10.31-6.93,16.12,4.07-5.14,12.47-9.39,17.88-3.96-5.09.09-10.16,1.6-14.47,4.31,6.83,2.53,13,7.86,13.47,15.55.45,7.55-1.4,18.96-10.54,19.98C15.31,59.36-.02,55.91.21,43.71c-.76-7.95,3.07-18.67,11.71-20.11Z"/>
        <g>
          <path class="cls-1" d="M13.66,23.7c-5.71,5.66-8.6,14.04-7.6,22.01.22,1.75.62,3.49,1.43,5.05.8,1.55,2.01,2.88,3.46,3.85"/>
          <path class="cls-1" d="M17.53,24.41c-2.52,9.5-2.51,19.65.03,29.15"/>
          <path class="cls-1" d="M21.08,24.38c2.03,2.02,3.02,4.86,3.7,7.65,1.75,7.26,1.76,14.93.03,22.2"/>
          <path class="cls-1" d="M27.32,26.65c3.84,3.31,5.91,8.57,5.36,13.6"/>
          <path class="cls-1" d="M3.76,32.23c-2.22,5.46-2.29,11.75-.19,17.26"/>
        </g>
      </g>
    </g>
  </g>
</svg>