<?xml version="1.0" encoding="UTF-8"?>
<svg id="Camada_2" data-name="Camada 2" xmlns="http://www.w3.org/2000/svg" viewBox="0 0 73.88 54.25">
  <defs>
    <style>
      .cls-1 {
        fill: #f7b27f;
      }

      .cls-2 {
        fill: #844313;
      }

      .cls-3 {
        fill: #fff;
        opacity: .28;
      }

      .cls-4 {
        fill: none;
        stroke: #042122;
        stroke-linecap: round;
        stroke-linejoin: round;
      }
    </style>
  </defs>
  <g id="Page-3">
    <g id="_Camada_" data-name="&amp;lt;Camada&amp;gt;">
      <g>
        <g>
          <path class="cls-2" d="M19,5.42c-.21-1.92-.5-4.03-1.72-5.42,3.09,1.74,6.57,2.18,9.65,1.23-1.81,3.14-1.8,7.8.02,11.39.08.16-3.06.54-3.3.53-1.13-.06-2.24-.83-3.37-.86-6.26-.2-.97-3.92-1.28-6.86Z"/>
          <path class="cls-1" d="M19.42,33.93c5.29,1.97,10.63-.43,13.31-3.52,1.61-1.86,3.9-4.38,4.27-6.81.92-6.16-.16-8.63-3.78-11.24-2.17-1.57-5.87-1.15-7.53.95.24-1.81-.85-3.72-2.53-4.45-1.68-.72-4.43-.16-5.59,1.26-.76-3.1-4.03-5.21-7.22-5.11-3.19.09-6.13,2.1-7.87,4.76C.73,12.43.06,15.69,0,18.88c-.02,1.35.06,2.72.38,4.03,1.13,4.56,5.44,8.12,10.13,8.38.15,1.53,2.1,2.81,3.6,3.14,1.76.39,3.65.21,5.31-.5"/>
          <path class="cls-4" d="M17.69,9.12c-6.59,5.24-9.41,14.76-6.73,22.75"/>
          <path class="cls-4" d="M26.05,12.74c2.38,7.26-.13,15.86-6.04,20.71"/>
          <path class="cls-3" d="M8.38,7.21c-.89.19-1.83,1-2.26,1.95-.39.86.25,1.78,1.19,1.8,2.88.06,6.06-4.29,1.06-3.75"/>
          <path class="cls-3" d="M20.42,12.36c-.28.86-.05,2.08.56,2.93.55.76,1.67.67,2.16-.14,1.49-2.46-.69-7.39-2.72-2.79"/>
          <path class="cls-3" d="M30.71,15.46c.27.87,1.15,1.74,2.14,2.08.89.31,1.75-.4,1.69-1.35-.19-2.87-4.79-5.67-3.83-.74"/>
        </g>
        <g>
          <path class="cls-2" d="M52.68,11.9c-1.13-1.02-2.42-2.09-3.86-2.26,2.72-.61,4.99-2.19,6.29-4.37.6,2.79,3.06,5.51,6.02,6.65.13.05-1.5,1.93-1.65,2.05-.69.56-1.75.7-2.43,1.27-3.77,3.19-2.64-1.78-4.37-3.33Z"/>
          <path class="cls-1" d="M67.95,28.35c4.13-1.64,5.99-5.86,5.92-9.08-.04-1.94-.03-4.62-1.1-6.23-2.71-4.09-4.64-4.96-8.14-4.58-2.1.23-4.04,2.42-3.9,4.53-.82-1.19-2.46-1.73-3.82-1.27-1.36.46-2.68,2.24-2.6,3.68-2.08-1.41-5.1-.92-6.92.82-1.81,1.74-2.48,4.45-2.09,6.94.39,2.48,1.71,4.74,3.36,6.63.7.8,1.47,1.56,2.35,2.15,3.06,2.07,7.47,1.88,10.34-.44.89.82,2.71.54,3.76-.06,1.24-.7,2.25-1.8,2.84-3.09"/>
          <path class="cls-4" d="M53.86,14.76c-1.09,6.54,2.28,13.59,8.06,16.85"/>
          <path class="cls-4" d="M60.66,12.46c5.22,2.99,8.29,9.34,7.39,15.29"/>
          <path class="cls-3" d="M47.41,18.55c-.42.58-.54,1.55-.29,2.33.23.71,1.09.91,1.65.42,1.72-1.48,1.29-5.7-1.35-2.75"/>
          <path class="cls-3" d="M57.17,15.22c.29.65,1.07,1.24,1.87,1.42.73.16,1.33-.49,1.19-1.22-.43-2.23-4.3-3.96-3.06-.2"/>
          <path class="cls-3" d="M64.82,11.6c.61.37,1.59.41,2.35.09.68-.29.81-1.16.28-1.68-1.62-1.58-5.79-.79-2.63,1.59"/>
        </g>
        <path class="cls-1" d="M30.48,44.1c3.85,5.13,11.81,6.57,17.21,3.11.94-.6,1.88-1.51,1.78-2.62-.11-1.2-1.39-1.94-2.57-2.17-1.18-.24-2.46-.21-3.5-.82-1.43-.84-1.98-2.6-3-3.9-1.46-1.87-4.07-2.76-6.37-2.18-3.88.98-6.02,5.28-3.55,8.58Z"/>
        <path class="cls-1" d="M9.02,51.64c5.03,3.97,13.1,3.32,17.43-1.4.75-.82,1.43-1.94,1.05-2.99-.41-1.13-1.84-1.51-3.04-1.44-1.2.07-2.43.43-3.59.1-1.6-.44-2.58-2.01-3.9-3-1.89-1.43-4.64-1.63-6.72-.47-3.5,1.95-4.47,6.65-1.23,9.2Z"/>
      </g>
    </g>
  </g>
</svg>