<?xml version="1.0" encoding="UTF-8"?>
<svg id="Camada_2" data-name="Camada 2" xmlns="http://www.w3.org/2000/svg" viewBox="0 0 56.76 43.55">
  <defs>
    <style>
      .cls-1 {
        fill: #427559;
      }

      .cls-2 {
        fill: #251827;
      }
    </style>
  </defs>
  <g id="Page-3">
    <g id="_Camada_" data-name="&amp;lt;Camada&amp;gt;">
      <g>
        <path class="cls-2" d="M21.71,42.58s-.06-.07-.09-.1c-.08-.12-.1-.26-.07-.39,2.38-11.16-8.36-15.65-8.81-15.83-.14-.06-.25-.18-.3-.32-.05-.15-.02-.31.06-.44.38-.58,3.8-5.7,6.72-6,.75-.08,1.41.16,1.94.69,1.67,1.66,3.03,5.63,4.23,9.14.81,2.38,1.58,4.62,2.29,5.71.05.08.08.1.08.1.8-.03,2.97-4.57,4.26-7.29,1.99-4.19,3.28-6.76,4.38-7.28,2.72-1.27,5.59,4.25,5.91,4.88.07.13.07.28.02.42-.05.14-.16.24-.29.3-2.21.87-9.24,10.05-9.4,15.77-.01.39-.19.73-.51.98-1.81,1.43-8.81.08-10.19-.2-.09-.02-.17-.06-.24-.12ZM17.89,28.4c2.94,2.61,5.94,6.95,4.77,13.38,3.07.59,7.79,1.13,8.84.3.11-.09.12-.15.12-.2.15-5.54,6.52-14.52,9.55-16.43-.89-1.6-2.93-4.62-4.32-3.96-.84.4-2.53,3.94-3.89,6.79-2.3,4.82-3.77,7.78-5.14,7.87-.23.02-.66-.04-1-.56-.78-1.2-1.57-3.5-2.41-5.94-1.16-3.4-2.49-7.25-3.99-8.74-.32-.31-.67-.44-1.11-.39-1.86.2-4.43,3.35-5.63,5.05.85.42,2.51,1.34,4.2,2.84Z"/>
        <path class="cls-1" d="M56.71,25c.45-5.27-1.95-7.14-4.54-7.46,1.38-3.53-.2-9.41-5.33-11.22-4.31-1.53-7.15.25-8.37,2.01-1.37-1.17-4.02-2.03-7.25-.67-1.1.46-1.9,1.06-2.47,1.73.96-2.3.89-5.11-2.34-7.31-5.83-3.99-8.11-1.32-8.95.6C13.98-.26,7.35-1.75,3.6,5.88c-1.06,2.16-1.07,3.86-.44,5.16C.1,12.71-1.43,15.88,1.8,20.65c3.11,4.58,6.51,4.64,8.98,3.47-.04,3.81,4.96,8.22,10.7,6.18,4.7-1.67,4.82-5.51,3.83-7.77.47-.1.99-.28,1.54-.53.01.16.02.31.04.47.68,5.15,3.98,5.95,6,5.93-.43,4.29,2.33,10.33,10.77,6.45,2.01-.93,3.22-2.03,3.86-3.18,3.89,1.7,8.55.8,9.19-6.67Z"/>
        <path class="cls-2" d="M37.34,28.89c-.66-.59-1.28-1.38-1.82-2.41-.13-.25-.03-.56.22-.7.25-.13.56-.03.7.22,1.46,2.8,3.57,3.55,5.07,3.05-.13-.1-.25-.21-.37-.33-1.34-1.33-1.07-2.35-.9-2.73.29-.63.99-1,1.73-.94.7.06,1.57.56,1.89,1.77.2.76.02,1.53-.45,2.14.91.31,1.91.27,2.89-.13,1.62-.66,3.38-2.51,3.42-5.73.03-2.04-1.16-3.07-2.17-3.58-.65-.33-1.37-.53-2.06-.61-.14.2-.29.4-.46.59-.92,1.04-2.09,1.58-2.92,1.35-.47-.13-.79-.5-.89-1.01-.09-.49.11-.96.58-1.31.64-.48,1.82-.74,3.11-.69.39-.8.65-1.94.08-3.32-.45-1.08-.95-1.69-1.42-1.73-.63-.04-1.32.91-1.52,1.24-.14.25-.46.33-.7.19-.24-.14-.33-.45-.19-.7.11-.19,1.09-1.85,2.48-1.76.91.06,1.69.85,2.31,2.36.52,1.27.52,2.62.04,3.82.7.12,1.39.33,2.02.65,1.79.91,2.76,2.52,2.73,4.52-.05,3.72-2.13,5.88-4.06,6.67-1.4.57-2.88.53-4.15-.08-.16.1-.34.18-.53.26-1.36.53-3.13.3-4.68-1.08ZM42.43,26.33c-.16-.14-.34-.22-.55-.24-.31-.03-.6.11-.71.35-.17.37.08.96.69,1.56.19.18.38.35.59.49.38-.39.54-.89.41-1.39-.09-.33-.24-.59-.44-.76ZM44.23,18.88c-.79.05-1.45.23-1.79.49-.21.16-.19.26-.19.29.03.17.1.19.15.21.3.08,1.08-.18,1.82-.99Z"/>
        <path class="cls-2" d="M18.37,21.91c-.4-.36-.69-.81-.84-1.33-.08-.27.08-.56.35-.64.27-.08.56.08.64.35.34,1.19,1.68,1.44,2.25,1.5,1.85.19,4.39-.71,5.44-2.74.52-1.01.43-1.83-.28-2.4-.97-.81-2.74-.93-3.97-.36-.58.48-1.05.77-1.25.75-.22-.01-.4-.16-.47-.36-.11-.37.14-.57.53-.87.17-.13.36-.25.55-.35,1.2-1.01,3.36-3.14,3.66-5.28.15-1.07-.18-1.99-1.01-2.81-1.95-1.93-3.71-1.29-4.83-.42-.29.22-.54.46-.77.71.34.48.5.89.57,1.13.27.9.11,1.76-.43,2.25-.46.43-1.13.51-1.83.23-.19-.07-.63-.33-.64-1.06,0-.64.35-1.6.98-2.52-.77-.72-1.99-1.34-3.78-1.62-1.55-.25-2.58-.04-3.07.61-.84,1.12-.01,3.48.37,4.29.12.26.01.57-.24.69-.26.12-.56.02-.69-.24-.07-.14-1.65-3.5-.27-5.35.73-.98,2.1-1.32,4.06-1.01,2.12.34,3.44,1.1,4.27,1.83.56-.6,1.24-1.13,2.01-1.46,1.2-.51,3.04-.73,5,1.21,1.44,1.42,1.74,3.23.85,5.23-.47,1.06-1.3,2.15-2.15,3.06,1.17-.05,2.37.26,3.19.93,1.09.89,1.28,2.24.54,3.67-1.26,2.43-4.27,3.51-6.46,3.29-.95-.1-1.74-.41-2.3-.91ZM17.71,8.53c-.53.86-.72,1.62-.61,1.81.19.06.51.13.71-.07.24-.22.29-.69.14-1.19-.05-.18-.14-.37-.24-.56Z"/>
        <path class="cls-2" d="M31.58,23.89c-.64-.57-1.28-1.81-.92-4.48.22-1.58.82-2.48,1.42-3-.41-1.33-.49-2.85,0-3.96.28-.63.76-1.06,1.39-1.23,1.93-.52,4.75,1.47,5.06,1.7.23.17.28.49.11.72-.17.23-.49.28-.72.11-.75-.54-2.95-1.87-4.19-1.54-.33.09-.56.3-.71.65-.36.82-.29,1.96-.01,3,.1-.04.19-.06.27-.08.98-.25,1.98.06,2.5.77.43.6.43,1.34,0,2.04-.47.75-1.16.97-1.85.61-.54-.28-1.04-.92-1.42-1.73-.4.49-.68,1.2-.8,2.09-.27,1.98.04,3.37.84,3.74.59.27,1.42-.04,2.08-.77.19-.21.51-.23.73-.04h0c.21.19.23.52.04.73-.98,1.09-2.26,1.49-3.28,1.02-.16-.07-.33-.18-.51-.34ZM33.34,16.84c.3.7.69,1.25,1.05,1.44.12.06.26.14.5-.24.21-.34.23-.63.04-.88-.22-.31-.78-.54-1.41-.38-.06.02-.13.04-.19.06Z"/>
        <path class="cls-2" d="M12.53,24.85c-.84-.75-1.35-1.78-1.46-3-.01-.16-.02-.31-.02-.47-.28.03-.57.03-.84,0-1.48-.14-2.48-1.06-2.83-2.58-.36-1.59-.18-2.74.55-3.43,1.1-1.03,2.94-.5,3.02-.48.27.08.43.37.35.64-.08.27-.37.43-.64.35-.38-.11-1.47-.28-2.02.24-.55.52-.44,1.61-.25,2.44.3,1.3,1.15,1.9,2.54,1.79.08,0,.16-.02.24-.03.23-1.16.83-2.16,1.61-2.54.63-.31,1.29-.2,1.87.32.34.31.42.75.22,1.2-.33.74-1.47,1.52-2.77,1.89,0,.19,0,.38,0,.57.08.9.52,2.51,2.64,3.14.27.08.43.37.35.64-.08.27-.37.43-.64.35-.76-.22-1.4-.58-1.92-1.04ZM13.93,18.83c-.31-.26-.55-.2-.71-.12-.35.17-.7.66-.91,1.31.94-.37,1.61-.95,1.63-1.19Z"/>
      </g>
    </g>
  </g>
</svg>