<?xml version="1.0" encoding="UTF-8"?>
<svg id="Camada_2" data-name="Camada 2" xmlns="http://www.w3.org/2000/svg" viewBox="0 0 90.72 123.59">
  <defs>
    <style>
      .cls-1 {
        fill: none;
        stroke: #341d35;
        stroke-linecap: round;
        stroke-linejoin: round;
        stroke-width: .75px;
      }

      .cls-2 {
        fill: #c63f62;
      }

      .cls-3 {
        fill: #341d35;
      }

      .cls-4 {
        fill: #6a7ebd;
      }

      .cls-5 {
        fill: #cc4829;
      }
    </style>
  </defs>
  <g id="Page-3">
    <g id="_Camada_" data-name="&amp;lt;Camada&amp;gt;">
      <g>
        <g>
          <path class="cls-4" d="M40.93,64.92l-21.76,4.71c-2.63.57-5.21-1.1-5.78-3.72h0c-.57-2.63,1.1-5.21,3.72-5.78l21.76-4.71c2.63-.57,5.21,1.1,5.78,3.72h0c.57,2.63-1.1,5.21-3.72,5.78Z"/>
          <path class="cls-2" d="M74.14.13L0,16.19l9.08,41.91c1.18,5.47,6.58,8.94,12.04,7.75l69.59-15.08h0c-4.86-22.45-27-36.7-49.44-31.84l-25.9,5.61-1.26-5.81L80.66,4.32h0c-.64-2.96-3.56-4.84-6.52-4.2Z"/>
          <polygon class="cls-4" points="11.76 13.64 10.79 9.17 19.5 11.96 11.76 13.64"/>
          <polygon class="cls-4" points="26.62 10.42 25.65 5.95 18.88 12.1 26.62 10.42"/>
          <path class="cls-3" d="M71.78,35.41l-58.37,12.65c-.54.12-1.09-.23-1.2-.78h0c-.12-.54.23-1.09.78-1.2l58.37-12.65c.54-.12,1.09.23,1.2.78h0c.12.54-.23,1.09-.78,1.2Z"/>
          <circle class="cls-5" cx="19.78" cy="45.64" r="2.91"/>
          <polygon class="cls-5" points="18.43 41.96 19.76 41.68 18.75 40.23 18.43 41.96"/>
        </g>
        <g>
          <line class="cls-1" x1="22.81" y1="65.48" x2="27.49" y2="87.08"/>
          <path class="cls-1" d="M42.57,111.83c1.1,5.07-2.12,10.07-7.19,11.17-5.07,1.1-10.07-2.12-11.17-7.19-1.1-5.07,3.39-28.75,3.39-28.75,0,0,13.88,19.7,14.98,24.77Z"/>
          <path class="cls-1" d="M38.02,112.81c1.1,5.07-.09,9.63-2.65,10.19-2.56.56-5.53-3.11-6.63-8.18-1.1-5.07-1.16-27.77-1.16-27.77,0,0,9.34,20.69,10.44,25.76Z"/>
          <line class="cls-1" x1="33.62" y1="63.14" x2="38.3" y2="84.74"/>
          <path class="cls-1" d="M53.37,109.49c1.1,5.07-2.12,10.07-7.19,11.17-5.07,1.1-10.07-2.12-11.17-7.19-1.1-5.07,3.39-28.75,3.39-28.75,0,0,13.88,19.7,14.98,24.77Z"/>
          <path class="cls-1" d="M48.83,110.47c1.1,5.07-.09,9.63-2.65,10.19s-5.53-3.11-6.63-8.18c-1.1-5.07-1.16-27.77-1.16-27.77,0,0,9.34,20.69,10.44,25.76Z"/>
        </g>
      </g>
    </g>
  </g>
</svg>