<?xml version="1.0" encoding="UTF-8"?>
<svg id="Camada_2" data-name="Camada 2" xmlns="http://www.w3.org/2000/svg" viewBox="0 0 102.13 69.37">
  <defs>
    <style>
      .cls-1 {
        fill: none;
        stroke: #341d35;
        stroke-linecap: round;
        stroke-linejoin: round;
        stroke-width: .75px;
      }

      .cls-2 {
        fill: #2392d1;
      }

      .cls-3 {
        fill: #29b8db;
      }
    </style>
  </defs>
  <g id="Page-3">
    <g id="_Camada_" data-name="&amp;lt;Camada&amp;gt;">
      <g>
        <path class="cls-3" d="M102.13,26.4c-.1-8.1-6.8-9.6-6.8-9.6,0,0,6.1-1.5,3.1-4-3-2.5-6.5,1.7-10.4,5.6-3.9,3.9-9.74,1.1-9.74,1.1h0c-1.47-1.39-2.59-1.97-2.59-1.97h-40.79s-6.36,3.23-8.53,13.04c0,0,0,0,0,0,0,0-10.53-20.9-15.33-21.17C6.24,9.13.11,13.8.11,13.8c0,0,5.2-1.47,7.87,1.07,2.09,1.98,4.13,17.67,4.92,24.41.49,4.19,1.88,8.25,4.19,11.78,2.83,4.31,7.5,8.61,14.87,8.72,3.79,6.13,7.88,9.21,7.88,9.21h30.93s8.16-6.12,12.11-18.36c16.43-1.53,19.36-16.24,19.26-24.23ZM83.72,47.59c.47-1.94.83-4,1.04-6.2.8-8.48-1.07-14.21-3.31-17.92,5.53.7,9.11-6.8,12.98-5.27,4.46,1.76,6.8,8.04,3.6,18.93-2.62,8.93-11.48,10.07-14.3,10.46Z"/>
        <path class="cls-2" d="M34.9,17.53s6.76-10.33,20.4-10.33,20.4,10.33,20.4,10.33c0,0-8.53,1.97-20.4,1.97s-20.4-1.97-20.4-1.97Z"/>
        <path class="cls-2" d="M59.53,3.85c0,2.13-1.72,3.85-3.85,3.85s-3.85-1.72-3.85-3.85,1.72-3.85,3.85-3.85,3.85,1.72,3.85,3.85Z"/>
        <g>
          <path class="cls-1" d="M29.23,51.31s.48,9.33,10.61,17.68"/>
          <path class="cls-1" d="M74.09,17.86c-3.01.56-9.98,1.64-18.79,1.64s-15.64-1.06-18.7-1.62"/>
          <path class="cls-1" d="M.38,13.73s12.86-2.29,10.96-4.29"/>
          <path class="cls-1" d="M17.78,15.9s8.92,13.79,10.27,19.2"/>
        </g>
      </g>
    </g>
  </g>
</svg>