<?xml version="1.0" encoding="UTF-8"?>
<svg id="Camada_2" data-name="Camada 2" xmlns="http://www.w3.org/2000/svg" viewBox="0 0 28.17 90.07">
  <defs>
    <style>
      .cls-1 {
        fill: #dc743a;
      }

      .cls-2 {
        fill: #427559;
      }

      .cls-3 {
        fill: #251827;
      }

      .cls-4 {
        fill: #6ebe92;
      }

      .cls-5 {
        fill: #ee7f32;
      }
    </style>
  </defs>
  <g id="Page-3">
    <g id="_Camada_" data-name="&amp;lt;Camada&amp;gt;">
      <g>
        <path class="cls-4" d="M.22,8.52c.54-1.26,1.61-1.84,3.13-1.65,1.27.16,2.44.62,3.49,1.33.57.38.7.27.67-.37-.06-1.58,0-3.16.49-4.69.26-.8.57-1.57,1.16-2.2,1.28-1.39,3.28-1.21,4.49.42,1.18,1.6,1.71,3.44,1.99,5.38.05.31.06.77.25.89.34.2.49-.29.73-.47.93-.7,1.89-1.35,3.01-1.69,1.47-.44,2.62-.06,3.36,1.09-.34-.2-.5-.07-.66.26-1.3,2.83-3.43,4.95-5.87,6.78-1.93,1.45-4.02,2.5-6.56,1.59-1.98-.71-3.81-1.7-5.5-2.96-1.32-.98-2.5-2.13-3.45-3.49-.21-.3-.37-.55-.74-.23Z"/>
        <path class="cls-2" d="M.22,8.52c.37-.32.53-.07.74.23.95,1.35,2.13,2.5,3.45,3.49,1.68,1.25,3.52,2.24,5.5,2.96,2.54.92,4.63-.14,6.56-1.59,2.44-1.83,4.57-3.95,5.87-6.78.15-.34.32-.47.66-.26.69,1.09.49,2.23.14,3.34-.75,2.37-1.98,9.37-3.66,11.12-.36.37-.73.72-1.1,1.08-3.82-1.05-7.51-.74-11.09.96-1.75-1.2-3.85-7.62-5.25-9.25-.93-1.08-1.72-2.25-1.96-3.69-.09-.54-.12-1.09.16-1.6Z"/>
        <path class="cls-5" d="M24.21,55.85c-.81,4.41-.98,22.03-2.37,26.29-1.32,4.03-6.05,5.84-9.81,3.92-.28-.14-.49-.31-.77-.05-.84-2.23-2.41-10.73-4.17-18.95-1.56-7.3-3.87-15.03-5.4-22.35-.69-3.28-1.5-6.56-1.23-9.96.31-3.9,1.55-7.43,4.27-10.34.73-.79,1.63-1.36,2.51-1.96,3.58-1.69,7.28-2,11.09-.96,2.34.93,4.27,2.38,5.74,4.44-.37.08-.12.31-.07.42,1.53,3.3,1.75,6.83,1.85,10.39.14,5.39-.34,10.74-1.11,16.06M22.43,31.74c-.13-.05-.3-.14-.49-.17-.95-.19-1.89-.39-2.85-.53-3.32-.48-6.62-.22-9.88.47-1.79.38-3.55.94-5.27,1.57-.59.21-.96.59-.75,1.25.22.72.78.78,1.41.58.25-.08.49-.17.73-.25,4.15-1.49,8.41-2.16,12.81-1.78,1.16.1,2.3.28,3.43.56.5.12.91-.03,1.13-.5.2-.42.1-.82-.28-1.19ZM5.87,45.51c-.35.39-.42.82-.14,1.24.32.48.8.56,1.28.29.86-.49,1.79-.67,2.76-.77,1.97-.21,3.92-.14,5.88.06.67.07,1.29-.02,1.36-.84.07-.86-.55-1.06-1.26-1.1-.39-.02-.77-.05-1.16-.08-2.51-.21-5-.25-7.45.53-.47.15-.87.41-1.28.66ZM13.72,66.3c-.25.33-.31.79.06,1.21.38.42.89.47,1.3.1.41-.37.87-.38,1.35-.41.65-.04,1.28.11,1.91.24.59.12,1.04-.09,1.17-.71.13-.6-.15-1.01-.75-1.14-.66-.14-1.33-.32-2-.33-1.06-.02-2.14.05-3.03,1.03Z"/>
        <path class="cls-1" d="M26.45,59.29c1.38-7.72,2.13-15.48,1.49-23.32-.31-3.76-1.56-7.16-3.97-10.1-.37.08-.12.31-.07.42,1.53,3.3,1.75,6.83,1.85,10.39.14,5.39-.34,10.74-1.11,16.06-.02.14-.05.24-.08.33.09.77-.03,1.55-.43,2.25,0,0,0,.01-.01.02,0,.05,0,.1,0,.15.03.08.02.17,0,.28-.81,4.41-.98,22.03-2.37,26.29-1.32,4.03-6.05,5.84-9.81,3.92-.27-.14-.49-.31-.77-.05.04.12.06.25.12.36,1.33,2.55,4.04,4.01,6.89,3.73,2.9-.29,5.39-2.44,6.18-5.37,1.09-4.02,1.37-21.27,2.1-25.37Z"/>
        <path class="cls-3" d="M22.43,31.74c.38.38.48.77.28,1.19-.23.47-.64.62-1.13.5-1.13-.28-2.27-.46-3.43-.56-4.41-.38-8.67.28-12.81,1.78-.24.09-.48.18-.73.25-.63.2-1.19.13-1.41-.58-.2-.66.17-1.04.75-1.25,1.73-.62,3.48-1.19,5.27-1.57,3.26-.69,6.56-.95,9.88-.47.96.14,1.9.34,2.85.53.19.04.36.13.49.17Z"/>
        <path class="cls-3" d="M5.87,45.51c.41-.24.81-.5,1.28-.66,2.44-.78,4.94-.74,7.45-.53.38.03.77.06,1.16.08.72.03,1.33.23,1.26,1.1-.07.82-.69.91-1.36.84-1.96-.2-3.91-.27-5.88-.06-.98.11-1.9.29-2.76.77-.48.27-.96.19-1.28-.29-.29-.43-.21-.86.14-1.24Z"/>
        <path class="cls-3" d="M15.25,54.53c.41-.24.81-.5,1.28-.66,2.44-.78,4.94-.74,7.45-.53.38.03.77.06,1.16.08.72.03,1.33.23,1.26,1.1-.07.82-.69.91-1.36.84-1.96-.2-3.91-.27-5.88-.06-.98.11-1.9.29-2.76.77-.48.27-.96.19-1.28-.29-.29-.43-.21-.86.14-1.24Z"/>
        <path class="cls-3" d="M13.72,66.3c.89-.98,1.97-1.05,3.03-1.03.67.01,1.34.19,2,.33.61.13.88.54.75,1.14-.13.62-.58.83-1.17.71-.63-.13-1.26-.28-1.91-.24-.48.03-.94.04-1.35.41-.41.37-.92.32-1.3-.1-.37-.42-.32-.89-.06-1.21Z"/>
      </g>
    </g>
  </g>
</svg>