<?xml version="1.0" encoding="UTF-8"?>
<svg id="Camada_2" data-name="Camada 2" xmlns="http://www.w3.org/2000/svg" viewBox="0 0 109.12 89.91">
  <defs>
    <style>
      .cls-1 {
        fill: none;
        stroke: #341d35;
        stroke-linecap: round;
        stroke-linejoin: round;
        stroke-width: .75px;
      }

      .cls-2 {
        fill: #c63f62;
      }

      .cls-3 {
        fill: #341d35;
      }

      .cls-4 {
        fill: #427559;
      }
    </style>
  </defs>
  <g id="Page-3">
    <g id="_Camada_" data-name="&amp;lt;Camada&amp;gt;">
      <g>
        <path class="cls-3" d="M106.27,32.07H2.85c-1.57,0-2.85-1.28-2.85-2.85h0c0-1.57,1.28-2.85,2.85-2.85h103.42c1.57,0,2.85,1.28,2.85,2.85h0c0,1.57-1.28,2.85-2.85,2.85Z"/>
        <path class="cls-4" d="M9.16,26.36h90.81v18.15c0,25.06-20.35,45.41-45.41,45.41h0c-25.06,0-45.41-20.35-45.41-45.41v-18.15h0Z"/>
        <path class="cls-1" d="M9.16,26.36s19.99-15.18,46.02-15.18,44.79,15.18,44.79,15.18H9.16Z"/>
        <path class="cls-1" d="M12.14,35.44v22.4c0,15.97,12.94,28.91,28.91,28.91h14.12"/>
        <path class="cls-3" d="M55.97,12.27h-2.28c-1.27,0-2.31-1.04-2.31-2.31h0c0-1.27,1.04-2.31,2.31-2.31h2.28c1.27,0,2.31,1.04,2.31,2.31h0c0,1.27-1.04,2.31-2.31,2.31Z"/>
        <path class="cls-2" d="M61.55,8.8h-13.43c-2.42,0-4.4-1.98-4.4-4.4h0c0-2.42,1.98-4.4,4.4-4.4h13.43c2.42,0,4.4,1.98,4.4,4.4h0c0,2.42-1.98,4.4-4.4,4.4Z"/>
      </g>
    </g>
  </g>
</svg>