<?xml version="1.0" encoding="UTF-8"?>
<svg id="Camada_2" data-name="Camada 2" xmlns="http://www.w3.org/2000/svg" viewBox="0 0 232.08 259.84">
  <defs>
    <style>
      .cls-1 {
        fill: #c63f62;
      }

      .cls-2 {
        fill: #8ec1e9;
      }

      .cls-3, .cls-4 {
        fill: #fff;
      }

      .cls-5 {
        fill: #844313;
      }

      .cls-4 {
        opacity: .37;
      }

      .cls-6 {
        fill: #fce2e8;
      }

      .cls-7 {
        fill: #2392d1;
      }

      .cls-8 {
        fill: #427559;
      }

      .cls-9 {
        fill: none;
        stroke: #042122;
        stroke-linecap: round;
        stroke-linejoin: round;
      }

      .cls-10 {
        fill: #b5e0f0;
      }

      .cls-11 {
        fill: #eb5b2b;
      }

      .cls-12 {
        fill: #042122;
      }

      .cls-13 {
        fill: #29b8db;
      }

      .cls-14 {
        fill: #f18853;
      }
    </style>
  </defs>
  <g id="Page-3">
    <g id="_Camada_" data-name="&amp;lt;Camada&amp;gt;">
      <g>
        <path class="cls-6" d="M0,240.94S3.41,68.67,111.31,68.67s120.77,172.27,120.77,172.27H0"/>
        <g>
          <g>
            <path class="cls-5" d="M103.58,66.38c3.03-3.68,9.04-3.88,12.99-1.2,3.95,2.68,5.99,7.53,6.39,12.28,2.22-1.46,5.72-.64,8.01.71,2.29,1.34,3.91,3.63,4.98,6.06.85,1.93,1.32,4.4-.09,5.97,2.63-.3,6.07.79,8.16,2.42,1.72,1.34,3.35,3.12,3.53,5.29.19,2.24-1.2,4.32-2.81,5.9,2.21,2.34,1.65,6.48-.65,8.73-2.31,2.25-5.6,3.1-8.76,3.74-8.44,1.71-17.06,2.5-25.67,2.35-2.73-.05-5.56-.21-7.99-1.44-3.76-1.9-5.95-6.09-6.51-10.27-.56-4.18.26-8.41,1.13-12.53,1.98-9.32,1.25-20.63,7.3-28Z"/>
            <g>
              <path class="cls-9" d="M110.28,71.91c2.25-.65,4.88.81,5.52,3.05"/>
              <path class="cls-9" d="M112.42,77.25c.42,1.89,2.14,3.41,4.06,3.61"/>
              <path class="cls-9" d="M111.07,87.33c.87-.81,2.14-1.16,3.3-.9,1.16.26,2.17,1.11,2.61,2.21"/>
              <path class="cls-9" d="M118.75,85.07c1.35,1.1,3.21,1.32,4.95,1.3.73,0,1.48-.06,2.13-.38.65-.33,1.18-1,1.13-1.73"/>
              <path class="cls-9" d="M126.11,92.58c.4-1,1.44-1.71,2.52-1.72s2.13.67,2.56,1.65"/>
              <path class="cls-9" d="M118.12,95c-.14.65.5,1.2,1.1,1.5,1.38.7,2.94,1.04,4.49,1"/>
              <path class="cls-9" d="M111.29,93.55c-1.77,1.46-2.24,4.27-1.03,6.22"/>
              <path class="cls-9" d="M116.26,100.59c1.17.23,2.26.81,3.1,1.65"/>
              <path class="cls-9" d="M129.93,100.82c2.33-1.59,5.7-1.44,7.87.35"/>
              <path class="cls-9" d="M133.65,106.76c2.12.95,4.8.48,6.47-1.13"/>
              <path class="cls-9" d="M139.83,94.23c1.6.31,3.01,1.5,3.57,3.03"/>
              <path class="cls-9" d="M103.07,101.59c.8.98,2.01,1.62,3.27,1.73"/>
            </g>
          </g>
          <g>
            <path class="cls-5" d="M51.72,78.43c-3.97-.03-7.91,2-10.19,5.25-2.28,3.25-2.86,7.64-1.49,11.37-2.96,0-5.61,1.54-7.49,3.83-1.88,2.28-2.87,5.21-3.18,8.15-.17,1.62-.13,3.35.69,4.76.98,1.68,2.86,2.59,4.65,3.38-3.05,1.09-4.12,5.45-2.77,8.4,1.35,2.95,4.77,4.6,8.01,4.44,11.55-.58,23.2,2.24,33.31-3.37,3.47-1.92,6.71-4.42,8.84-7.77,3.15-4.94,3.5-11.36,1.66-16.93-1.84-5.56-5.7-10.31-10.29-13.94-5.66-4.48-14.54-7.53-21.76-7.58Z"/>
            <g>
              <path class="cls-9" d="M48.24,84.47c-1.05.83-1.66,2.13-1.87,3.45-.2,1.32-.04,2.68.25,3.98"/>
              <path class="cls-9" d="M50.61,90.21c1.27,1.54,1.86,3.62,1.6,5.6"/>
              <path class="cls-9" d="M42.74,98.09c-.38,2.12.65,4.42,2.49,5.55"/>
              <path class="cls-9" d="M49.33,100.37c1.84,1.05,2.94,3.26,2.68,5.36"/>
              <path class="cls-9" d="M56.22,101.63c.4,2.13,2.33,3.89,4.49,4.08"/>
              <path class="cls-9" d="M65.26,103.06c2.11-.51,4.45,1.33,4.44,3.5"/>
              <path class="cls-9" d="M55.89,110.94c.71,1.32,2.09,2.27,3.59,2.45,1.49.18,3.06-.4,4.07-1.51"/>
              <path class="cls-9" d="M44.98,110.7c-.01,1.9,1.31,3.74,3.12,4.34"/>
              <path class="cls-9" d="M39.31,117.89c-.47,1.08-.29,2.41.45,3.33.74.92,2,1.38,3.15,1.16"/>
              <path class="cls-9" d="M35.49,109.91c2.42-.61,5.17,1.06,5.76,3.48"/>
              <path class="cls-9" d="M36.93,104.09c-1.37-.7-2.08-2.46-1.59-3.91"/>
            </g>
          </g>
        </g>
        <g>
          <path class="cls-1" d="M72.25,129.05c-2.24,17.64,16.28,23.96,30.71,23.35,5.35-1.23,13.54-3.4,13.84-10-.76-10.07-6.48-21.08-14.16-27.55-7.22-4.9-16.8-5.3-25.18-4.49-5.23,3.96-4.44,12.68-5.21,18.69Z"/>
          <g>
            <g>
              <path class="cls-1" d="M136.16,110.54c20.57,3.49,37.15,17.52,52.54,30.72,8.43,5.54,7.63,17.55-1.82,21.74-9.52,4.34-19.81.12-28.14-4.95-9.9-3.67-20.75-5.8-30.65-9.47-16.65-4.97-34.21-16.37-32.65-35.92-.09-6.24,2.48-5.64,8.1-5.58,10.95.11,21.89,1.27,32.62,3.45Z"/>
              <path class="cls-1" d="M195.34,143.56c19.48-1.88,21.47,23.66,12.8,36.13-1.53,3.47-4.48,6.08-8.41,5.99-11.43,1.11-29.02-4.96-22.14-19.32,3.2-9.98,5.13-21.64,17.75-22.8Z"/>
              <path class="cls-9" d="M182.51,149.06c3.97-3.86,9.71-5.84,15.22-5.25"/>
            </g>
            <path class="cls-1" d="M60.93,115.46c-22.4,7.59-52.88,26.1-43.02,53.84,13.62,25.44,53.87-.7,57.38-22.47,2.78-10.96,12.59-29.54.28-37.26-4.87,1.2-9.77,4.35-14.63,5.89Z"/>
          </g>
        </g>
        <path class="cls-8" d="M161.55,240.89c-1-26.08-6.13-58.26-12.82-83.49-4.81-18.12-11.88-42.68-28.99-50.34-3.58-1.6-6.96-1.02-10.75-.02,5.15,6.79,10.34,16.24,13.03,24.88.79,2.54-.29,5.31-2.62,6.6-9.09,5.04-22.31,3.48-32.7,1.95-2.95-.44-6.06-1.09-8.24-3.13-1.71-1.6-2.63-3.85-3.5-6.03-2.48-6.21-5.53-12.29-8.02-18.5-4.18-.39-8.5,1.37-11.21,4.57.76,41.41-5.57,82.17-7.92,123.52.31.1,1.14-.14,1.45-.03h112.28Z"/>
        <g>
          <path class="cls-14" d="M125.58,156.59c.77.56.51,1.79-.43,1.92-4.77.7-22.45-6.09-17.72-10.58,7.09-6.71,13.34,5.17,18.15,8.65Z"/>
          <path class="cls-3" d="M127.54,160.64c-12.67-7.54.8-26.4,14.41-9.43l-5.63-1.1,2.65,5.81-4.45-.04,1.73,3.37-4.34-1,1.14,5.06-5.5-2.67Z"/>
        </g>
        <g>
          <path class="cls-14" d="M96.28,101.01c.42,4.16,2.08,8.49,2.06,12.67-.02,2.82-.93,5.73-2.86,7.59-2.01,1.93-4.89,2.52-7.53,2.07-2.64-.45-5.08-1.83-7.31-3.44-1.83-1.32-2.74-2.88-3.88-4.93.12-5.69.01-11.38-.33-17.05,6.45,2.24,13.09,3.59,19.84,3.1Z"/>
          <path class="cls-12" d="M97.93,109.64c-.51-2.89-1.37-5.8-1.65-8.63-5.34.38-10.62-.39-15.78-1.84,2.79,7.12,9.58,11.85,17.44,10.47Z"/>
        </g>
        <g>
          <path class="cls-14" d="M65.84,89.24c5.5,9.27,15.1,16.62,25.87,17.14,1.62.08,3.3,0,4.77-.68,1.32-.6,2.4-1.64,3.35-2.75,6.08-7.11,7.35-17.08,7.6-26.43.16-5.99-3-11.36-3.73-17.31-.86-7.04-3.3-14.34-8.99-16.2-3.39-1.11-8.27,2.08-11.8,2.61-7.85,1.18-21.9,5.25-24.51,14.08-2.54,8.6,3.2,22.4,7.44,29.55Z"/>
          <g>
            <path class="cls-12" d="M103.43,71.72c-3.93-4.89-11.86-.99-11.57,4.96,1.97-4.48,7.26-5.01,11.57-4.96Z"/>
            <path class="cls-12" d="M70.74,83.76c-.44-6.26,8.03-8.78,11.86-4.22-4.49-1.95-8.73,1.25-11.86,4.22Z"/>
            <path class="cls-11" d="M94.47,77.52c-.5.53-.94,1.14-1.13,1.85-.36,1.37.37,2.88,1.54,3.67,1.17.79,2.69.94,4.08.66,1.39-.29,2.66-.97,3.85-1.73.83-.54,1.67-1.15,2.12-2.03,1.12-2.15-.72-4.92-3-5.22-2.58-.34-5.73.96-7.47,2.8Z"/>
            <path class="cls-11" d="M72.86,87.77c-.5.53-.94,1.14-1.13,1.85-.36,1.37.37,2.88,1.54,3.67,1.17.79,2.69.94,4.08.66s2.66-.97,3.85-1.73c.83-.54,1.67-1.15,2.12-2.03,1.12-2.15-.72-4.92-3-5.22-2.58-.34-5.73.96-7.47,2.8Z"/>
            <path class="cls-5" d="M101.38,64.77c-5.17-3.03-13.8,5.9-12.76,1.25.13-.58.56-.87.83-1.02,3.24-2.25,9.22-4.37,11.92-.23Z"/>
            <path class="cls-5" d="M66.99,79.25c1.47-5.81,13.89-5.68,9.85-8.2-.51-.32-1.02-.21-1.31-.13-3.88.72-9.59,3.49-8.54,8.33Z"/>
            <path class="cls-9" d="M86.17,69.79c-.37,3.34.07,6.84,1.72,9.76,1.65,2.92,4.63,5.19,7.98,5.51-1.77,2.25-4.96,3.28-7.71,2.47"/>
            <path class="cls-9" d="M85.47,92.29c2.6,1.91,6.49,1.78,8.96-.28"/>
            <path class="cls-14" d="M58.59,80.27c-2.93,4.34,2.03,20.2,11.01,12.62,1.3-1.1-6.64-16.44-11.01-12.62Z"/>
            <path class="cls-9" d="M59.31,86.25c.27-.54.87-.87,1.47-.93.6-.06,1.21.11,1.76.35,1.44.61,2.67,1.68,3.49,3.02-.48-.31-1.04-.53-1.61-.47-.57.06-1.12.46-1.22,1.02-.1.56,1.5,1.82,2.06,1.75"/>
          </g>
          <g>
            <path class="cls-5" d="M66.87,86.55c-.45-5.94-3.39-13.6-4.87-19.38-.54-2.1-1.73-7.14-4.25-7.85-3.23-.91-5.19,3.8-5.78,6.17-.92,3.69-.85,7.67.45,11.24,1.3,3.58,3.05,11,6.42,12.77,0,0-2.08-4.31.27-8.25,1.46-2.45,7.76,5.29,7.76,5.29Z"/>
            <path class="cls-5" d="M62.6,75.06c2.14-.1,3.68-2.05,4.75-3.91,2.13-3.73,3.58-7.85,4.25-12.09.04-.25.14-.56.39-.57.25-.01.11.53-.03.32,4.78,1.89,10.18.1,14.19-3.12,3.12,1.46,7.42,1.31,10.25-.66,1.22-.85,2.32-2.24,2.01-3.69-.36-1.65-2.25-2.39-3.9-2.77-6.81-1.55-14.1-1.42-20.59,1.15-6.49,2.57-12.08,7.71-14.47,14.27-1.44,3.95-.26,8.64,3.17,11.08Z"/>
            <g>
              <path class="cls-9" d="M61.88,70.19c1.79-.82,3.19-2.45,3.71-4.35"/>
              <path class="cls-9" d="M58.5,72.85c-.69,1.54-.19,3.52,1.14,4.55"/>
              <path class="cls-9" d="M74.71,56.93c1.72.28,3.57-.35,4.75-1.63"/>
            </g>
          </g>
          <g>
            <path class="cls-8" d="M98.38,26.56c.91-3.89,1.38-8.04.07-11.81-1.31-3.77-4.81-7.01-8.8-6.92-1.17.03-2.36.33-3.49.01-.95-.26-1.73-.93-2.5-1.56-3.76-3.1-8.12-5.78-12.97-6.23-4.85-.45-10.21,1.85-12.08,6.35-.59,1.42-.84,3.02-1.83,4.19-.85,1-2.12,1.54-3.38,1.91-2.81.83-5.78,1.02-8.57,1.89-2.8.87-5.56,2.63-6.52,5.4-.81,2.34-.19,4.96-.78,7.37-1.46,5.92-9.05,7.81-12.72,12.68-3.09,4.1-2.97,9.7-2.73,14.83.09,1.9.26,3.99,1.61,5.33,1.43,1.43,3.85,1.63,5.08,3.24.98,1.28.89,3.06,1.28,4.62.74,3,3.35,5.31,6.27,6.32,2.92,1.01,6.12.9,9.18.39,1.79-.3,3.69-.72,5.38-.06.65-6.07,3.44-11.9,7.76-16.22,3.25-3.25,7.26-5.61,11.25-7.91,6.21-3.57,12.49-7.07,19.13-9.78,2.14-.87,6.05-1.35,7.38-3.33,1.33-1.98,1.39-8.18,1.98-10.73Z"/>
            <path class="cls-8" d="M54.02,79.66c1.55-10.46,9.02-19.65,18.63-24.06,9.61-4.41,20.09-6.39,29.88-2.39,1.18-5.67-2.24-13.94-7.35-16.01-6.6-1.44-10.45.76-16.7,3.31-6.25,2.55-11.85,6.47-17.1,10.71-4.26,3.44-8.47,7.29-10.55,12.35-2.09,5.06-1.05,12.65,3.21,16.09Z"/>
            <g>
              <path class="cls-12" d="M51.11,75.46c-.79-3.44-.36-7.06.67-10.43,1.03-3.37,2.63-6.53,4.23-9.68-3.89,4.92-5.96,10.96-7.32,17.08-.08.38-.17.78-.03,1.15.13.34.43.59.72.82.89.7.85.36,1.73,1.07Z"/>
              <path class="cls-12" d="M76.29,40.37c7.63-1.68,14.84-3.51,22.17-.79-1.5-.56-1.47-1.56-2.97-2.39-1.67-.93-4.12-.96-5.98-.96-4.69-.01-9.39,1.42-13.22,4.14Z"/>
              <path class="cls-9" d="M93.16,37.08c.89-4.2,1.02-8.55.39-12.79"/>
              <path class="cls-9" d="M88.34,36.69c.19-1.88-.02-3.79-.6-5.59"/>
              <path class="cls-9" d="M83.39,36.69c-1.33-4.71-3.44-9.2-6.22-13.22"/>
              <path class="cls-9" d="M50.29,61.31c-2.9-2.68-5.63-5.54-8.17-8.57"/>
              <path class="cls-9" d="M49.88,66.3c-2.01-.63-3.94-1.49-5.77-2.53"/>
              <path class="cls-9" d="M46.98,69.33c-1.25.34-2.69-.28-3.31-1.41"/>
              <path class="cls-9" d="M56.53,52.4c-1.52-2.62-3.03-5.24-4.55-7.86"/>
            </g>
          </g>
        </g>
        <path class="cls-12" d="M182.24,173.69c1.88,2.01,3.78,4.05,6.13,5.49,1.25.77,2.82,1.37,4.16.78,1.4-.61,2-2.26,2.26-3.77-2.29.58-4.69-.5-6.53-1.96-1.85-1.47-3.35-3.33-5.24-4.74-.82-.61-1.69-1.13-2.57-1.64-1.82-1.07-3.51-.93-2.63,1.17.66,1.58,3.27,3.43,4.44,4.68Z"/>
        <g>
          <path class="cls-14" d="M187.1,174.37c-8.62-8.54-20.82-11.41-31.15-16.31,1.22-3.03-1.12-6.89,2.53-7.95,12.48-.86,25.66-2.51,37.94.28,13.12,5.08,6.19,26.28-4.95,25.93-1.64-.05-3.2-.79-4.37-1.95Z"/>
          <path class="cls-3" d="M147.07,148.99c14.53-2.48,16.52,20.6-4.85,16.52l5-2.81-5.78-2.7,3.41-2.86-3.5-1.45,3.95-2.05-4.15-3.11,5.92-1.54Z"/>
        </g>
        <g>
          <path class="cls-14" d="M181.26,148.6c-3.89-4.72-10.36-6.35-16.43-7.09-8.36-1.03-16.85-.9-25.17.38-1.04.16-2.3.53-2.53,1.56.34,1.79,8.69,2.23,13.1,1.63-2.14.78-4.09,2.04-5.69,3.65-.91.92-.05,2.47,1.21,2.17,0,0,.02,0,.03,0,3.35-.81,6.69-1.62,10.04-2.43-2,.62-4.18,1.41-5.71,2.74-.9.78-.16,2.26,1.02,2.06,3.35-.55,6.74-.84,10.1-.5,4.3.44,8.59,2,11.71,4.99,1.51.18,2.98.03,4.42-.47,1.44-.5,2.73-1.56,3.25-2.99.34-.93.33-1.93.32-2.92,0-1.08.35-1.69.34-2.77Z"/>
          <path class="cls-9" d="M161.95,148.33c-3.9-.39-7.91.44-11.34,2.35-.55.31-1.13.69-1.31,1.3-.22.75.84.96,1.62,1.03,2.92.27,5.85-.26,8.78-.44,2.93-.18,6.04.06,8.49,1.67"/>
          <path class="cls-9" d="M144.22,149.1c4.49-3.92,10.84-5.63,16.69-4.49"/>
          <path class="cls-9" d="M137.22,143.76c2.6,1.19,5.47,1.5,8.32,1.78.67.07,5.7-.24,7.85-.89"/>
        </g>
        <path class="cls-9" d="M202.16,167.85c-3.37,4.76-3.7,11.48-.8,16.54"/>
        <g>
          <g>
            <path class="cls-2" d="M145.11,189.29c-55.09,0-61.62,10.1-62.4,12.51.55,10.28,25.09,18.62,55.91,19.16,48.19,0,59.41-12.93,61.81-17.25.26-.74.41-1.49.41-2.26,0-.95-.22-1.89-.62-2.81-3.03-3.85-14.46-9.35-55.11-9.35Z"/>
            <path class="cls-10" d="M145.11,189.29c-55.09,0-61.62,10.1-62.4,12.51.55,10.28,25.09,18.62,55.91,19.16,48.19,0,59.41-12.93,61.81-17.25.26-.74.41-1.49.41-2.26,0-.95-.22-1.89-.62-2.81-3.03-3.85-14.46-9.35-55.11-9.35Z"/>
          </g>
          <path class="cls-7" d="M82.71,207.56c-.88,0-1.72-.48-2.16-1.31-.17-.32-1.57-3.22.59-6.77,5.07-8.37,25.47-12.62,60.63-12.62s54.93,4.21,59.61,12.51c1.69,3.01.92,5.83.2,7.02-.7,1.15-2.19,1.51-3.34.82-1.15-.7-1.51-2.19-.82-3.34.04-.09.42-.98-.36-2.25-1.83-2.98-10.87-9.9-55.29-9.9s-54.6,7.19-56.47,10.28c-.71,1.18-.44,2-.44,2.01.62,1.19.16,2.66-1.03,3.28-.36.19-.74.28-1.12.28Z"/>
          <path class="cls-4" d="M155.95,213.79c-7.26-6.53-6.55-9.89-3.61-18.61,2.29-11.33-4.13-22.11-4.59-33.29-.48,3.88.4,7.43-.08,11.31-.88-4.87-2.56-10.07-4.9-14.31-1.1,9.18,11.06,27.41-.42,32.38-6.88-6.58-1.11-28.13-7.41-36.51-1.83-.59-1.82,2.96-.27,3.08.81,5.13,5.78,34.64.34,35.07-5.36-8.36,4.76-26.77-4.55-32.19,4.7,12.48.91,27.68-1.36,40.57-.81,4.1-5.04,13.66-1.92,17.18,6.33,2.83,23.48-.05,28.76-4.66Z"/>
          <g>
            <g>
              <path class="cls-7" d="M116.26,247.97l-1.82,7.18s25.97,10.55,53.75,0l-1.88-7.18h-50.06Z"/>
              <path class="cls-13" d="M82.61,202.32s43.43,29.57,118.43,0c0,0,3.93,4.96-5.38,6.41-5.17,61.14-106.49,55.21-109.59,1.65,0,0-8.38-2.89-3.47-8.06Z"/>
            </g>
            <path class="cls-4" d="M161.85,232.06c-4.17,7.18-5.86,15.12,6.85,9.17,17.01-13.39,5.48-33.42-.62-20.6-1.86,3.92-4.05,7.68-6.23,11.43Z"/>
          </g>
        </g>
        <g>
          <g>
            <path class="cls-1" d="M42.96,143.37c-7.9-1.07-14.17,3.92-21.3,5.98-11.98-.54-14.01,15.36-9.4,24.16,3.04,22.82,29.97,12.17,42.97,4.16-8.66-.99-13.94-11.3-9.67-18.9,2.65-4.99,8.43-8.04,10.16-13.43,1.04-3.24-2.05-2.04-3.87-1.97-2.95.11-5.94,0-8.89,0Z"/>
            <g>
              <path class="cls-1" d="M60.75,136.04c-8.47-2.73-9.03,8.62-14.57,12.22-11.05,6.09-9.52,22.41,1.58,27.61-6.49-13.83,6.01-21.69,16.65-27.11,8.17-4.88,4.38-11.38-3.65-12.72Z"/>
              <path class="cls-1" d="M78.34,157.33c-6,10.1-18.11,13.7-29.28,12.48-6.71,1.75-1.84,10.07,2.88,11.27,13.97,4.37,28.44-9.63,26.4-23.74Z"/>
            </g>
          </g>
          <g>
            <path class="cls-14" d="M69.06,141.69l38.38-3.18c11.62-2.81,19.32-4.6,28.45,3.6.76.68.21,1.97-.81,1.89-.89-.06-1.78-.22-2.64-.47,2.48.4,6,2.48,7.97,4.88.94,1.14.15,3.25-1.28,2.9-4.05-.99-12.19-4.67-15.21-4.93,1.43,1.39,7.77,4.29,8.99,5.86.61.79-.42,1.95-1.34,1.58-20.24-8.21-28.3-.25-49.6,4.56-3.83.94-6.67,4.92-9.86,7.24-6.51,4.48-15.72,7.79-23.44,5.02-3.6-2.71-3.2-9.08-1.35-12.8,2.51-4.24,5.96-5.02,9.49-8.46,3.99-2.31,7.46-7.21,12.25-7.69Z"/>
            <g>
              <path class="cls-9" d="M132.91,152.24c.74,2.44-2.77,1.81-3.37,1.2-6.05-2.74-15.51-5.24-21.15-2.7"/>
              <path class="cls-9" d="M135.08,144c-2.8-1.18-7.63-3.18-12.22-3.18"/>
              <path class="cls-9" d="M120.62,145.23c6.28.59,12.55,4.09,17.84,5.84"/>
            </g>
          </g>
          <g>
            <path class="cls-9" d="M35.59,144.39c-3.15,1.24-6.31,2.48-9.46,3.72-1.57.62-3.17,1.24-4.85,1.35-1.09.07-2.18-.08-3.26.03-2.62.28-4.99,2.24-5.76,4.76"/>
            <g>
              <path class="cls-9" d="M57.59,135.5c-8.99,2.63-16.7,9.37-20.5,17.94"/>
              <path class="cls-9" d="M48.17,170.03c-1.33,1.61-1.87,3.85-1.42,5.89.45,2.04,1.87,3.85,3.76,4.76,2.09,1.01,4.52.9,6.83.72"/>
              <path class="cls-9" d="M48.38,170.16c2.9.8,5.9,1.34,8.9,1.23,3.01-.11,6.03-.92,8.51-2.63"/>
              <path class="cls-12" d="M50.49,180.23c-2.22-1.06-4.12-3.33-4.3-5.79-8.04-.25-12.29-9.14-11.37-16.39-4.71,8.12,6.84,32.03,15.67,22.17Z"/>
            </g>
          </g>
        </g>
      </g>
    </g>
  </g>
</svg>