<?xml version="1.0" encoding="UTF-8"?>
<svg id="Camada_2" data-name="Camada 2" xmlns="http://www.w3.org/2000/svg" viewBox="0 0 251.26 247.82">
  <defs>
    <style>
      .cls-1 {
        fill: #fac63f;
      }

      .cls-2 {
        fill: #ccc202;
      }

      .cls-3, .cls-4 {
        fill: #fff;
      }

      .cls-5 {
        fill: #844313;
      }

      .cls-4 {
        opacity: .37;
      }

      .cls-6 {
        fill: #f7b27f;
        opacity: .47;
      }

      .cls-7 {
        fill: #086066;
      }

      .cls-8 {
        fill: #427559;
      }

      .cls-9 {
        fill: none;
        stroke: #042122;
        stroke-linecap: round;
        stroke-linejoin: round;
      }

      .cls-10 {
        fill: #eb5b2b;
      }

      .cls-11 {
        fill: #042122;
      }

      .cls-12 {
        fill: #43b174;
      }
    </style>
  </defs>
  <g id="Page-3">
    <g id="_Camada_" data-name="&amp;lt;Camada&amp;gt;">
      <g>
        <path class="cls-6" d="M11.45,209.49S14.97,27.98,126.47,27.98s124.79,181.5,124.79,181.5H11.45"/>
        <path class="cls-5" d="M71.2,103.53c-.58-18.68-10.35,13.06-8.99,17.74-.11,1.16,1.16,1.2,1.99.63,6.08-3.77,6.66-11.93,7-18.38Z"/>
        <g>
          <path class="cls-8" d="M115.84,109.56l-7.26,8.5s-35.67,1.26-43.42,15.06v108.09s98.01,24.92,161.29-21.97l11.48-9.75s-3.04-74.85-45.9-88.86l-34.83-6.68-41.34-4.39Z"/>
          <g>
            <path class="cls-9" d="M124.08,151.78c0,2.11-1.71,3.83-3.83,3.83s-3.83-1.71-3.83-3.83,1.71-3.83,3.83-3.83,3.83,1.71,3.83,3.83Z"/>
            <path class="cls-9" d="M160.24,151.78c0,2.11-1.71,3.83-3.83,3.83s-3.83-1.71-3.83-3.83,1.71-3.83,3.83-3.83,3.83,1.71,3.83,3.83Z"/>
            <path class="cls-9" d="M124.08,190.86c0,2.11-1.71,3.83-3.83,3.83s-3.83-1.71-3.83-3.83,1.71-3.83,3.83-3.83,3.83,1.71,3.83,3.83Z"/>
            <path class="cls-9" d="M162.59,190.86c0,2.11-1.71,3.83-3.83,3.83s-3.83-1.71-3.83-3.83,1.71-3.83,3.83-3.83,3.83,1.71,3.83,3.83Z"/>
            <path class="cls-9" d="M124.08,229.94c0,2.11-1.71,3.83-3.83,3.83s-3.83-1.71-3.83-3.83,1.71-3.83,3.83-3.83,3.83,1.71,3.83,3.83Z"/>
            <path class="cls-9" d="M164.65,229.94c0,2.11-1.71,3.83-3.83,3.83s-3.83-1.71-3.83-3.83,1.71-3.83,3.83-3.83,3.83,1.71,3.83,3.83Z"/>
          </g>
        </g>
        <path class="cls-11" d="M160.82,110.03c-.84,3.78-2.78,7.22-4.69,10.59-.83-2.12-1.65-4.23-2.48-6.35-.5-1.27-1-2.56-1.32-3.89-.28-1.19-.85-2.55.62-2.73,2.49-.32,5.79,1.15,7.86,2.38Z"/>
        <path class="cls-11" d="M127.49,106.55c-3.94.78-7.83,1.78-11.65,3.01,2.24,3.68,4.96,7.71,9.19,8.5,1.41-3.75,2.16-7.76,2.21-11.77"/>
        <path class="cls-9" d="M109.6,120.62s3.1,10.22,14.48,13.76"/>
        <path class="cls-9" d="M152.41,134.99s6.56-1.24,12.69-16.93"/>
        <g>
          <g>
            <path class="cls-5" d="M125.7,88.34c1.64,10.04-.94,19.89-3.45,29.46,2.27,12.17,15.49,25.26,27.78,16.98,13.06-8.92,2.24-24.95,2.49-37.13-6.6-6.75-17.53-9.74-26.82-9.31Z"/>
            <path class="cls-11" d="M155.41,113.9c-1.21-5.56-2.98-11.23-2.88-16.24-.91-.93-1.91-1.78-2.97-2.57-.83-.24-1.71-.37-2.57-.41-3.83-.19-12.91,1.72-13.87,6.45-1,4.95,7.15,9.85,10.83,11.22,3.64,1.35,7.58,1.76,11.46,1.56Z"/>
          </g>
          <g>
            <path class="cls-5" d="M162.51,67.54c.64,7.37.51,14.81-.39,22.16-.63,5.1-1.86,10.59-5.82,13.87-2.8,2.32-6.55,3.16-10.17,3.42-5.8.41-11.95-.6-16.54-4.18-4.23-3.31-6.65-8.39-8.58-13.41-1.62-4.19-3.02-8.54-3.19-13.03-.36-9.61,5.56-19.17,14.33-23.12,12.27-5.53,29.11-.03,30.36,14.29Z"/>
            <g>
              <path class="cls-12" d="M102.37,55.4c-6.78-3.67-10.99-11.15-2.69-15.78,2.47-4.37.6-9.99,2.48-14.66,1.38-5.95,7-7.98,12.23-9.42,4.75-5.04,6.98-12.62,14.89-14.43,8.84-3.56,16.39,2.31,24.26,5.1,5.05.99,11.57-1.64,15.76,2.16,3.57,3.41,1.34,9.44,3.78,13.63,13.57,12.85,5.48,21.41-6.55,30.93-14.09-7.79-33.46-1.91-47.26,4.32-2.28,1.16-5,6.83-7.74,6.1-3.31-1.92-5.71-6.16-9.16-7.95Z"/>
              <path class="cls-12" d="M118.08,76.55c-3.15-1.51-4.85-4.99-5.72-8.37-.91-3.55-1.17-7.26-.75-10.9.69-6.04,8.39-11.41,13.76-14.27,6.89-3.67,15.3-4.08,23.05-3.17,7.75.91,15.31,5.29,18.87,12.23,2.32,4.54-2.19,7.57-5.67,11.29-1.64-5.54-6.37-7.18-11.98-8.55-4.38-1.07-9.41-1.59-14.54,0-4.31,1.33-8.62,4.07-11.35,7.66-2.98,3.91-5.16,9.2-5.66,14.09Z"/>
              <g>
                <path class="cls-11" d="M110.08,59.22c-.38,1.59-.27,3.79,1.46,4.51.86-4.74,2.27-10.85,5.64-14.33-4.17,1.74-6.23,5.36-7.1,9.82Z"/>
                <path class="cls-11" d="M154.4,40.31c5.63,2.15,10.78,5.54,14.99,9.84.01.01-1.44,1.49-1.79,1.5-.88.03-1.04-.78-1.47-1.44-.96-1.47-1.99-2.87-3.21-4.14-2.39-2.49-5.3-4.48-8.51-5.76Z"/>
                <path class="cls-9" d="M111.76,56.78c-1.35-2.07-2.85-4.07-4.71-5.7-1.86-1.63-4.12-2.87-6.56-3.24"/>
                <path class="cls-9" d="M115.61,50.41c-1.18-1.45-2.51-2.78-3.94-3.98"/>
                <path class="cls-9" d="M119.8,46.24c-1.47-2.89-3.04-5.72-4.71-8.5"/>
                <path class="cls-9" d="M125.37,43c-1.1-3.38-2.53-6.64-4.26-9.74"/>
                <path class="cls-9" d="M134.16,39.14c.71-5.14-.97-10.28-2.62-15.2"/>
                <path class="cls-9" d="M129.84,40.22c.21-1.6.15-3.23-.18-4.81"/>
                <path class="cls-9" d="M142.26,38.52c-.29-3.97.17-7.99,1.35-11.79"/>
                <path class="cls-9" d="M148.12,39.29c.03-1.61.2-3.22.5-4.8"/>
                <path class="cls-9" d="M155.06,40.37c.69-5.03,2.13-9.95,4.25-14.56"/>
                <path class="cls-9" d="M161.27,42.85c.37-2.53,1.29-4.98,2.69-7.12"/>
                <path class="cls-9" d="M164.85,46.26c1.72-2.75,4.02-5.13,6.7-6.95"/>
              </g>
            </g>
            <g>
              <g>
                <path class="cls-5" d="M109.99,86.07c2.72,4.47,7.34,6.63,10.32,4.82,2.97-1.81,3.18-6.91.45-11.38-2.72-4.47-7.34-6.63-10.32-4.82-2.97,1.81-3.18,6.91-.45,11.38Z"/>
                <path class="cls-9" d="M111.49,79.14c.42-1.14,1.7-1.72,2.9-1.53,1.2.19,2.3,1.05,3.04,2.1.74,1.06,1.18,2.3,1.5,3.54-.46-1.25-1.93-2.05-3.1-1.69-1.23.39-1.87,1.9-1.56,3.26.31,1.36,1.41,2.5,2.66,3.05.63.28,1.33.42,1.97.28.64-.14,1.2-.62,1.36-1.28"/>
              </g>
              <g>
                <path class="cls-11" d="M140.35,69.03c-1.25,2.51-3.61,3.7-5.82,3.49-2.21-.2-4.28-1.62-6.07-3.41,3.84,1.18,8.33,2.2,11.9-.08Z"/>
                <path class="cls-11" d="M161.17,69.92c-1.51,2.42-3.94,3.35-6.06,2.89-2.12-.46-3.96-2.14-5.48-4.17,3.58,1.64,7.81,3.19,11.54,1.27Z"/>
                <path class="cls-11" d="M125.56,66.37c2.51-5.1,14.01-2.52,10.76-5.66-.41-.39-.9-.4-1.19-.38-3.74-.1-9.58,1.35-9.57,6.04Z"/>
                <path class="cls-11" d="M162.16,66.37c-2.51-5.1-14.01-2.52-10.76-5.66.41-.39.9-.4,1.19-.38,3.74-.1,9.58,1.35,9.57,6.04Z"/>
                <path class="cls-10" d="M139.92,78.71c0,2.52-2.98,4.56-6.66,4.56s-6.66-2.04-6.66-4.56,2.98-4.56,6.66-4.56,6.66,2.04,6.66,4.56Z"/>
                <path class="cls-9" d="M136.27,79.58c1.74,2.4,4.4,4.12,7.3,4.72,2.9.6,6.03.07,8.57-1.45"/>
                <path class="cls-9" d="M146.54,65.04c-.5,2.26-.48,4.71.5,6.81.98,2.1,3.05,3.77,5.37,3.85-.07.87-.65,1.64-1.39,2.12-.73.48-1.61.69-2.47.81-1.72.24-3.76,0-4.7-1.47"/>
                <path class="cls-10" d="M153.59,78.71c0,2.52,2.98,4.56,6.66,4.56.88,0,1.71-.12,2.48-.33.16-2.8.21-5.61.15-8.42-.81-.24-1.7-.37-2.63-.37-3.68,0-6.66,2.04-6.66,4.56Z"/>
              </g>
            </g>
          </g>
        </g>
        <g>
          <path class="cls-12" d="M115.84,109.56s8.43,14.25,21.05,15.34l-.62,11.29s-20.64,2.17-27.69-18.13l7.26-8.5Z"/>
          <path class="cls-12" d="M160.82,110.03s-3.99,17.04-16.98,15.18l1.07,11.83s11.72,2.41,21.19-21.38l-5.28-5.62Z"/>
        </g>
        <g>
          <g>
            <path class="cls-12" d="M163.99,201.71c-.82,3.47-.97,6.49.67,9.65,1.57,3.04,4.51,5.51,7.93,5.45,3.42-.06,8.14-.56,10.9-2.59,7.24-5.33,10.15-15.38,9.83-24.37-6.17,2.89-12.93,4.46-19.74,4.65-6.86.19-7.94.2-9.59,7.2Z"/>
            <g>
              <g>
                <path class="cls-3" d="M151.12,158.61c1.26.08,2.54.42,3.75.09,1.61-.44,2.7-1.93,4.18-2.68,3.1-1.56,6.74.44,10.21.66,2.79.17,5.49-.85,8.22-1.44,2.73-.59,5.85-.68,8.03,1.07.98.78,1.68,1.87,2.59,2.73,3.52,3.32,9.71,2.88,12.65,6.72-11.41,2.32-23.13,2.42-34.77,2.51-6.18.05-12.56.08-18.51-1.83-2.78-.89-6.37-1.57-3.73-4.63,1.81-2.09,4.6-3.37,7.38-3.2Z"/>
                <g>
                  <path class="cls-2" d="M179.84,159.16c-.06,1.17-1.06,2.07-2.23,2.01-1.17-.06-2.07-1.06-2.01-2.23.06-1.17,1.06-2.07,2.23-2.01,1.17.06,2.07,1.06,2.01,2.23Z"/>
                  <path class="cls-2" d="M174.27,161.01c-.06,1.17-1.06,2.07-2.23,2.01-1.17-.06-2.07-1.06-2.01-2.23.06-1.17,1.06-2.07,2.23-2.01,1.17.06,2.07,1.06,2.01,2.23Z"/>
                  <path class="cls-7" d="M174.13,163.8c-.06,1.17-1.06,2.07-2.23,2.01-1.17-.06-2.07-1.06-2.01-2.23.06-1.17,1.06-2.07,2.23-2.01,1.17.06,2.07,1.06,2.01,2.23Z"/>
                  <path class="cls-7" d="M169.99,158.67c-.06,1.17-1.06,2.07-2.23,2.01-1.17-.06-2.07-1.06-2.01-2.23.06-1.17,1.06-2.07,2.23-2.01,1.17.06,2.07,1.06,2.01,2.23Z"/>
                  <path class="cls-2" d="M164.49,160.51c-.06,1.17-1.06,2.07-2.23,2.01-1.17-.06-2.07-1.06-2.01-2.23.06-1.17,1.06-2.07,2.23-2.01,1.17.06,2.07,1.06,2.01,2.23Z"/>
                  <path class="cls-10" d="M167.94,160.97l.82-1.61c.24-.47.91-.5,1.18-.04l1.02,1.7c.28.46-.07,1.05-.61,1.02l-1.83-.09c-.49-.02-.79-.54-.57-.98Z"/>
                  <path class="cls-10" d="M162.37,161.14l1.63-.78c.48-.23,1.02.16.96.69l-.23,1.97c-.06.54-.7.79-1.11.44l-1.4-1.19c-.37-.32-.3-.91.14-1.12Z"/>
                  <path class="cls-10" d="M178.01,160.48l1.63-.78c.48-.23,1.02.16.96.69l-.23,1.97c-.06.54-.7.79-1.11.44l-1.4-1.19c-.37-.32-.3-.91.14-1.12Z"/>
                  <path class="cls-10" d="M172.71,156.76l1.63-.78c.48-.23,1.02.16.96.69l-.23,1.97c-.06.54-.7.79-1.11.44l-1.4-1.19c-.37-.32-.3-.91.14-1.12Z"/>
                </g>
              </g>
              <g>
                <path class="cls-1" d="M132.64,167.06l5.75,3.91s5.25,16.06,30.37,16.06,34.05-6.59,38.35-16.06l5.4-3.99c1.49-1.1.71-3.46-1.14-3.46l-77.65.04c-1.89,0-2.63,2.44-1.08,3.5Z"/>
                <path class="cls-9" d="M138.38,170.97s24.82,5.89,68.72,0"/>
              </g>
              <path class="cls-5" d="M164.18,194.51c-5.19-1.75-10.42-3.52-15.07-6.4-4.65-2.88-8.73-7.01-10.5-12.19-.12-.35-.23-.75-.08-1.09.29-.7,1.3-.65,2.01-.41,6.2,2.08,9.42,8.85,14.71,12.69-2.1-2.07-3.96-4.38-5.53-6.87-.57-.9-1.11-1.88-1.14-2.94-.02-1.07.66-2.22,1.72-2.36.97-.13,1.84.6,2.52,1.3,4.36,4.47,7.6,10.26,13.07,13.28-2.56-3-4.46-6.56-5.56-10.34-.5-1.72,1.29-3.17,2.86-2.32,1.38.75,2.65,1.89,3.81,2.95,4.45,4.04,9.38,7.55,14.67,10.42-2.03-2.1-3.75-4.51-5.08-7.11-.42-.82-.81-1.7-.81-2.62,0-.93.49-1.91,1.37-2.21.73-.25,1.53.01,2.25.32,2.21.94,4.27,2.23,6.07,3.83,3.28,2.91,8.12-1.22,11.84-3.53,3.73-2.31,7.01-5.31,10.81-7.49.66-.38,1.58-.7,2.09-.13.44.49.2,1.26-.11,1.84-2.23,4.18-6.57,6.75-9.69,10.31-4.79,5.47-6.48,13-10.58,19-.71,1.03-1.5,2.04-2.53,2.74-1.17.79-2.57,1.16-3.96,1.4-4.23.74-8.76.44-12.55-1.57-3.79-2.01-6.45-6.19-6.59-10.48Z"/>
              <g>
                <path class="cls-4" d="M181.58,152.6c.98-9.49-20-4.45-20.74-14.49.7-7.89,22.13-8.56,28.5-20.35,5.76-6.3,2.44-17.43-6.38-18.3,11.68,27.48-42.43,24.1-35.43,48.23,8,10.92,24.26-.71,34.04,4.92Z"/>
                <path class="cls-4" d="M164.59,118.09c9.56-4.34,11.62-19.03,2.11-24.51,15.81,4.78,17.13,27.72-2.11,24.51Z"/>
                <path class="cls-4" d="M179.58,100.33c-1.26-7.29-9.21-10.22-15.59-11.84,12.32-3.22,19.54,6.88,17.16,18.25-.56-2.02-1.25-4.33-1.57-6.41Z"/>
              </g>
            </g>
          </g>
          <g>
            <path class="cls-8" d="M166.61,214.92l26.58,21.81c.09.08.21.11.33.08,2.7-.53,34.05-7.08,44.35-27.24.03-.06.05-.13.05-.19v-1.57c0-2.57-1.79-4.79-4.31-5.32-9.41-1.98-31.23-7.42-34.8-15.85-.13-.3-.55-.31-.71-.03-1.26,2.17-4.99,8.72-7.46,14.54-3.94,9.29-8.02,17.77-23.66,13.08-.42-.13-.72.41-.38.69Z"/>
            <path class="cls-9" d="M234.63,202.82s-21.91-3.98-30.4-10.55c0,0-4.08-2.72-6.13-5.66"/>
            <path class="cls-9" d="M210.06,195.62s6.26,33.41-27.45,32.98"/>
            <line class="cls-9" x1="166.61" y1="214.92" x2="192.21" y2="236.82"/>
          </g>
        </g>
        <g>
          <path class="cls-12" d="M48.95,147.46c-1.47-2.58-3.75-9.42-2.83-12.46.94-3.08,9.17-2.83,11.47-1.77,1.74.8,3.39,2.41,3.24,4.32-.08.94-.57,1.78-1.06,2.59-.73,1.21-1.48,2.44-2.5,3.42-1.02.98-6.89,3.92-8.31,3.91"/>
          <path class="cls-12" d="M65.16,185.87s9.1-.18,4.96-34.09l-13.85,22.95,8.89,11.14Z"/>
          <path class="cls-5" d="M47.59,144.51c2.49-3.99,5.53-7.63,9.02-10.79,3.89-12.32,11.32-24.13,22.29-30.97,4.1-2.56,8.65-4.36,12.98-6.42,2.66-1.27,5.51-2.25,8.45-2.37.24,0,.47.01.69.09.47.16.86.66.72,1.14-.09.33-.4.55-.68.74-6.65,4.56-13.3,9.12-19.95,13.69,1.32.7,2.62.21,3.86-.61,5.69-3.8,11.38-7.6,17.07-11.39,1.93-1.29,3.89-2.59,6.12-3.22.6-.17,1.38-.23,1.72.31.17.27.15.6.06.92-.45,1.54-1.38,2.89-2.49,4.04-2.9,3.02-6.1,5.71-9.29,8.4-3.01,2.53-6.01,5.07-9.02,7.6.29.75,1.18.89,1.93.61,7.4-2.74,13.59-8.49,20.97-10.97,1.51-.5,2.65,1.41,1.48,2.48-.02.02-.05.04-.07.06-6.02,5.45-12.59,10.29-19.57,14.42.67.77,1.91.5,2.87.12,6.34-2.51,12.04-6.59,18.61-8.39.5-.14,1.11-.23,1.47.14.42.44.16,1.16-.16,1.67-1.41,2.24-3.65,3.82-5.82,5.33-2.87,2-5.75,4-8.88,5.56-2.55,1.27-5.28,2.25-7.49,4.03-1.73,1.39-3.06,3.2-4.37,5-3.85,5.28-7.78,10.72-13.28,14.26-1.99,1.28-4.17,2.3-6,3.82-1.36,1.13-2.49,2.52-3.56,3.93-4.37,5.73-8.04,12-10.9,18.61-4.41-3.52-6.89-9.01-7.87-14.56-.98-5.56-3.9-12.51-.91-17.29Z"/>
          <g>
            <path class="cls-8" d="M41.28,142.64c-3.12,6.9-7.61,12.68-13.39,17.51-11.02,13.82-22.23,29.36-27.26,46.45-4.11,15.42,12.8,28.04,26.69,21.68,7.3-5.16,12.86-12.9,17.97-20.16,4.34-6.96,7.67-15.47,15.15-18.85,3.94-1.23,7.2-3.42,8.39-6.93-16.9-4.73-16.46-22.34-20.26-37.84-1.23-5.03-.72-9.83-1.71-10.47,0,0-3.59,3.57-5.58,8.6Z"/>
            <path class="cls-9" d="M31.4,156.94s-2.22,26.33,20.11,37"/>
          </g>
        </g>
      </g>
    </g>
  </g>
</svg>