<?xml version="1.0" encoding="UTF-8"?>
<svg id="Camada_2" data-name="Camada 2" xmlns="http://www.w3.org/2000/svg" viewBox="0 0 237.01 234.17">
  <defs>
    <style>
      .cls-1 {
        fill: #f7b27f;
      }

      .cls-2 {
        fill: #c63f62;
      }

      .cls-3 {
        fill: #844313;
      }

      .cls-4 {
        fill: #fce2e8;
      }

      .cls-5 {
        fill: #427559;
      }

      .cls-6 {
        fill: none;
        stroke: #042122;
        stroke-linecap: round;
        stroke-linejoin: round;
      }

      .cls-7 {
        fill: #eb5b2b;
      }

      .cls-8 {
        fill: #042122;
      }
    </style>
  </defs>
  <g id="Page-3">
    <g id="_Camada_" data-name="&amp;lt;Camada&amp;gt;">
      <g>
        <circle class="cls-4" cx="147.32" cy="123.08" r="89.69" transform="translate(1.75 248.23) rotate(-80.56)"/>
        <g>
          <g>
            <path class="cls-8" d="M106.41,138.61c-4.67-8.51,2.45-13.93,9.04-19.77,5.5-4.88,7.85-11.91,6.81-18.89-1.5-10.03,4.78-19.91,7.86-29.59,2.35-7.41,9.48-12.22,17.24-11.82,12.66.65,25.45,2.45,34.04,11.89,4.18,5.2,4.99,12.38,9.79,17.1,4.23,4.16,11.81,5.88,17.69,8.88,5.38,2.75,8.29,8.79,7.17,14.73-1.49,7.93.22,9.3,4.74,16.44,1.79,2.83,2.47,6.29,1.59,9.53-5.56,20.44-57.49,2.13-73.86,3.02-13.57-1.12-30.21,6.43-42.12-1.51Z"/>
            <g>
              <path class="cls-5" d="M130.69,133.03c-1.52,2.46-2.98,5.47-1.81,8.1,1.19,2.67,4.49,3.57,7.38,4.03,11.83,1.87,23.98,1.65,35.73-.66,2.4-.47,4.85-1.06,6.85-2.46,3.95-2.76,5.22-7.9,7.17-12.31,1.92-4.34,4.74-8.29,8.22-11.51-.96.96-8.49-.24-10.01-.29-3.34-.1-6.68-.19-10.01-.29-6.7-.19-13.45-.18-20.14-.66-10.84-.77-18.04,7.4-23.38,16.04Z"/>
              <g>
                <path class="cls-5" d="M152.37,116.27c-5.03,1.39-10.03,2.89-15,4.5-7.56,2.44-15.13,5.18-21.71,9.63-8.31,5.62-14.64,13.69-20.17,22.05-4.94,7.48-9.37,15.29-13.23,23.38-2.31,4.82-5.44,10.25-4.69,15.55.89,6.34,7.55,15.06,13.11,11.88,15.18-8.68,31.03-26.15,43.12-42.2,2.9-3.84,5.79-7.71,8.1-11.93,5.49-10.02,7.48-21.66,12.92-31.71-.7-.37-2.11-1.88-2.45-1.16Z"/>
                <path class="cls-5" d="M223.63,209.95c.15-30.56,4.59-90.57-25.87-91.53-25.76,26.08-9.48,108.59-9.48,108.59,14.93-5.58,26.82-8.4,35.35-17.06Z"/>
              </g>
              <path class="cls-2" d="M144.91,118.42s-16.41,12.54-14.34,23.09l48.28.53s.1-14.25,13.96-23.62h4.96s-5.51,4.9-7.7,16.63c-3.4,18.26-3.55,67,.86,90.99,0,0-49.82,17.62-89.72.98,0,0,1.73-50.29,12.9-82.25,3.38-9.67,10.19-17.87,19.3-22.55,3.34-1.71,7.18-3.11,11.5-3.8Z"/>
              <g>
                <path class="cls-1" d="M37.8,101.69c4.67-4.65,6.61,12.19,6.98,15.1-.05,3.26-4.04,4-5.84,1.48-2.69-4.7-3.54-11.58-1.13-16.58Z"/>
                <path class="cls-1" d="M62.2,130.29c-3.56-8.99-13.44-8.67-13,2.13.16,11.78.94,23.72,2.77,35.98.36,2.42,4.67,1.32,6.9.32,14.89-6.73,8.89-27.48,3.33-38.43Z"/>
                <path class="cls-5" d="M77.36,171.07c-4.48-7.31-7.69-15.39-9.45-23.78-1.6,8.5-7.36,16.12-15.1,19.98-.89-1.98-1.51-4.09-1.84-6.23-1.42,4.08-.74,8.56-.04,12.82,1.2,7.31,2.4,14.61,3.59,21.92.95,5.78,2.03,11.87,5.82,16.34,2.61,3.09,6.85,5.19,10.73,4.05,1.44-.42,2.72-1.24,3.97-2.05,3.71-2.39,7.41-4.78,11.12-7.17,6.97-4.5,7.24-9.14,2.96-15.44-2.03-2.98-3.06-6.63-4.9-9.76-2.14-3.65-4.65-7.06-6.86-10.67Z"/>
                <g>
                  <path class="cls-7" d="M103.86,101.53c2.98,0,5.31-3.26,8.28-2.99,2.29.21,3.81,2.4,4.96,4.39-3.55,2.95-8.51,3.48-13.13,3.42-1.67-.02-4.95-.18-4.92-2.48.03-2.62,3.16-2.34,4.8-2.34Z"/>
                  <path class="cls-3" d="M2.53,108.3c20.26-1.77,93.85-2.09,112.99-6.69,1.54-.37,2.9,1.14,2.32,2.62-1.69,4.32-7.3,10.32-25.89,4.4L2.94,113.84c-1.44.08-2.71-.95-2.91-2.37H.03c-.23-1.58.91-3.03,2.5-3.17Z"/>
                </g>
                <g>
                  <path class="cls-1" d="M50.18,136.85c-4.61-.85-8.9-3.35-11.91-6.94-3.02-3.59-4.74-8.24-4.78-12.93,0-.88.04-1.78.32-2.62.27-.8.74-1.53,1.23-2.22,2.52-3.53,6.11-6.64,10.42-7.14,1.43-.16,3.18.17,3.72,1.5.38.94-.03,2.03-.69,2.79-.66.76-1.54,1.29-2.34,1.92-2.35,1.84-3.97,4.59-4.44,7.54,2.43-2.03,4.66-4.87,6.55-7.4.73-.98,1.61-2.09,2.83-2.11.86-.01,1.62.55,2.2,1.19.64.72,1.15,1.71.81,2.61,2.03.06,4.11,1.82,4.11,3.86,1.67,1.13,2.34,3.7,1.09,5.29-.8,1.02-2.08,1.56-2.94,2.53-1.07,1.2-1.37,2.89-1.46,4.49-.09,1.6-.03,3.25-.54,4.77-.51,1.52-2.61,3.15-4.19,2.86Z"/>
                  <path class="cls-6" d="M47.63,109.98c-3.25,2.16-5.55,5.7-6.2,9.55"/>
                  <path class="cls-6" d="M54.64,113.28c-3.29,1.98-6.18,5.6-8.96,9.8"/>
                  <path class="cls-6" d="M58.08,116.9c-2.87,2.03-6.74,6.1-7.94,9.4"/>
                  <path class="cls-6" d="M59.3,122.2c-2.94,2.53-3.65,4.1-4.09,7.68"/>
                  <path class="cls-6" d="M42.75,133.77c3.45,1.8,7.27,2.89,11.16,3.2"/>
                </g>
                <g>
                  <path class="cls-6" d="M51.29,161.17c.53,1.96.93,3.95,1.17,5.97,3.22-2.24,6.38-4.34,9.06-7.2"/>
                  <path class="cls-6" d="M51.77,175.63c2.67-.14,5.19-1.44,7.24-3.16,2.05-1.72,3.71-3.86,5.34-5.98"/>
                  <path class="cls-6" d="M81.32,176.9c3.23,3.99,5.26,8.93,5.77,14.04"/>
                </g>
              </g>
            </g>
          </g>
          <g>
            <g>
              <path class="cls-1" d="M176.81,119.46c-4.39-6.65-5.51-14.98-6.29-22.91-5.45,2.03-10.77,4.43-15.9,7.18-1.14.61-3.37,1.81-4.64,2.01,1.23,4.25.91,8.93-.91,12.97-1.2,2.66-4.25,4.05-3.96,6.95.2,1.93,1.58,3.59,3.27,4.53,1.69.94,3.66,1.25,5.6,1.36,9.25.49,17.12-4.81,22.83-12.1Z"/>
              <path class="cls-8" d="M159.87,111.98c2.75-2.43,5.12-5.29,6.99-8.45-5.93-2.57-11.53-.29-16.89,2.22.79,2.71.93,5.59.47,8.38,3.15,1.62,7.01.3,9.43-2.15Z"/>
            </g>
            <g>
              <path class="cls-1" d="M175.81,90.24c-4.04,6.52-8.27,13.24-14.47,17.48-1.75,1.19-3.71,2.2-5.8,2.21-2.4.02-4.63-1.26-6.56-2.77-7.24-5.67-11.48-14.78-13.31-24.08-1.83-9.3-1.5-18.89-1.15-28.38,4.47-5.68,12.41-7.55,19.41-7,9.67.76,19.91,5.89,23.28,15.45,1.03,2.91,1.36,6.04,1.68,9.12.61,5.85-.02,13.03-3.07,17.97Z"/>
              <path class="cls-8" d="M169.22,54.02c.65,1.41.16,3.24-1.1,4.15-1.26.91-4.93,1.88-6.06.83-1.96,3.15-3.64,4.22-7.32,4.61-.92.1-1.91.07-2.69-.42-.78-.49-1.25-1.59-.78-2.38-1.16,2.43-2.83,4.61-4.86,6.37-.69.59-1.49,1.16-2.4,1.14-1.17-.03-2.12-1.09-2.41-2.22-.3-1.14-.09-2.33.11-3.49-1.09,1.86-2.27,3.8-3.69,5.42-1.87,2.13-5.36.75-5.39-2.09-.04-3.88.57-7.77,1.8-11.45,3.06-9.11,16.74-9.84,26.09-7.62,3.89.92,7.05,3.53,8.71,7.16Z"/>
              <g>
                <path class="cls-8" d="M137.14,76.8c2.73-4.27,9.43-1.83,9.73,2.97-1.97-3.42-6.27-3.39-9.73-2.97Z"/>
                <path class="cls-7" d="M143.93,81.69c3.48,1,2.09,5.61-1.01,6.09-3.79,1.23-9.47-1.38-5.4-5.41,1.74-1.18,4.48-1.38,6.41-.68Z"/>
                <path class="cls-8" d="M137.14,71.86c3.42-3.42,11.99,1.8,10.22-1.62-.22-.43-.62-.57-.86-.63-2.99-1.1-8.1-1.54-9.37,2.25Z"/>
                <path class="cls-8" d="M170.36,76.8c-2.73-4.27-9.43-1.83-9.73,2.97,1.97-3.42,6.27-3.39,9.73-2.97Z"/>
                <path class="cls-7" d="M162.67,81.57c-3.8,1.16-2.19,6.19,1.21,6.65,4.17,1.28,10.35-1.68,5.82-6.03-1.93-1.26-4.93-1.43-7.03-.63Z"/>
                <path class="cls-8" d="M170.36,71.86c-3.42-3.42-11.99,1.8-10.22-1.62.22-.43.62-.57.86-.63,2.99-1.1,8.1-1.54,9.37,2.25Z"/>
                <path class="cls-6" d="M151.18,69.81c.68,3.39,1.34,6.87.8,10.28-.54,3.42-2.5,6.81-5.7,8.12,2.4,1.65,5.82,1.63,8.21-.04"/>
                <path class="cls-6" d="M159.71,94.84c-1.06,1.05-2.34,1.9-3.76,2.33-1.43.43-3.01.41-4.38-.18"/>
              </g>
              <path class="cls-8" d="M172.97,71.81c.81.98,1.76,1.88,2.88,2.47.49.26,1.04.47,1.59.39,1.23-.17,1.83-1.59,2.04-2.81.68-3.87-.19-7.99-2.38-11.26-.95-1.43-2.17-2.71-3.68-3.53-1.11-.6-4.01-1.61-5.09-.41-.9,1.01.04,3.6.28,4.74.76,3.7,1.91,7.44,4.35,10.41Z"/>
              <g>
                <path class="cls-2" d="M118.17,44.54c-2.98-3-5.93-6.87-5.17-11.03.38-2.1,1.67-3.91,2.43-5.91,1.14-3.02,1.02-6.36,1.62-9.53.59-3.18,2.27-6.54,5.36-7.5,1.35-.42,2.79-.32,4.2-.28,4.82.12,9.84-.63,13.83-3.34,1.76-1.2,3.26-2.74,5.01-3.97,5.78-4.06,14.17-3.96,19.85.25,1.53,1.13,2.88,2.53,4.54,3.47,1.7.96,3.65,1.39,5.58,1.72,7.06,1.2,14.48,1.26,20.94,4.36,1.46.7,2.91,1.62,3.64,3.06,1.03,2.04.33,4.5.68,6.76.62,4.03,4.36,6.73,7.84,8.87,3.48,2.13,7.31,4.55,8.38,8.49,1,3.71-.83,7.6-3.13,10.69-2.29,3.09-5.13,5.86-6.6,9.41-2.27,5.5-1.12,12.48-5.12,16.88-4.09,4.5-11.85,3.66-16.49-.28-5.34-4.53-7.49-11.94-12.66-16.67-5.32-4.87-12.93-6.15-20.1-6.93-4.08-.45-7.83-.51-11.76.76-2.38.77-4.81,2.01-7.38,1.77-5.78-.54-11.64-7.19-15.46-11.04Z"/>
                <path class="cls-2" d="M133.21,59.15s36.88-14.54,45.67,15.12c2.27-.01,4.76.21,7.03.2,1.52-4.58,2.4-9.37,2.59-14.19.12-2.86-.01-5.77-.92-8.49-2.67-8.02-11.4-12.41-19.7-13.96-11.13-2.07-22.92-.48-33.1,4.48-.88.43-1.79.92-2.29,1.77-.33.56-.28,1.26-.52,1.87-2.21,5.64.39,9.26,1.23,13.19Z"/>
                <g>
                  <path class="cls-8" d="M188.65,60.45c1.46,6.16,2.27,12.47,2.41,18.8-1.2.18-2.42-.38-3.29-1.23-2.62-2.55-1.71-4.37-.82-7.44.95-3.3,1.52-6.71,1.7-10.13Z"/>
                  <path class="cls-8" d="M131.8,54.5c-2.14-8.38,7.52-14.07,14.36-16.17-7.17.84-15.65,3.95-18.75,10.77.17,2.26,3.05,3.75,4.39,5.41Z"/>
                  <path class="cls-6" d="M128.91,47.62c-3.51-1.15-6.62-3.5-8.68-6.57-1.5-2.24-2.43-4.8-3.62-7.22"/>
                  <path class="cls-6" d="M131.75,44.39c-2.08-1.8-3.92-3.88-5.44-6.17"/>
                  <path class="cls-6" d="M136.51,41.7c-2.01-3.16-3.48-6.66-4.32-10.31"/>
                  <path class="cls-6" d="M141.65,39.14c-2.55-6.18-3.46-12.11-3.23-18.79"/>
                  <path class="cls-6" d="M146.07,37.67v-4.57"/>
                  <path class="cls-6" d="M154.85,36.91c.48-5.1,1.49-10.15,3.01-15.05"/>
                  <path class="cls-6" d="M160.17,36.91c-.19-1.88.14-3.81.95-5.52"/>
                  <path class="cls-6" d="M167.22,38.44c.98-5.52,4.28-10.59,8.92-13.73"/>
                  <path class="cls-6" d="M185.31,47.97c1.88-2.84,4.86-4.93,8.17-5.72"/>
                  <path class="cls-6" d="M187.77,53.66c1.37-1.17,3.02-2.02,4.76-2.47"/>
                  <path class="cls-6" d="M188.89,60.95c2.36.9,4.94,1.2,7.44.87"/>
                  <path class="cls-6" d="M190.05,68.53c2.04.55,4.18.73,6.29.55"/>
                  <path class="cls-6" d="M180.53,44.39s3.62-8.91,11.43-11.29"/>
                  <path class="cls-6" d="M174.92,39.77c.65-2.05,1.66-3.99,2.96-5.71"/>
                </g>
              </g>
              <g>
                <path class="cls-1" d="M186.59,81.92c-1.34,4.16-4.9,6.74-7.95,5.75-3.05-.98-4.44-5.15-3.1-9.31,1.34-4.16,4.9-6.74,7.95-5.75,3.05.98,4.44,5.15,3.1,9.31Z"/>
                <path class="cls-6" d="M183.62,76.46c-.64-.87-1.91-1.13-2.92-.76-1.01.37-1.77,1.26-2.18,2.26-.41,1-.49,2.1-.48,3.18.11-1.11,1.22-2.03,2.33-1.93,1.17.11,2.1,1.25,2.15,2.42.05,1.18-.65,2.31-1.62,2.97-.49.34-1.07.58-1.67.57-.6,0-1.21-.3-1.5-.82"/>
              </g>
            </g>
          </g>
        </g>
      </g>
    </g>
  </g>
</svg>