<?xml version="1.0" encoding="UTF-8"?>
<svg id="Camada_2" data-name="Camada 2" xmlns="http://www.w3.org/2000/svg" viewBox="0 0 30.78 53.71">
  <defs>
    <style>
      .cls-1 {
        fill: #95c23d;
      }
    </style>
  </defs>
  <g id="Page-3">
    <g id="_Camada_" data-name="&amp;lt;Camada&amp;gt;">
      <g>
        <path class="cls-1" d="M23.55,38.04c.13,1.23.46,2.43.98,3.55-2.69-5.42-17.98-12.25-8.61-1.27-2.3-.76-4.26-2.28-6.46-3.3-.54-.26-1.18-.5-1.86-.68-3.44-.91-5.36,3.86-2.21,5.5,1.37.72,2.85,1.29,4.04,1.88-2.25-.96-5.3-1.73-7.77-1.13-2.13.52-2.26,3.47-.21,4.24,3.06,1.14,6.27,1.88,9.52,2.19-2.33-.24-4.44,2.78-1.4,3.57,4.01,1.24,8.29-.26,12.21-1.75-3.06,6.76,17.62,1.41,4.69-13.99-1.05-1.25-3.11-.43-2.94,1.2Z"/>
        <path class="cls-1" d="M16.56,24.53c-1.19-.32-2.43-.44-3.66-.36,6.03-.56,17.9-12.36,4.28-7.57,1.54-1.87,3.66-3.16,5.41-4.83.44-.41.89-.92,1.31-1.49,2.09-2.88-1.67-6.39-4.34-4.04-1.16,1.02-2.23,2.19-3.21,3.1,1.71-1.75,3.53-4.32,3.85-6.84.28-2.18-2.42-3.36-3.88-1.72-2.16,2.45-4.01,5.17-5.47,8.09,1.07-2.09-.99-5.14-2.82-2.59-2.6,3.29-2.74,7.83-2.77,12.02C.05,13-2.41,34.22,16.62,27.7c1.54-.53,1.52-2.75-.06-3.17Z"/>
      </g>
    </g>
  </g>
</svg>