<?xml version="1.0" encoding="UTF-8"?>
<svg id="Camada_2" data-name="Camada 2" xmlns="http://www.w3.org/2000/svg" viewBox="0 0 61.23 62.74">
  <defs>
    <style>
      .cls-1 {
        fill: #251827;
      }

      .cls-2 {
        fill: #43b174;
      }

      .cls-3 {
        fill: #e68e3a;
      }
    </style>
  </defs>
  <g id="Page-3">
    <g id="_Camada_" data-name="&amp;lt;Camada&amp;gt;">
      <g>
        <path class="cls-3" d="M3.74,26.65s4.62-18.63,30.38-16.48c25.75,2.15,40.41,37.25,10.37,49.05C14.44,71.03-8.07,51.33,3.74,26.65Z"/>
        <path class="cls-2" d="M9.55,15.34S.83,7.91,2.77,5.65C4.71,3.39,10.2-2.43,10.85,1.12c.65,3.55,2.59,9.37,2.59,9.37,0,0,13.57-6.79,20.68-.32,7.11,6.46-10.66,0-8.72,3.55,1.94,3.55,11.96,9.05,8.08,11.96-3.88,2.91-17.13-4.2-17.13-4.2,0,0,1.29,13.57-.97,13.9-2.26.32-7.43-8.72-7.43-8.72,0,0-6.46,15.19-7.76,8.72-1.29-6.46,4.52-18.42,9.37-20.04Z"/>
        <path class="cls-1" d="M56.41,36.45h-.03c-.59-.01-1.06-.51-1.05-1.1.3-12.56-16.16-16.99-16.32-17.03-.57-.15-.92-.74-.77-1.31.15-.57.74-.92,1.31-.77.18.05,18.27,4.9,17.93,19.16-.01.58-.49,1.05-1.07,1.05Z"/>
      </g>
    </g>
  </g>
</svg>