<?xml version="1.0" encoding="UTF-8"?>
<svg id="Camada_2" data-name="Camada 2" xmlns="http://www.w3.org/2000/svg" viewBox="0 0 127.93 152.99">
  <defs>
    <style>
      .cls-1 {
        fill: #0c406a;
      }

      .cls-2 {
        fill: none;
        stroke: #341d35;
        stroke-linecap: round;
        stroke-linejoin: round;
        stroke-width: .75px;
      }

      .cls-3 {
        fill: #c63f62;
      }
    </style>
  </defs>
  <g id="Page-3">
    <g id="_Camada_" data-name="&amp;lt;Camada&amp;gt;">
      <g>
        <polygon class="cls-1" points="81.05 68.94 66.23 78.23 60.7 81.7 45.88 90.99 66.37 152.99 94.39 135.43 99.92 131.96 127.93 114.4 81.05 68.94"/>
        <polygon class="cls-1" points="7.29 33.02 6.48 31.72 3.71 33.46 0 27.54 43.93 0 47.6 5.84 45.42 7.21 46.28 8.58 7.29 33.02"/>
        <rect class="cls-3" x="8.14" y="11.92" width="27.84" height="3.99" rx="1.99" ry="1.99" transform="translate(-4.02 13.84) rotate(-32.08)"/>
        <g>
          <line class="cls-2" x1="11.67" y1="39.31" x2="15.12" y2="37.15"/>
          <line class="cls-2" x1="13.27" y1="41" x2="15.33" y2="39.7"/>
          <line class="cls-2" x1="14.88" y1="43.34" x2="16.95" y2="42.05"/>
          <line class="cls-2" x1="16.53" y1="45.48" x2="18.59" y2="44.19"/>
          <line class="cls-2" x1="18.13" y1="47.68" x2="20.2" y2="46.38"/>
          <line class="cls-2" x1="22.07" y1="52.28" x2="24.13" y2="50.99"/>
          <line class="cls-2" x1="23.68" y1="54.63" x2="25.74" y2="53.34"/>
          <line class="cls-2" x1="25.32" y1="56.77" x2="27.39" y2="55.47"/>
          <line class="cls-2" x1="26.93" y1="58.96" x2="28.99" y2="57.67"/>
          <line class="cls-2" x1="30.83" y1="63.81" x2="32.9" y2="62.51"/>
          <line class="cls-2" x1="32.44" y1="66.16" x2="34.51" y2="64.86"/>
          <line class="cls-2" x1="34.09" y1="68.29" x2="36.15" y2="67"/>
          <line class="cls-2" x1="35.69" y1="70.49" x2="37.76" y2="69.19"/>
          <line class="cls-2" x1="38.83" y1="74.47" x2="40.9" y2="73.18"/>
          <line class="cls-2" x1="40.45" y1="76.82" x2="42.51" y2="75.52"/>
          <line class="cls-2" x1="42.09" y1="78.95" x2="44.15" y2="77.66"/>
          <line class="cls-2" x1="43.7" y1="81.15" x2="45.76" y2="79.86"/>
          <path class="cls-2" d="M63.56,12.75c-.59-.22-1.25-.16-1.78.18l-10.41,6.53-5.39-10.69-16.73,10.49-5.53,3.47-16.73,10.49,42.46,55.54,11.24-7.05,5.53-3.47,11.24-7.05-4.52-8.95,3.78-2.37c.76-.48,1.11-1.4.86-2.27l-12.82-43.53c-.18-.6-.63-1.09-1.21-1.31ZM73.32,57.26l-2.18,1.37-17.95-35.57,8.48-5.32,11.64,39.53Z"/>
          <line class="cls-2" x1="20.53" y1="50.28" x2="23.98" y2="48.12"/>
          <line class="cls-2" x1="28.98" y1="61.51" x2="32.43" y2="59.35"/>
          <line class="cls-2" x1="37.45" y1="72.73" x2="40.9" y2="70.56"/>
        </g>
        <g>
          <line class="cls-2" x1="64.97" y1="148.76" x2="125.02" y2="111.12"/>
          <circle class="cls-3" cx="80.59" cy="107.51" r="11.43"/>
          <line class="cls-2" x1="74.52" y1="97.82" x2="75.84" y2="99.94"/>
          <line class="cls-2" x1="85.34" y1="115.08" x2="86.66" y2="117.2"/>
          <line class="cls-2" x1="90.28" y1="101.44" x2="88.16" y2="102.76"/>
          <line class="cls-2" x1="73.02" y1="112.26" x2="70.9" y2="113.58"/>
          <line class="cls-2" x1="91.74" y1="110.07" x2="89.3" y2="109.51"/>
          <line class="cls-2" x1="71.88" y1="105.51" x2="69.44" y2="104.95"/>
          <line class="cls-2" x1="78.03" y1="118.66" x2="78.59" y2="116.22"/>
          <line class="cls-2" x1="82.59" y1="98.8" x2="83.15" y2="96.36"/>
        </g>
      </g>
    </g>
  </g>
</svg>