<?xml version="1.0" encoding="UTF-8"?>
<svg id="Camada_2" data-name="Camada 2" xmlns="http://www.w3.org/2000/svg" viewBox="0 0 105.21 90.99">
  <defs>
    <style>
      .cls-1 {
        fill: none;
        stroke: #341d35;
        stroke-linecap: round;
        stroke-linejoin: round;
        stroke-width: .75px;
      }

      .cls-2 {
        fill: #c63f62;
      }

      .cls-3 {
        fill: #341d35;
      }

      .cls-4 {
        fill: #ed6e24;
      }
    </style>
  </defs>
  <g id="Page-3">
    <g id="_Camada_" data-name="&amp;lt;Camada&amp;gt;">
      <g>
        <path class="cls-2" d="M0,51.51s23.88-14.15,40.71-31.72C57.54,2.23,59.26-2.99,66.2,1.56c6.94,4.55-.49,19.97-.49,19.97,0,0,27.87-15.11,36.63-1.15,8.76,13.97-4.1,38.13-18.09,46.26-13.99,8.12-43,12.36-57.48,24.36L0,51.51Z"/>
        <path class="cls-4" d="M13.21,70.98s-9.65.38-10,4.96c0,0-2.74-6,8.36-7.38l1.64,2.42Z"/>
        <path class="cls-3" d="M15.25,73.99s-7.49,9.9-12.05,1.96c0,0-.08-1.12,1.46-2.52,0,0,.97,4.5,4.46,2.82,3.49-1.68,4.4-4.79,4.4-4.79l1.72,2.53Z"/>
        <g>
          <path class="cls-1" d="M7.77,46.55s16.35,21.59,26.45,38.97"/>
          <path class="cls-1" d="M64.54.62s9.89,1.59,1.18,20.91"/>
          <path class="cls-1" d="M62.01,25.54s30.34-17.55,39.05-4.46c8.71,13.09-4.36,30.57-11.02,37.55"/>
          <path class="cls-1" d="M8.13,47.03S.11,51.72,2.58,54.8c2.47,3.08,9.76-2.07,9.76-2.07"/>
          <path class="cls-1" d="M11.27,51.46s-8.03,4.69-5.56,7.76c2.47,3.08,9.76-2.07,9.76-2.07"/>
          <path class="cls-1" d="M14.41,55.88s-8.03,4.69-5.56,7.76c2.47,3.08,9.76-2.07,9.76-2.07"/>
          <path class="cls-1" d="M17.3,60.42s-8.03,4.69-5.56,7.76c2.47,3.08,9.76-2.07,9.76-2.07"/>
          <path class="cls-1" d="M20.69,64.73s-8.03,4.69-5.56,7.76c2.47,3.08,9.41-1.83,9.41-1.83"/>
          <path class="cls-1" d="M23.37,69.35s-8.03,4.69-5.56,7.76c2.47,3.08,9.76-2.07,9.76-2.07"/>
          <path class="cls-1" d="M26.88,73.71s-8.39,5.36-5.92,8.43c2.47,3.08,9.76-2.07,9.76-2.07"/>
          <path class="cls-1" d="M29.77,79.31s-7.95,4.76-5.59,7.74c2.36,2.98,9.61-2.21,9.61-2.21"/>
        </g>
      </g>
    </g>
  </g>
</svg>