<?xml version="1.0" encoding="UTF-8"?>
<svg id="Camada_2" data-name="Camada 2" xmlns="http://www.w3.org/2000/svg" viewBox="0 0 116.75 99.13">
  <defs>
    <style>
      .cls-1 {
        fill: #3b1212;
      }

      .cls-2 {
        fill: #9c3052;
      }

      .cls-3 {
        fill: #c63f62;
      }

      .cls-4 {
        fill: #dd4948;
      }

      .cls-5 {
        fill: #e68e3c;
      }

      .cls-6 {
        fill: #fbfcfd;
      }
    </style>
  </defs>
  <g id="Page-3">
    <g id="_Camada_" data-name="&amp;lt;Camada&amp;gt;">
      <g>
        <path class="cls-3" d="M26.35,14.56c3.27-2.85,15.13-9.5,19.22-10.83,6.79-3.48,12.32-2.41,17.08,3.56,1.61-1.07,3.77-2.76,5.7-2.73,2.7-.14,7.03-3.83,12.52-4.47,1.77-.29,3.73.11,5.44.61l2.71.61c6.28,2.63,9.01,9.15,11.85,15.21l.33.67c3.27,6.02,6.47,12.07,9.58,18.17,2.22,4.28,6.62,11.12,5.87,15.89-.41,2.53-1.54,4.41-3.63,5.94-7.47,4.52-71.34,40.16-74.76,40.8l-1.05.13c-2.02.55-4.5,1.29-6.6.86-4.1.19-8.92-1.34-10.72-5.27C14.88,82.8,3.79,66.64.57,55.53c-.64-2.29-.75-4.69-.3-7.03,1.56-7.68,9.74-10.82,15.76-14.92l.08-.83c1.35-1.38,3.29-2.27,5.02-3.19-1.75-6.63-.62-11.1,5.21-15Z"/>
        <path class="cls-3" d="M100.4,18.75l.81-1.55c3.27,6.02,6.47,12.07,9.58,18.17,2.22,4.28,6.62,11.12,5.87,15.89-.41,2.53-1.54,4.41-3.63,5.94-7.47,4.52-71.34,40.16-74.76,40.8l.2-.74c-7.56-.08-11.17-9.85-14.17-15.67-2.88-5.61-5.8-11.2-8.75-16.78,8.76-2.03,27.37-13.39,35.91-17.94.98,1.86,3.32,7.39,5.79,6.67,3.6-1.05,11.11-4.81,13.17-7.78.52-2.15-1.77-5.55-2.87-7.59,6.28-3.3,28.77-15.32,32.83-19.42Z"/>
        <path class="cls-3" d="M38.48,97.26c3.26-2.25,7.41-3.88,10.93-5.75l22.18-12.03c8.71-4.71,17.32-9.62,25.98-14.42,4.91-2.72,10.13-6.14,15.47-7.86-7.47,4.52-71.34,40.16-74.76,40.8l.2-.74Z"/>
        <path class="cls-3" d="M100.4,18.75l.81-1.55c3.27,6.02,6.47,12.07,9.58,18.17,2.22,4.28,6.62,11.12,5.87,15.89-1.02-1.07-.52-3.24-1.33-4.81-4.64-9.11-9.39-18.38-14.23-27.4-.24-.1-.47-.2-.71-.3Z"/>
        <path class="cls-1" d="M26.35,14.56c3.27-2.85,15.13-9.5,19.22-10.83,6.79-3.48,12.32-2.41,17.08,3.56,1.61-1.07,3.77-2.76,5.7-2.73,2.7-.14,7.03-3.83,12.52-4.47,1.77-.29,3.73.11,5.44.61l2.71.61-.2.68c-6.19-.93-12.01,3.35-17.38,6.28l-18.43,10.1-25.31,14.02c-18.87,10.55-23.53,10.45-12.63,31.41,7.62-1.99,27.88-13.9,35.94-18.01-.7-1.41-1.58-2.8-1.43-4.32.55-1.49,2-2.26,3.35-3.08,1.71-.76,5.96-3.04,7.31-4.21,1.39-.53,2.36-1.06,3.82-.81,1.64.78,2.18,2.16,3.02,3.76l19.86-11.12c4.05-2.28,10.97-5.55,13.4-9.32l.52-.16.33.67-.81,1.55c-4.06,4.11-26.55,16.12-32.83,19.42,1.11,2.04,3.4,5.44,2.87,7.59-2.06,2.97-9.57,6.73-13.17,7.78-2.47.72-4.81-4.8-5.79-6.67-8.55,4.54-27.15,15.9-35.91,17.94,2.95,5.58,5.86,11.17,8.75,16.78,3,5.82,6.6,15.59,14.17,15.67l-.2.74-1.05.13c-2.02.55-4.5,1.29-6.6.86-4.1.19-8.92-1.34-10.72-5.27C14.88,82.8,3.79,66.64.57,55.53c-.64-2.29-.75-4.69-.3-7.03,1.56-7.68,9.74-10.82,15.76-14.92l.08-.83c1.35-1.38,3.29-2.27,5.02-3.19-1.75-6.63-.62-11.1,5.21-15Z"/>
        <path class="cls-4" d="M26.35,14.56c3.27-2.85,15.13-9.5,19.22-10.83,6.79-3.48,12.32-2.41,17.08,3.56.82,1.39.92,1.05.67,2.31-.92,1.02-2.79,1.7-4.09,2.29l-.93-.52c-4.3,1.85-10.34,5.31-14.54,7.67-5.08,2.85-11.01,5.93-15.91,8.95l-.6,1.14c-.81.98-2.89,2.31-4.22,2.39-1.38-.44-.98-.35-1.89-1.96-1.75-6.63-.62-11.1,5.21-15Z"/>
        <path class="cls-6" d="M45.44,8.87c5.63-2.27,8.57-3.87,12.77,1.57l.1.93c-4.3,1.85-10.34,5.31-14.54,7.67-5.08,2.85-11.01,5.93-15.91,8.95l-.69.25-.61-.43c-2.4-6.93,2.2-9.16,7.31-12.48,3.84-2.19,7.74-4.26,11.58-6.47Z"/>
        <path class="cls-2" d="M26.55,27.81c2.41-1.87,28.71-16.16,31.65-17.38l.1.93c-4.3,1.85-10.34,5.31-14.54,7.67-5.08,2.85-11.01,5.93-15.91,8.95l-.69.25-.61-.43Z"/>
        <path class="cls-3" d="M16.04,33.59l1.2,1.27c-2.21.39-3.3,1.34-5.05,2.24C.48,43.14-1.88,50.35,4.09,62.12c.3.58.96,2.03,1.23,2.72l.39.65.75.15c3.1-.06,4.98-.17,8.04-.58,4.83,9.42,9.51,19.21,14.97,28.23,1.67,2.76,4.6,4.04,7.54,4.8l.22.05c-2.02.55-4.5,1.29-6.6.86-4.1.19-8.92-1.34-10.72-5.27C14.88,82.8,3.79,66.64.57,55.53c-.64-2.29-.75-4.69-.3-7.03,1.56-7.68,9.74-10.82,15.76-14.92Z"/>
        <path class="cls-2" d="M16.04,33.59l1.2,1.27c-2.21.39-3.3,1.34-5.05,2.24C.48,43.14-1.88,50.35,4.09,62.12c.3.58.96,2.03,1.23,2.72l.39.65.75.15c-.22,2.95,12.94,26.2,15.46,30.02,1.44,2.19,5.98,1.46,8.72,3.34-4.1.19-8.92-1.34-10.72-5.27C14.88,82.8,3.79,66.64.57,55.53c-.64-2.29-.75-4.69-.3-7.03,1.56-7.68,9.74-10.82,15.76-14.92Z"/>
        <path class="cls-3" d="M5.32,64.84c-.27-.69-.94-2.14-1.23-2.72C-1.88,50.35.48,43.14,12.2,37.1c1.75-.9,2.83-1.85,5.05-2.24l.74,1.78c-4.07,2.45-8.08,4.51-9.37,9.55-1.49,5.82,2.69,12.74,5.33,17.85-1.7.12-7.35.41-8.62.8Z"/>
        <path class="cls-3" d="M27.85,28c4.9-3.02,10.83-6.1,15.91-8.95,4.2-2.36,10.24-5.82,14.54-7.67l.93.52c.58.33,1.34.67,1.72,1.19-10.88,5.84-21.7,11.77-32.48,17.79l-1.23-1.74.6-1.14Z"/>
        <path class="cls-3" d="M68.35,4.56c2.7-.14,7.03-3.83,12.52-4.47,1.77-.29,3.73.11,5.44.61-1.41.29-3.22.81-4.65,1.18-2.43,1.55-8.27,4.42-11.14,5.96-.45-1.02-1.49-2.34-2.16-3.29Z"/>
        <path class="cls-3" d="M68.35,4.56c2.7-.14,7.03-3.83,12.52-4.47-2,.93-10.25,4.1-10.94,5.45l.24.8c2.5.98,8.33-3.62,11.49-4.46-2.43,1.55-8.27,4.42-11.14,5.96-.45-1.02-1.49-2.34-2.16-3.29Z"/>
        <path class="cls-5" d="M16.04,33.59l.08-.83c1.35-1.38,3.29-2.27,5.02-3.19.91,1.61.52,1.53,1.89,1.96,1.33-.08,3.41-1.41,4.22-2.39l1.23,1.74c-3.3,1.88-7.11,4.17-10.49,5.76l-.74-1.78-1.2-1.27Z"/>
        <path class="cls-5" d="M20.66,31.07l.33-.05c.87.37.87.54,1.31,1.33-.59,1.29-1.95,1.87-3.1,2.67-.8-.33-1.22-.59-1.79-1.25l.15-.8c.61-.49,1.17-.94,1.89-1.26.34-.15.65-.28.96-.48.08-.05.16-.11.25-.16Z"/>
        <path class="cls-5" d="M62.65,7.29c1.61-1.07,3.77-2.76,5.7-2.73.68.94,1.71,2.27,2.16,3.29-3.13,1.71-6.49,3.46-9.56,5.23-.38-.51-1.14-.86-1.72-1.19,1.3-.59,3.17-1.28,4.09-2.29.25-1.26.14-.92-.67-2.31Z"/>
        <path class="cls-5" d="M52.19,39.91c3.35-1.9,7.41-4.81,11.13-5.69.49.1.83.21,1.21.55,1.75,1.59,5.2,7.74,5.24,10.13.02.91-.55,1.28-1.12,1.93-3.33,1.78-7.5,5.06-11.16,5.78-.62.12-.8.03-1.32-.34-2.62-1.88-5.09-7.24-5.71-10.32.33-1.21.74-1.34,1.72-2.04Z"/>
        <path class="cls-3" d="M89.03,1.31c6.28,2.63,9.01,9.15,11.85,15.21l-.52.16c-3.28-6.19-5.16-11.36-11.53-14.7l.2-.68Z"/>
      </g>
    </g>
  </g>
</svg>