<?xml version="1.0" encoding="UTF-8"?>
<svg id="Camada_2" data-name="Camada 2" xmlns="http://www.w3.org/2000/svg" viewBox="0 0 98.01 72.93">
  <defs>
    <style>
      .cls-1 {
        fill: none;
        stroke: #341d35;
        stroke-linecap: round;
        stroke-linejoin: round;
        stroke-width: .75px;
      }

      .cls-2 {
        fill: #e6872b;
      }

      .cls-3 {
        fill: #e68e3a;
      }
    </style>
  </defs>
  <g id="Page-3">
    <g id="_Camada_" data-name="&amp;lt;Camada&amp;gt;">
      <g>
        <path class="cls-3" d="M97.3,48.83c-4.48,10.03-23.83,35.96-64.43,17.81C-7.09,48.78-1.31,16.78,3.17,6.75,7.66-3.28,32.36-1.98,58.35,9.64c25.99,11.62,43.43,29.17,38.95,39.2Z"/>
        <ellipse class="cls-2" cx="50.24" cy="27.79" rx="19.89" ry="51.55" transform="translate(4.36 62.31) rotate(-65.91)"/>
        <path class="cls-3" d="M60.25,31.78s1.56-5.91-8.19-10.27c-9.75-4.36-13.12.74-13.12.74l-9.64,17.1c8.87,4.96,12,6.22,12,6.22,0,0,3.03,1.49,12.64,4.79l6.31-18.58Z"/>
        <path class="cls-1" d="M59.63,30.09c-1.07,2.39-6.23,2.41-11.52.05-5.29-2.37-8.72-6.22-7.65-8.62,1.07-2.39,6.23-2.41,11.52-.05,5.29,2.37,8.72,6.22,7.65,8.62Z"/>
        <path class="cls-1" d="M8.36,22.64S-1.17,51.4,31.19,65.87c32.36,14.47,50.82-10.31,50.82-10.31"/>
        <path class="cls-1" d="M17.52,31.34s-9.12,24.34,15,35.13c24.13,10.79,35.24-12.23,35.24-12.23"/>
        <path class="cls-1" d="M26.15,37.77s-8.74,21.94,5.95,28.5c14.69,6.56,24.58-14.46,24.58-14.46"/>
        <path class="cls-1" d="M35.99,43.02s-9.02,20.97-4.1,23.16c4.91,2.2,14.3-18.42,14.3-18.42"/>
        <path class="cls-1" d="M93.82,52.69c-8.71,5.52-29.74,3.07-51.7-6.74C20.18,36.14,4.33,22.1,2.62,11.93"/>
      </g>
    </g>
  </g>
</svg>