<?xml version="1.0" encoding="UTF-8"?>
<svg id="Camada_2" data-name="Camada 2" xmlns="http://www.w3.org/2000/svg" viewBox="0 0 32.55 120.61">
  <defs>
    <style>
      .cls-1 {
        fill: #341d35;
      }

      .cls-2 {
        fill: #6d5ba4;
      }

      .cls-3 {
        fill: #cc4829;
      }

      .cls-4 {
        fill: #ed6e24;
      }
    </style>
  </defs>
  <g id="Page-3">
    <g id="_Camada_" data-name="&amp;lt;Camada&amp;gt;">
      <g>
        <path class="cls-3" d="M30.88,15.14c-1.71-9.49-14.61-9.31-14.61-9.31,0,0-12.9-.17-14.61,9.31C-.04,24.63,7.53,24.73,7.53,29.42h17.48c0-4.69,7.57-4.8,5.86-14.29Z"/>
        <path class="cls-2" d="M25.02,29.42H7.53L0,112.49s3.66,8.12,16.27,8.12,16.28-8.12,16.28-8.12l-7.53-83.07Z"/>
        <path class="cls-4" d="M25.77,30.86H6.89c-.83,0-1.52-.68-1.52-1.52h0c0-.83.68-1.52,1.52-1.52h18.88c.83,0,1.52.68,1.52,1.52h0c0,.83-.68,1.52-1.52,1.52Z"/>
        <path class="cls-3" d="M18.35,4.16h-3.3c-1.14,0-2.08-.94-2.08-2.08h0c0-1.14.94-2.08,2.08-2.08h3.3c1.14,0,2.08.94,2.08,2.08h0c0,1.14-.94,2.08-2.08,2.08Z"/>
        <rect class="cls-1" x="15.05" y="4.16" width="3.33" height="3.33"/>
      </g>
    </g>
  </g>
</svg>