<?xml version="1.0" encoding="UTF-8"?>
<svg id="Camada_2" data-name="Camada 2" xmlns="http://www.w3.org/2000/svg" viewBox="0 0 130 89.77">
  <defs>
    <style>
      .cls-1 {
        fill: none;
        stroke: #341d35;
        stroke-linecap: round;
        stroke-linejoin: round;
        stroke-width: .75px;
      }

      .cls-2 {
        fill: #f8bf16;
      }

      .cls-3 {
        fill: #6d5ba4;
      }
    </style>
  </defs>
  <g id="Page-3">
    <g id="_Camada_" data-name="&amp;lt;Camada&amp;gt;">
      <g>
        <path class="cls-3" d="M122.48,12.61l-.03.02c-2.06-3.15-6.19-9-10.44-12.35-.48-.38-1.16-.36-1.64.02-3.98,3.19-21.36,17.29-22.47,21.48-1.26,4.73.62,9.05-6.25,13.25-6.38,3.89-71.24,45.08-80.53,50.99-.62.39-.8,1.2-.42,1.83l.17.28.15.25.17.28c.38.62,1.19.83,1.82.46,9.5-5.56,75.81-44.39,82.19-48.28,6.87-4.19,9.86-.54,14.64.5,4.24.92,24.73-8.07,29.39-10.16.56-.25.89-.85.77-1.45-1.04-5.31-4.35-11.66-6.21-14.93l.03-.02s-.24-.4-.67-1.08c-.41-.69-.66-1.09-.66-1.09ZM93.52,23.2l11.25-6.86c.63-.39,1.46-.19,1.85.45h0c.39.63.19,1.46-.45,1.85l-11.25,6.86c-.63.39-1.46.19-1.85-.45h0c-.39-.63-.19-1.46.45-1.85ZM112.53,29.05l-11.25,6.86c-.63.39-1.46.19-1.85-.45h0c-.39-.63-.19-1.46.45-1.85l11.25-6.86c.63-.39,1.46-.19,1.85.45h0c.39.63.19,1.46-.45,1.85ZM113.24,21.47l-15.14,9.24c-.63.39-1.46.19-1.85-.45h0c-.39-.63-.19-1.46.45-1.85l15.14-9.24c.63-.39,1.46-.19,1.85.45h0c.39.63.19,1.46-.45,1.85Z"/>
        <path class="cls-2" d="M64.6,45.74C40.48,61,0,86.72,0,86.72l1.86,3.05s41.39-24.23,65.99-38.7l-3.25-5.33Z"/>
        <line class="cls-1" x1="1.01" y1="88.37" x2="84.72" y2="37.3"/>
      </g>
    </g>
  </g>
</svg>