<?xml version="1.0" encoding="UTF-8"?>
<svg id="Camada_2" data-name="Camada 2" xmlns="http://www.w3.org/2000/svg" viewBox="0 0 122.52 99.65">
  <defs>
    <style>
      .cls-1 {
        fill: #fff;
      }

      .cls-2 {
        fill: #95c23d;
      }

      .cls-3 {
        opacity: .52;
      }

      .cls-4 {
        fill: #427559;
      }
    </style>
  </defs>
  <g id="Page-3">
    <g id="_Camada_" data-name="&amp;lt;Camada&amp;gt;">
      <g>
        <g>
          <path class="cls-2" d="M2.93,21.48c1.96,2.05,4.66,3.19,7.28,4.27,24.89,10.27,49.78,20.55,74.67,30.82,2.41,1,4.9,2.01,7.51,2.07,2.61.06,5.42-1.05,6.64-3.36,1.28-2.43.52-5.41-.58-7.93-6.03-13.88-20.23-22.09-33.62-29.14C50.09,10.45,35.5,3.93,19.08.72,13.28-.42,9.32-.71,4.68,3.69-.12,8.22-2.08,16.25,2.93,21.48Z"/>
          <g>
            <path class="cls-4" d="M49.98,39.41c-12.02-7.49-25.11-12.91-38.91-16.11l.23-.97c13.9,3.22,27.1,8.68,39.21,16.23l-.53.85Z"/>
            <path class="cls-4" d="M24.33,17.53c-4.52-2.32-9.36-3.92-14.38-4.73l.16-.99c5.13.83,10.07,2.46,14.68,4.83l-.46.89Z"/>
            <path class="cls-4" d="M17.47,18.17c-2.4-.6-4.86-1.07-7.31-1.38l.13-.99c2.49.32,4.99.79,7.43,1.41l-.24.97Z"/>
            <path class="cls-4" d="M34.61,11.27c-5.94-1.8-12.04-3.3-18.14-4.46l.19-.98c6.13,1.16,12.27,2.67,18.24,4.48l-.29.96Z"/>
            <path class="cls-4" d="M75.72,40.44c-10.2-4.54-20.76-8.57-31.39-11.99l.31-.95c10.66,3.42,21.25,7.47,31.49,12.02l-.41.91Z"/>
            <rect class="cls-4" x="59.71" y="38.63" width="1" height="7.82" transform="translate(3.58 89.74) rotate(-75.05)"/>
            <path class="cls-4" d="M77.9,29.44c-5.08-2.75-10.48-4.92-16.05-6.46l.27-.96c5.64,1.56,11.12,3.76,16.26,6.55l-.48.88Z"/>
            <path class="cls-4" d="M73.89,34.45c-1.44-.82-3-1.41-4.63-1.75l.2-.98c1.73.36,3.39.98,4.92,1.86l-.5.87Z"/>
            <path class="cls-4" d="M93.02,54.34c-3.72-2.05-7.65-3.76-11.68-5.09l.31-.95c4.09,1.35,8.08,3.09,11.85,5.17l-.48.88Z"/>
          </g>
        </g>
        <g>
          <ellipse class="cls-4" cx="33.06" cy="59.92" rx="13.41" ry="12.08"/>
          <ellipse class="cls-2" cx="33.01" cy="58.83" rx="12.19" ry="10.99"/>
          <g class="cls-3">
            <path class="cls-1" d="M35.51,58.82c0,1.51-1.22,2.73-2.73,2.73s-2.73-1.22-2.73-2.73,1.22-2.73,2.73-2.73,2.73,1.22,2.73,2.73Z"/>
          </g>
          <path class="cls-4" d="M36.26,65.75c-.86-.85-1.64-1.8-2.32-2.8l.83-.56c.65.95,1.39,1.84,2.2,2.65l-.71.71Z"/>
          <rect class="cls-4" x="38.66" y="58.7" width="1" height="3.72" transform="translate(-29.67 82.07) rotate(-74.47)"/>
          <rect class="cls-4" x="38.24" y="54.28" width="3.85" height="1" transform="translate(-17.16 18.33) rotate(-21.3)"/>
          <path class="cls-4" d="M30.4,54.73c-.53-.84-.85-1.81-.93-2.8l1-.08c.07.83.34,1.64.78,2.35l-.85.53Z"/>
          <rect class="cls-4" x="24.92" y="54.29" width="1" height="4.4" transform="translate(-33.33 76.13) rotate(-84.25)"/>
          <path class="cls-4" d="M25.21,64.16l-.77-.63c.84-1.02,1.81-1.92,2.89-2.68l.57.82c-1,.7-1.91,1.54-2.69,2.5Z"/>
          <path class="cls-4" d="M30.1,66.5c-.11-.75.21-1.55.79-2.04l.64.77c-.32.26-.5.72-.44,1.13l-.99.14Z"/>
        </g>
        <g>
          <ellipse class="cls-4" cx="105.71" cy="78.31" rx="16.82" ry="15.15"/>
          <ellipse class="cls-2" cx="105.65" cy="76.94" rx="15.29" ry="13.78"/>
          <g class="cls-3">
            <path class="cls-1" d="M108.79,76.93c0,1.89-1.54,3.43-3.43,3.43s-3.43-1.54-3.43-3.43,1.54-3.43,3.43-3.43,3.43,1.54,3.43,3.43Z"/>
          </g>
          <path class="cls-4" d="M109.72,85.62c-1.08-1.07-2.06-2.25-2.91-3.51l1.04-.71c.81,1.19,1.74,2.31,2.76,3.33l-.88.89Z"/>
          <rect class="cls-4" x="112.74" y="76.78" width="1.25" height="4.66" transform="translate(6.79 167.15) rotate(-74.47)"/>
          <rect class="cls-4" x="112.2" y="71.24" width="4.82" height="1.25" transform="translate(-18.28 46.55) rotate(-21.3)"/>
          <path class="cls-4" d="M102.37,71.81c-.66-1.06-1.07-2.27-1.17-3.51l1.25-.1c.08,1.04.42,2.06.98,2.94l-1.06.67Z"/>
          <rect class="cls-4" x="95.51" y="71.25" width="1.25" height="5.52" transform="translate(12.87 162.25) rotate(-84.25)"/>
          <path class="cls-4" d="M95.87,83.62l-.97-.8c1.05-1.28,2.27-2.41,3.62-3.36l.72,1.03c-1.26.88-2.39,1.94-3.37,3.13Z"/>
          <path class="cls-4" d="M102,86.56c-.13-.95.26-1.95.99-2.55l.8.97c-.4.33-.62.9-.55,1.41l-1.24.17Z"/>
        </g>
        <g>
          <ellipse class="cls-4" cx="61.49" cy="89.79" rx="10.89" ry="9.81" transform="translate(-16.67 14.06) rotate(-11.5)"/>
          <ellipse class="cls-2" cx="61.28" cy="88.93" rx="9.9" ry="8.92" transform="translate(-16.5 14) rotate(-11.5)"/>
          <g class="cls-3">
            <path class="cls-1" d="M63.27,88.52c.24,1.2-.53,2.37-1.73,2.62s-2.37-.53-2.62-1.73c-.24-1.2.53-2.37,1.73-2.62,1.2-.24,2.37.53,2.62,1.73Z"/>
          </g>
          <path class="cls-4" d="M64.98,93.91c-.82-.54-1.6-1.16-2.3-1.85l.57-.58c.67.65,1.4,1.24,2.18,1.76l-.45.68Z"/>
          <rect class="cls-4" x="66.05" y="87.8" width=".81" height="3.02" transform="translate(-27.31 149.32) rotate(-85.97)"/>
          <rect class="cls-4" x="64.75" y="84.14" width="3.12" height=".81" transform="translate(-35.23 49.41) rotate(-32.8)"/>
          <path class="cls-4" d="M58.54,86.09c-.56-.58-.97-1.3-1.19-2.08l.78-.22c.19.65.53,1.25,1,1.74l-.59.56Z"/>
          <rect class="cls-4" x="53.07" y="87.89" width="3.57" height=".81" transform="translate(-8.58 5.95) rotate(-5.76)"/>
          <path class="cls-4" d="M55.93,94.43l-.72-.38c.5-.95,1.13-1.82,1.86-2.6l.59.56c-.68.72-1.27,1.54-1.73,2.42Z"/>
          <path class="cls-4" d="M60.2,95.5c-.21-.58-.09-1.27.3-1.75l.63.51c-.21.26-.28.65-.17.97l-.77.27Z"/>
        </g>
      </g>
    </g>
  </g>
</svg>