<?xml version="1.0" encoding="UTF-8"?>
<svg id="Camada_2" data-name="Camada 2" xmlns="http://www.w3.org/2000/svg" viewBox="0 0 46.8 41.18">
  <defs>
    <style>
      .cls-1 {
        fill: #fefeff;
      }

      .cls-2 {
        fill: #c63f62;
      }

      .cls-3 {
        fill: #43b174;
      }
    </style>
  </defs>
  <g id="Page-3">
    <g id="_Camada_" data-name="&amp;lt;Camada&amp;gt;">
      <g>
        <path class="cls-2" d="M29.24,18.57s17.35.54,5.9,18.63C26.04,51.59-7.26,23.73,1.43,5.11c7.74-16.58,6.14,12.36,27.81,13.46Z"/>
        <path class="cls-3" d="M40.49,30.14s6.8-5.13,6.29-.37c-.51,4.76-7.01,4.33-7.01,4.33,0,0-1.74,5.94-7.08,5.68-5.35-.26,2-5.15,2-5.15,0,0-7.93.19-6.97-2.97.96-3.16,8.36-2.07,8.36-2.07,0,0-4.37-8.08-2.07-8.36,2.3-.27,6.86.72,6.48,8.9Z"/>
        <path class="cls-1" d="M11.85,12.95c.02-.2.16-.39.36-.47.3-.12.64.02.76.32,3.26,8.09,15.73,9.34,15.86,9.35.32.03.56.31.53.64,0,.3-.31.56-.63.53-.54-.05-13.3-1.33-16.83-10.08-.04-.09-.05-.19-.04-.29Z"/>
      </g>
    </g>
  </g>
</svg>