<?xml version="1.0" encoding="UTF-8"?>
<svg id="Camada_2" data-name="Camada 2" xmlns="http://www.w3.org/2000/svg" viewBox="0 0 55.8 84.48">
  <defs>
    <style>
      .cls-1 {
        fill: none;
        stroke: #341d35;
        stroke-linecap: round;
        stroke-linejoin: round;
        stroke-width: .75px;
      }

      .cls-2 {
        fill: #fac63f;
      }

      .cls-3 {
        fill: #341d35;
      }

      .cls-4 {
        fill: #29b8db;
      }
    </style>
  </defs>
  <g id="Page-3">
    <g id="_Camada_" data-name="&amp;lt;Camada&amp;gt;">
      <g>
        <polygon class="cls-2" points="35.17 13.01 19.88 17.33 4.59 21.66 19.72 78.8 35.83 73.73 52.21 69.62 35.17 13.01"/>
        <g>
          <path class="cls-1" d="M22.88,58.47c.2.71.36,1.28-.6,1.55-.96.27-1.12-.3-1.32-1.01-.2-.71-.15-2.16.38-2.31.53-.15,1.33,1.06,1.53,1.76Z"/>
          <path class="cls-1" d="M26.47,57.46c.2.71.36,1.28-.6,1.55-.96.27-1.12-.3-1.32-1.01-.2-.71-.15-2.16.38-2.31.53-.15,1.33,1.06,1.53,1.76Z"/>
          <path class="cls-1" d="M29.98,56.47c.2.71.36,1.28-.6,1.55-.96.27-1.12-.3-1.32-1.01-.2-.71-.15-2.16.38-2.31.53-.15,1.33,1.06,1.53,1.76Z"/>
          <path class="cls-1" d="M33.5,55.47c.2.71.36,1.28-.6,1.55-.96.27-1.12-.3-1.32-1.01-.2-.71-.15-2.16.38-2.31.53-.15,1.33,1.06,1.53,1.76Z"/>
          <path class="cls-1" d="M37.01,54.48c.2.71.36,1.28-.6,1.55-.96.27-1.12-.3-1.32-1.01-.2-.71-.15-2.16.38-2.31s1.33,1.06,1.53,1.76Z"/>
          <path class="cls-1" d="M40.52,53.49c.2.71.36,1.28-.6,1.55-.96.27-1.12-.3-1.32-1.01-.2-.71-.15-2.16.38-2.31.53-.15,1.33,1.06,1.53,1.76Z"/>
          <path class="cls-1" d="M25.42,67.45c.2.71.36,1.28-.6,1.55-.96.27-1.12-.3-1.32-1.01-.2-.71-.15-2.16.38-2.31.53-.15,1.33,1.06,1.53,1.76Z"/>
          <path class="cls-1" d="M29.01,66.44c.2.71.36,1.28-.6,1.55s-1.12-.3-1.32-1.01c-.2-.71-.15-2.16.38-2.31.53-.15,1.33,1.06,1.53,1.76Z"/>
          <path class="cls-1" d="M32.52,65.44c.2.71.36,1.28-.6,1.55-.96.27-1.12-.3-1.32-1.01-.2-.71-.15-2.16.38-2.31.53-.15,1.33,1.06,1.53,1.76Z"/>
          <path class="cls-1" d="M36.04,64.45c.2.71.36,1.28-.6,1.55-.96.27-1.12-.3-1.32-1.01-.2-.71-.15-2.16.38-2.31s1.33,1.06,1.53,1.76Z"/>
          <path class="cls-1" d="M39.55,63.46c.2.71.36,1.28-.6,1.55-.96.27-1.12-.3-1.32-1.01-.2-.71-.15-2.16.38-2.31.53-.15,1.33,1.06,1.53,1.76Z"/>
          <path class="cls-1" d="M43.06,62.46c.2.71.36,1.28-.6,1.55-.96.27-1.12-.3-1.32-1.01-.2-.71-.15-2.16.38-2.31s1.33,1.06,1.53,1.76Z"/>
          <path class="cls-1" d="M26.11,62.6c.2.71.36,1.28-.6,1.55-.96.27-1.12-.3-1.32-1.01-.2-.71-.15-2.16.38-2.31.53-.15,1.33,1.06,1.53,1.76Z"/>
          <path class="cls-1" d="M29.71,61.58c.2.71.36,1.28-.6,1.55-.96.27-1.12-.3-1.32-1.01-.2-.71-.15-2.16.38-2.31.53-.15,1.33,1.06,1.53,1.76Z"/>
          <path class="cls-1" d="M33.22,60.59c.2.71.36,1.28-.6,1.55s-1.12-.3-1.32-1.01c-.2-.71-.15-2.16.38-2.31s1.33,1.06,1.53,1.76Z"/>
          <path class="cls-1" d="M36.73,59.59c.2.71.36,1.28-.6,1.55-.96.27-1.12-.3-1.32-1.01-.2-.71-.15-2.16.38-2.31.53-.15,1.33,1.06,1.53,1.76Z"/>
          <path class="cls-1" d="M40.24,58.6c.2.71.36,1.28-.6,1.55-.96.27-1.12-.3-1.32-1.01-.2-.71-.15-2.16.38-2.31s1.33,1.06,1.53,1.76Z"/>
          <path class="cls-1" d="M28.65,71.58c.2.71.36,1.28-.6,1.55-.96.27-1.12-.3-1.32-1.01-.2-.71-.15-2.16.38-2.31s1.33,1.06,1.53,1.76Z"/>
          <path class="cls-1" d="M32.25,70.56c.2.71.36,1.28-.6,1.55-.96.27-1.12-.3-1.32-1.01s-.15-2.16.38-2.31c.53-.15,1.33,1.06,1.53,1.76Z"/>
          <path class="cls-1" d="M35.76,69.57c.2.71.36,1.28-.6,1.55-.96.27-1.12-.3-1.32-1.01-.2-.71-.15-2.16.38-2.31.53-.15,1.33,1.06,1.53,1.76Z"/>
          <path class="cls-1" d="M39.27,68.57c.2.71.36,1.28-.6,1.55-.96.27-1.12-.3-1.32-1.01-.2-.71-.15-2.16.38-2.31s1.33,1.06,1.53,1.76Z"/>
          <path class="cls-1" d="M42.78,67.58c.2.71.36,1.28-.6,1.55-.96.27-1.12-.3-1.32-1.01-.2-.71-.15-2.16.38-2.31.53-.15,1.33,1.06,1.53,1.76Z"/>
        </g>
        <path class="cls-3" d="M12.01,24.94c.1.34-.1.69-.44.78-.34.1-.69-.1-.78-.44-.1-.34.1-.69.44-.78.34-.1.69.1.78.44Z"/>
        <path class="cls-3" d="M14.71,24.17c.1.34-.1.69-.44.78-.34.1-.69-.1-.78-.44-.1-.34.1-.69.44-.78.34-.1.69.1.78.44Z"/>
        <path class="cls-3" d="M17.41,23.41c.1.34-.1.69-.44.78-.34.1-.69-.1-.78-.44-.1-.34.1-.69.44-.78.34-.1.69.1.78.44Z"/>
        <path class="cls-3" d="M20.11,22.65c.1.34-.1.69-.44.78-.34.1-.69-.1-.78-.44-.1-.34.1-.69.44-.78.34-.1.69.1.78.44Z"/>
        <path class="cls-3" d="M22.8,21.88c.1.34-.1.69-.44.78-.34.1-.69-.1-.78-.44-.1-.34.1-.69.44-.78.34-.1.69.1.78.44Z"/>
        <path class="cls-3" d="M25.5,21.12c.1.34-.1.69-.44.78-.34.1-.69-.1-.78-.44-.1-.34.1-.69.44-.78.34-.1.69.1.78.44Z"/>
        <path class="cls-3" d="M28.2,20.36c.1.34-.1.69-.44.78-.34.1-.69-.1-.78-.44-.1-.34.1-.69.44-.78.34-.1.69.1.78.44Z"/>
        <path class="cls-3" d="M30.9,19.59c.1.34-.1.69-.44.78-.34.1-.69-.1-.78-.44-.1-.34.1-.69.44-.78.34-.1.69.1.78.44Z"/>
        <path class="cls-3" d="M12.75,27.55c.1.34-.1.69-.44.78-.34.1-.69-.1-.78-.44-.1-.34.1-.69.44-.78.34-.1.69.1.78.44Z"/>
        <path class="cls-3" d="M15.45,26.79c.1.34-.1.69-.44.78-.34.1-.69-.1-.78-.44-.1-.34.1-.69.44-.78.34-.1.69.1.78.44Z"/>
        <path class="cls-3" d="M18.15,26.02c.1.34-.1.69-.44.78-.34.1-.69-.1-.78-.44-.1-.34.1-.69.44-.78.34-.1.69.1.78.44Z"/>
        <path class="cls-3" d="M20.85,25.26c.1.34-.1.69-.44.78-.34.1-.69-.1-.78-.44-.1-.34.1-.69.44-.78.34-.1.69.1.78.44Z"/>
        <path class="cls-3" d="M23.54,24.5c.1.34-.1.69-.44.78-.34.1-.69-.1-.78-.44-.1-.34.1-.69.44-.78.34-.1.69.1.78.44Z"/>
        <path class="cls-3" d="M26.24,23.73c.1.34-.1.69-.44.78-.34.1-.69-.1-.78-.44-.1-.34.1-.69.44-.78s.69.1.78.44Z"/>
        <path class="cls-3" d="M28.94,22.97c.1.34-.1.69-.44.78-.34.1-.69-.1-.78-.44-.1-.34.1-.69.44-.78.34-.1.69.1.78.44Z"/>
        <path class="cls-3" d="M31.64,22.21c.1.34-.1.69-.44.78-.34.1-.69-.1-.78-.44-.1-.34.1-.69.44-.78.34-.1.69.1.78.44Z"/>
        <path class="cls-3" d="M16.19,29.4c.1.34-.1.69-.44.78-.34.1-.69-.1-.78-.44-.1-.34.1-.69.44-.78.34-.1.69.1.78.44Z"/>
        <path class="cls-3" d="M18.89,28.64c.1.34-.1.69-.44.78-.34.1-.69-.1-.78-.44-.1-.34.1-.69.44-.78.34-.1.69.1.78.44Z"/>
        <path class="cls-3" d="M21.59,27.88c.1.34-.1.69-.44.78-.34.1-.69-.1-.78-.44-.1-.34.1-.69.44-.78.34-.1.69.1.78.44Z"/>
        <path class="cls-3" d="M24.28,27.11c.1.34-.1.69-.44.78-.34.1-.69-.1-.78-.44-.1-.34.1-.69.44-.78.34-.1.69.1.78.44Z"/>
        <path class="cls-3" d="M26.98,26.35c.1.34-.1.69-.44.78-.34.1-.69-.1-.78-.44-.1-.34.1-.69.44-.78.34-.1.69.1.78.44Z"/>
        <path class="cls-3" d="M29.68,25.59c.1.34-.1.69-.44.78-.34.1-.69-.1-.78-.44-.1-.34.1-.69.44-.78.34-.1.69.1.78.44Z"/>
        <path class="cls-3" d="M16.93,32.02c.1.34-.1.69-.44.78-.34.1-.69-.1-.78-.44-.1-.34.1-.69.44-.78.34-.1.69.1.78.44Z"/>
        <path class="cls-3" d="M19.63,31.25c.1.34-.1.69-.44.78-.34.1-.69-.1-.78-.44-.1-.34.1-.69.44-.78.34-.1.69.1.78.44Z"/>
        <path class="cls-3" d="M22.33,30.49c.1.34-.1.69-.44.78-.34.1-.69-.1-.78-.44-.1-.34.1-.69.44-.78.34-.1.69.1.78.44Z"/>
        <path class="cls-3" d="M25.02,29.73c.1.34-.1.69-.44.78-.34.1-.69-.1-.78-.44-.1-.34.1-.69.44-.78.34-.1.69.1.78.44Z"/>
        <path class="cls-3" d="M27.72,28.96c.1.34-.1.69-.44.78-.34.1-.69-.1-.78-.44-.1-.34.1-.69.44-.78.34-.1.69.1.78.44Z"/>
        <path class="cls-3" d="M30.42,28.2c.1.34-.1.69-.44.78-.34.1-.69-.1-.78-.44-.1-.34.1-.69.44-.78.34-.1.69.1.78.44Z"/>
        <path class="cls-3" d="M20.37,33.87c.1.34-.1.69-.44.78-.34.1-.69-.1-.78-.44-.1-.34.1-.69.44-.78.34-.1.69.1.78.44Z"/>
        <path class="cls-3" d="M23.06,33.11c.1.34-.1.69-.44.78-.34.1-.69-.1-.78-.44-.1-.34.1-.69.44-.78.34-.1.69.1.78.44Z"/>
        <path class="cls-3" d="M25.76,32.34c.1.34-.1.69-.44.78-.34.1-.69-.1-.78-.44s.1-.69.44-.78c.34-.1.69.1.78.44Z"/>
        <path class="cls-3" d="M28.46,31.58c.1.34-.1.69-.44.78-.34.1-.69-.1-.78-.44-.1-.34.1-.69.44-.78.34-.1.69.1.78.44Z"/>
        <path class="cls-3" d="M21.11,36.48c.1.34-.1.69-.44.78-.34.1-.69-.1-.78-.44-.1-.34.1-.69.44-.78.34-.1.69.1.78.44Z"/>
        <path class="cls-3" d="M23.8,35.72c.1.34-.1.69-.44.78-.34.1-.69-.1-.78-.44-.1-.34.1-.69.44-.78.34-.1.69.1.78.44Z"/>
        <path class="cls-3" d="M26.5,34.96c.1.34-.1.69-.44.78-.34.1-.69-.1-.78-.44-.1-.34.1-.69.44-.78.34-.1.69.1.78.44Z"/>
        <path class="cls-3" d="M29.2,34.19c.1.34-.1.69-.44.78-.34.1-.69-.1-.78-.44-.1-.34.1-.69.44-.78.34-.1.69.1.78.44Z"/>
        <path class="cls-3" d="M24.54,38.33c.1.34-.1.69-.44.78-.34.1-.69-.1-.78-.44-.1-.34.1-.69.44-.78.34-.1.69.1.78.44Z"/>
        <path class="cls-3" d="M27.24,37.57c.1.34-.1.69-.44.78-.34.1-.69-.1-.78-.44-.1-.34.1-.69.44-.78.34-.1.69.1.78.44Z"/>
        <path class="cls-3" d="M25.28,40.95c.1.34-.1.69-.44.78-.34.1-.69-.1-.78-.44-.1-.34.1-.69.44-.78.34-.1.69.1.78.44Z"/>
        <path class="cls-3" d="M27.98,40.19c.1.34-.1.69-.44.78-.34.1-.69-.1-.78-.44-.1-.34.1-.69.44-.78.34-.1.69.1.78.44Z"/>
        <path class="cls-4" d="M33.19,1.74c-.24-.47-.66-.8-1.17-.92-2.2-.54-8.93-1.78-16.85.58C7.19,3.53,2.11,8.11.52,9.72c-.37.37-.56.88-.51,1.4.74,8.89,14.52,60.17,17.62,71.64.34,1.26,1.64,1.99,2.89,1.63l16.79-4.75,16.79-4.75c1.25-.35,1.98-1.66,1.61-2.91-3.37-11.4-18.49-62.3-22.52-70.25ZM49.38,67.75c.3,1.11-.35,2.25-1.46,2.56l-12.28,3.47-12.28,3.47c-1.1.31-2.25-.32-2.58-1.42C17.76,65.66,4.11,19.59,4.65,15.59c.6-4.49,12.3-7.94,12.3-7.94,0,0,11.77-3.19,14.63.32,2.55,3.12,15.06,49.52,17.8,59.77Z"/>
        <rect class="cls-1" x="27.16" y="36.08" width="2.85" height="21.76" rx="1.43" ry="1.43" transform="translate(46.76 -4.92) rotate(50.63)"/>
        <line class="cls-1" x1="20.48" y1="54.14" x2="37.17" y2="40.34"/>
        <path class="cls-1" d="M13.59,51.21l6.84,24.17c.39,1.39,1.84,2.19,3.22,1.8l14.42-4.08"/>
        <path class="cls-1" d="M3.44,14.05s2.54-5.55,12.21-8.28c9.66-2.73,15.12-.2,15.12-.2"/>
      </g>
    </g>
  </g>
</svg>