<?xml version="1.0" encoding="UTF-8"?>
<svg id="Camada_2" data-name="Camada 2" xmlns="http://www.w3.org/2000/svg" viewBox="0 0 32.55 114.79">
  <defs>
    <style>
      .cls-1 {
        fill: #fac63f;
      }

      .cls-2 {
        fill: #6d5ba4;
      }

      .cls-3 {
        fill: #ed6e24;
      }
    </style>
  </defs>
  <g id="Page-3">
    <g id="_Camada_" data-name="&amp;lt;Camada&amp;gt;">
      <g>
        <path class="cls-1" d="M30.88,9.32C29.17-.17,16.27,0,16.27,0,16.27,0,3.38-.17,1.67,9.32-.04,18.8,7.53,18.91,7.53,23.6h17.48c0-4.69,7.57-4.8,5.86-14.29Z"/>
        <path class="cls-2" d="M25.02,23.6H7.53L0,106.67s3.66,8.12,16.27,8.12,16.28-8.12,16.28-8.12l-7.53-83.07Z"/>
        <path class="cls-3" d="M25.77,25.04H6.89c-.83,0-1.52-.68-1.52-1.52h0c0-.83.68-1.52,1.52-1.52h18.88c.83,0,1.52.68,1.52,1.52h0c0,.83-.68,1.52-1.52,1.52Z"/>
        <g>
          <path class="cls-3" d="M18.09,2.2c0,.45-.79.81-1.76.81s-1.76-.36-1.76-.81.79-.81,1.76-.81,1.76.36,1.76.81Z"/>
          <path class="cls-3" d="M18.09,5.81c0,.45-.79.81-1.76.81s-1.76-.36-1.76-.81.79-.81,1.76-.81,1.76.36,1.76.81Z"/>
          <path class="cls-3" d="M18.09,9.42c0,.45-.79.81-1.76.81s-1.76-.36-1.76-.81.79-.81,1.76-.81,1.76.36,1.76.81Z"/>
          <path class="cls-3" d="M23.71,3.83c0,.45-.79.81-1.76.81s-1.76-.36-1.76-.81.79-.81,1.76-.81,1.76.36,1.76.81Z"/>
          <path class="cls-3" d="M23.71,7.44c0,.45-.79.81-1.76.81s-1.76-.36-1.76-.81.79-.81,1.76-.81,1.76.36,1.76.81Z"/>
          <path class="cls-3" d="M12.47,3.83c0,.45-.79.81-1.76.81s-1.76-.36-1.76-.81.79-.81,1.76-.81,1.76.36,1.76.81Z"/>
          <path class="cls-3" d="M12.47,7.44c0,.45-.79.81-1.76.81s-1.76-.36-1.76-.81.79-.81,1.76-.81,1.76.36,1.76.81Z"/>
        </g>
      </g>
    </g>
  </g>
</svg>