<?xml version="1.0" encoding="UTF-8"?>
<svg id="Camada_2" data-name="Camada 2" xmlns="http://www.w3.org/2000/svg" viewBox="0 0 102.47 117.83">
  <defs>
    <style>
      .cls-1 {
        fill: none;
        stroke: #341d35;
        stroke-linecap: round;
        stroke-linejoin: round;
        stroke-width: .75px;
      }

      .cls-2 {
        fill: #c63f62;
      }
    </style>
  </defs>
  <g id="Page-3">
    <g id="_Camada_" data-name="&amp;lt;Camada&amp;gt;">
      <g>
        <path class="cls-2" d="M85.03,3.82c-.57.75-1.02,1.56-1.34,2.39h0s0,0,0,.01c-.06.14-.11.29-.16.44-.6,1.6-2.95,7.38-8.56,15.78-1.71,2.56-5.22,3.13-7.66,1.26l-11.14-8.53c-2.84-2.17-6.9-1.64-9.08,1.2L1.33,76.11c-2.17,2.84-1.64,6.9,1.2,9.08l40.88,31.31c2.84,2.17,6.9,1.64,9.08-1.2l45.75-59.74c2.17-2.84,1.64-6.9-1.2-9.08l-9.97-7.64c-3.1-2.37-3.52-6.88-.92-9.78,6.13-6.83,10.66-10.27,11.97-11.21.13-.09.26-.17.38-.27,0,0,.01,0,.01,0h0c.94-.69,1.77-1.56,2.45-2.62,2.58-4.05,1.78-9.47-1.87-12.6-4.28-3.67-10.69-2.95-14.07,1.46ZM97.84,9.22c.4,3.01-1.71,5.77-4.72,6.16-3.01.4-5.76-1.71-6.16-4.72-.4-3.01,1.71-5.76,4.72-6.16s5.76,1.71,6.16,4.72Z"/>
        <line class="cls-1" x1="3.22" y1="86.66" x2="57.64" y2="16.3"/>
        <line class="cls-1" x1="62.13" y1="20.72" x2="11.55" y2="91.1"/>
        <line class="cls-1" x1="17.87" y1="96.93" x2="74.96" y2="22.44"/>
        <line class="cls-1" x1="23.96" y1="101.59" x2="90.47" y2="15.08"/>
        <line class="cls-1" x1="31.37" y1="107.26" x2="85.68" y2="37.39"/>
        <line class="cls-1" x1="92.4" y1="42.92" x2="39.91" y2="113.81"/>
      </g>
    </g>
  </g>
</svg>