<?xml version="1.0" encoding="UTF-8"?>
<svg id="Camada_2" data-name="Camada 2" xmlns="http://www.w3.org/2000/svg" xmlns:xlink="http://www.w3.org/1999/xlink" viewBox="0 0 139.51 141.66">
  <defs>
    <style>
      .cls-1 {
        fill: #0c406a;
      }

      .cls-2 {
        fill: #ccc202;
      }

      .cls-3, .cls-4 {
        fill: #fff;
      }

      .cls-5 {
        fill: #042122;
        opacity: .18;
      }

      .cls-6, .cls-7, .cls-8 {
        fill: none;
      }

      .cls-9 {
        fill: #844313;
      }

      .cls-4 {
        opacity: .52;
      }

      .cls-10 {
        fill: #086066;
      }

      .cls-7 {
        stroke: #042122;
      }

      .cls-7, .cls-8 {
        stroke-linecap: round;
        stroke-linejoin: round;
      }

      .cls-11 {
        fill: #eb5b2b;
      }

      .cls-12 {
        fill: #29b8db;
      }

      .cls-13 {
        opacity: .28;
      }

      .cls-14 {
        clip-path: url(#clippath);
      }

      .cls-8 {
        stroke: #086066;
      }
    </style>
    <clipPath id="clippath">
      <rect class="cls-6" x="0" width="93.66" height="75.47"/>
    </clipPath>
  </defs>
  <g id="Page-3">
    <g id="_Camada_" data-name="&amp;lt;Camada&amp;gt;">
      <g>
        <g>
          <circle class="cls-12" cx="77.48" cy="79.79" r="56.96" transform="translate(-13.2 144.19) rotate(-81.22)"/>
          <path class="cls-5" d="M129.39,103.27c3.24-7.16,5.05-15.11,5.05-23.48,0-31.46-25.5-56.96-56.96-56.96s-56.96,25.5-56.96,56.96c0,.88.02,1.75.06,2.62l1.6.72s15.89-36,64.13-31.23c48.23,4.77,43.07,51.33,43.07,51.37Z"/>
          <path class="cls-1" d="M77.55,141.66c-34.17,0-61.96-27.79-61.96-61.96s27.79-61.96,61.96-61.96,61.96,27.79,61.96,61.96-27.79,61.96-61.96,61.96ZM77.55,27.74c-28.65,0-51.96,23.31-51.96,51.96s23.31,51.96,51.96,51.96,51.96-23.31,51.96-51.96-23.31-51.96-51.96-51.96Z"/>
        </g>
        <g>
          <g>
            <path class="cls-2" d="M87.85,95.78c.03.1.06.17.07.2-5.67.75-14.92-1.34-20.63-1.73-2.97-.2-6.04-.7-8.88.23-6.37,3.87-14.79-.09-13.62-8.03-6.1.89-9.92-7.15-5.39-11.32-2.52-2.63-.59-7.36,3.06-7.47-2.07-6.18,2.39-6.17,6.92-5.28-3.64-4.8-.25-10.76,5.72-10.47,4.67.33,9.05,2.94,13.12,5.12,5.37,4.46,9.75,10.54,12.52,16.92,1.58,4.34,1.9,9,3.79,13.15,1.29,2.82,2.39,5.72,3.31,8.68Z"/>
            <g>
              <path class="cls-8" d="M78.31,84.18c-5.99-.97-10.69-5.46-15.2-9.52-4.51-4.06-9.82-8.12-15.88-7.9"/>
              <path class="cls-8" d="M74.55,83.14c-.99-1.18-1.25-2.8-1.28-4.34-.06-2.71.46-5.42,1.53-7.91"/>
              <path class="cls-8" d="M66.03,77.46c-1.57-2.33-2.25-5.17-2.36-7.98-.11-2.81.31-5.61.78-8.37"/>
              <path class="cls-8" d="M57.82,70.41c-.72-.64-.97-1.63-1.14-2.58-.69-3.83-.53-7.81.47-11.57"/>
              <path class="cls-8" d="M63.11,74.66c-6.22-1.6-14.02.09-18.43,4.76"/>
              <path class="cls-8" d="M66.07,77.33c-1.3-.23-2.64.12-3.88.56-3.29,1.17-6.33,3.02-8.88,5.41"/>
              <path class="cls-8" d="M71.08,81.31c-1.48-.2-3.02.15-4.27.96"/>
            </g>
          </g>
          <g>
            <path class="cls-2" d="M76,114.13c-.1.02-.16.04-.19.05,1.06-5.14,5.58-13.23,7.6-18.3,1.06-2.64,2.39-5.35,2.45-7.96-1.38-6.04,4.48-13.22,10.85-11.48,1.06-5.53,9.01-8.24,11.19-3.82,2.98-2.02,6.41.13,5.41,3.4,5.85-1.3,4.51,2.69,2.42,6.66,5.15-2.83,9.19.73,7.16,6.05-1.67,4.14-5.19,7.83-8.24,11.28-5.37,4.41-11.83,7.79-18.06,9.71-4.14,1.03-8.19.9-12.26,2.22-2.77.9-5.55,1.63-8.34,2.19Z"/>
            <g>
              <path class="cls-8" d="M76,113.69c11.61-8.18,21.98-18.57,30.14-30.21"/>
              <path class="cls-8" d="M100.66,90.72c.29-3.07.06-6.07-.68-8.82-.07-.26-.15-.52-.33-.7"/>
              <path class="cls-8" d="M93.34,99.05c.88-4.49-.09-8.88-2.61-11.89"/>
              <path class="cls-8" d="M85.76,106.13c.06-1.54-.43-2.96-1.36-3.97"/>
              <path class="cls-8" d="M85.78,106.34c2.28-.33,4.44.45,5.66,2.04"/>
              <path class="cls-8" d="M93.34,99.03c3.66-.56,7.1.75,8.94,3.4"/>
              <path class="cls-8" d="M101.02,90.61c1.69.03,3.37.16,4.83.74,1.46.58,2.69,1.66,3.11,3.21"/>
            </g>
            <path class="cls-7" d="M121.15,92.03s-7.29,15.51-30.99,18.72l-14.16,3.38"/>
          </g>
          <g>
            <path class="cls-2" d="M95.27,85.5c.11.01.18.02.21.01-1.59,5.5-7.21,13.13-9.85,18.21-1.38,2.64-2.86,6.26-2.97,8.22-.34,6.42-1.21,11.14-4.36,11.91-1.89.46-5.78-.74-8.83-2.64-1.63,5.94-10.53,6.23-12.53.4-3.42,1.26-6.98-2.41-5.62-5.79-6.49-.58-4.69-4.66-2.07-8.46-5.86,1.41-9.96-4.08-7.3-9.44,2.17-4.14,6.32-7.11,9.94-9.97,6.24-3.13,13.57-4.71,20.52-4.7,4.61.29,9.01,1.86,13.56,1.79,3.1-.05,6.2.1,9.28.44Z"/>
            <g>
              <path class="cls-8" d="M95.23,86c-13.36,5.23-25.55,13.43-35.44,23.83"/>
              <path class="cls-8" d="M66.38,103.51c-.57,3.4-.58,6.9,0,10.31.05.32.12.65.3.91"/>
              <path class="cls-8" d="M75.07,96.58c-1.34,4.82-.66,10.16,1.84,14.49"/>
              <path class="cls-8" d="M83.94,91.18c-.19,1.74.22,3.53,1.15,5.01"/>
              <path class="cls-8" d="M83.93,90.94c-2.52-.43-4.8-2.08-6-4.33"/>
              <path class="cls-8" d="M75.07,96.6c-4.04-.65-7.69-3.37-9.47-7.05"/>
              <path class="cls-8" d="M65.97,103.5c-1.84-.63-3.66-1.38-5.21-2.56-1.54-1.18-2.79-2.85-3.12-4.76"/>
            </g>
            <path class="cls-7" d="M44.14,94.77s9.27-15.13,35.39-10.42l15.74,1.15"/>
            <path class="cls-7" d="M82.21,116.93s-.33-7.56,5.71-17.19c6.37-10.15,6.75-11.97,6.75-11.97"/>
          </g>
          <g>
            <path class="cls-11" d="M60.92,103.26c-.13-1.1,0-2.27.59-3.21.6-.93,1.75-1.56,2.83-1.32.92.21,1.6.96,2.32,1.57.79.67,1.69,1.22,2.65,1.61,1.22.49,2.85.63,3.65-.41.57-.74.49-1.76.54-2.68.14-2.29,1.66-4.7,3.94-4.98,2.16-.26,4.04,1.38,5.59,2.91-.64.79-1.24,1.57-1.88,2.36.1-1.21-.81-2.41-2-2.65-1.19-.24-2.49.53-2.86,1.68-.23.71-.13,1.47-.18,2.21-.13,1.75-1.18,3.41-2.71,4.28-1.53.87-3.49.91-5.06.12-1.13-.57-2.03-1.52-3.16-2.08-.56-.28-1.28-.43-1.76-.03-.71.6-.25,1.8-.67,2.63-.59-.25-1.21-.42-1.84-.51,0-.37.03-1.12,0-1.49Z"/>
            <path class="cls-10" d="M58.54,92.57c.53-.97,1.3-1.86,2.33-2.28,1.03-.42,2.33-.27,3.08.55.64.7.76,1.71,1,2.62.26,1,.68,1.97,1.24,2.84.71,1.11,1.96,2.15,3.22,1.76.89-.28,1.41-1.16,1.99-1.88,1.44-1.79,4.06-2.89,6.09-1.81,1.92,1.03,2.51,3.45,2.9,5.6-.98.28-1.92.57-2.89.85.78-.93.72-2.44-.11-3.32-.84-.88-2.34-1-3.31-.27-.59.45-.95,1.13-1.42,1.71-1.11,1.36-2.93,2.11-4.67,1.94-1.75-.17-3.38-1.26-4.21-2.82-.59-1.12-.78-2.41-1.38-3.52-.3-.55-.8-1.09-1.42-1.03-.92.08-1.24,1.33-2.06,1.77-.34-.54-.75-1.04-1.21-1.48.21-.31.67-.9.85-1.22Z"/>
          </g>
          <g>
            <path class="cls-11" d="M99.04,102.23c-1.03-.22-2.06-.72-2.74-1.65-.68-.93-.94-2.34-.42-3.41.44-.91,1.31-1.39,2.06-1.95.83-.62,1.57-1.39,2.18-2.28.78-1.13,1.35-2.8.62-3.98-.51-.83-1.46-1.07-2.28-1.43-2.04-.88-3.81-3.25-3.43-5.74.35-2.36,2.36-3.82,4.17-4.97.54.92,1.08,1.81,1.62,2.73-1.07-.49-2.41.09-2.95,1.27-.54,1.18-.2,2.8.74,3.55.58.47,1.3.61,1.96.9,1.55.69,2.77,2.33,3.14,4.22.37,1.89-.13,3.97-1.28,5.37-.83,1.01-1.94,1.65-2.75,2.67-.4.5-.74,1.21-.51,1.84.35.94,1.57.84,2.2,1.54-.38.54-.71,1.14-.97,1.78-.34-.11-1.01-.39-1.35-.46Z"/>
            <path class="cls-10" d="M88.71,101.34c-.74-.87-1.33-1.97-1.43-3.19-.1-1.22.39-2.54,1.34-3.07.81-.45,1.75-.26,2.65-.22.98.05,1.97-.09,2.91-.4,1.2-.4,2.49-1.39,2.48-2.84,0-1.02-.66-1.85-1.16-2.7-1.23-2.09-1.51-5.21.03-7,1.46-1.7,3.82-1.55,5.87-1.28-.01,1.12-.01,2.2-.02,3.32-.63-1.11-2.01-1.54-3.04-.94-1.02.6-1.55,2.15-1.15,3.4.24.77.76,1.37,1.16,2.04.93,1.61,1.11,3.76.48,5.55-.63,1.79-2.07,3.16-3.7,3.54-1.17.27-2.4.05-3.57.34-.58.14-1.21.5-1.33,1.17-.18,1,.87,1.73,1.04,2.74-.58.19-1.15.46-1.67.81-.22-.32-.63-1-.87-1.28Z"/>
          </g>
          <g>
            <g>
              <ellipse class="cls-11" cx="68.31" cy="77.01" rx="7.53" ry="5.19"/>
              <path class="cls-4" d="M67.46,74.68c.33.57-.28,1.55-1.36,2.18-1.09.63-2.23.67-2.57.09-.33-.57.28-1.55,1.36-2.18,1.09-.63,2.23-.67,2.57-.09Z"/>
            </g>
            <g>
              <ellipse class="cls-11" cx="88.61" cy="65.62" rx="7.53" ry="5.19"/>
              <path class="cls-4" d="M87.77,63.29c.33.57-.28,1.55-1.36,2.18-1.09.63-2.23.67-2.57.09-.33-.57.28-1.55,1.36-2.18,1.09-.63,2.23-.67,2.57-.09Z"/>
            </g>
            <g>
              <ellipse class="cls-11" cx="88.44" cy="81.25" rx="7.53" ry="5.19" transform="translate(-27.65 50.49) rotate(-27.73)"/>
              <path class="cls-4" d="M88.1,78.79c-.03.66.97,1.24,2.22,1.29s2.29-.45,2.32-1.11c.03-.66-.97-1.24-2.22-1.29-1.25-.05-2.29.45-2.32,1.11Z"/>
            </g>
          </g>
        </g>
        <g class="cls-14">
          <g>
            <path class="cls-9" d="M9.47,32.49l51.11,22.56.75,1.24c2.12,3.5,4.75,6.66,7.81,9.37l8.68,7.72c1.78,1.59,4.6.96,5.53-1.24l8.8-20.57c.94-2.19-.55-4.66-2.93-4.86l-9.57-.77c-5.21-.42-10.46.16-15.45,1.72h0c-.18-.15-51.02-20.79-51.24-20.9-3.64-1.65-8.45,3.39-3.48,5.73ZM72.35,49.38c19.56-2.84,11.41,8.18-1.87,2.17-.72-.33-.72-1.37.02-1.66.68-.26,1.42-.43,1.85-.52ZM70.23,55.57c-.66-.53-.27-1.62.58-1.6,4.25.1,9.98,2.69,12.62,5.77,2.33,4.37-9.1-.85-13.2-4.17ZM66.91,58.08c-.4-.62.25-1.4.94-1.13,13.63,5.2,12.57,19.27.77,3.45-.28-.41-1.11-1.4-1.71-2.32Z"/>
            <g class="cls-13">
              <path class="cls-3" d="M76.86,63.88l1.53-3.68c-2.25-.94-4.77-2.28-6.66-3.54l-.74,1.78c2.89,1.66,4.83,3.7,5.87,5.44Z"/>
              <path class="cls-3" d="M82.81,49.6l1.37-3.29-4.54-.37c-1.13-.09-2.26-.13-3.39-.12l-1.36,3.26c4.03-.38,6.58-.08,7.92.52Z"/>
              <path class="cls-3" d="M74.23,70.2l1.21-2.91c-1.37-.71-3.32-2.43-5.81-5.57l-1.32,3.16c.28.26.54.54.82.79l5.09,4.53Z"/>
              <path class="cls-3" d="M79.79,56.83l1.61-3.86c-1.9.54-4.7.61-7.99-.34l-.65,1.55c2.34.4,4.88,1.37,7.03,2.65Z"/>
            </g>
          </g>
        </g>
      </g>
    </g>
  </g>
</svg>